<mxfile modified="2023-04-14T06:14:24.140Z" host="app.diagrams.net" agent="Mozilla/5.0 (Windows NT 10.0; Win64; x64; rv:109.0) Gecko/20100101 Firefox/111.0" etag="jcxSnY2xlvueeaIR1KnG" version="21.1.7" type="device">
  <diagram id="WI9T0HZ2pTsCkuznbFz-" name="Page-1">
    <mxGraphModel dx="1050" dy="530" grid="1" gridSize="10" guides="1" tooltips="1" connect="1" arrows="1" fold="1" page="1" pageScale="1" pageWidth="1169" pageHeight="827" math="0" shadow="0">
      <root>
        <mxCell id="0" />
        <mxCell id="1" parent="0" />
        <mxCell id="bjE_prnjRbW4GjXfM1Jb-17" value="" style="shape=ext;double=1;rounded=1;whiteSpace=wrap;html=1;fillColor=#e1d5e7;strokeColor=#9673a6;" vertex="1" parent="1">
          <mxGeometry x="640" y="130" width="230" height="150" as="geometry" />
        </mxCell>
        <mxCell id="bjE_prnjRbW4GjXfM1Jb-12" value="" style="shape=ext;double=1;rounded=1;whiteSpace=wrap;html=1;fillColor=#e1d5e7;strokeColor=#9673a6;" vertex="1" parent="1">
          <mxGeometry x="254" y="130" width="260" height="150" as="geometry" />
        </mxCell>
        <mxCell id="bjE_prnjRbW4GjXfM1Jb-1" value="&lt;div&gt;Training &lt;br&gt;&lt;/div&gt;&lt;div&gt;Dataset&lt;/div&gt;" style="text;html=1;align=center;verticalAlign=middle;resizable=0;points=[];autosize=1;strokeColor=none;fillColor=none;" vertex="1" parent="1">
          <mxGeometry x="280" y="220" width="60" height="40" as="geometry" />
        </mxCell>
        <mxCell id="bjE_prnjRbW4GjXfM1Jb-2" value="&lt;b&gt;Server&lt;/b&gt;" style="text;html=1;align=center;verticalAlign=middle;resizable=0;points=[];autosize=1;strokeColor=none;fillColor=none;" vertex="1" parent="1">
          <mxGeometry x="360" y="290" width="60" height="30" as="geometry" />
        </mxCell>
        <mxCell id="bjE_prnjRbW4GjXfM1Jb-3" value="Public &lt;br&gt;Model Params" style="text;html=1;align=center;verticalAlign=middle;resizable=0;points=[];autosize=1;strokeColor=none;fillColor=none;" vertex="1" parent="1">
          <mxGeometry x="410" y="220" width="100" height="40" as="geometry" />
        </mxCell>
        <mxCell id="bjE_prnjRbW4GjXfM1Jb-4" value="&lt;b&gt;Client&lt;/b&gt;" style="text;html=1;align=center;verticalAlign=middle;resizable=0;points=[];autosize=1;strokeColor=none;fillColor=none;" vertex="1" parent="1">
          <mxGeometry x="715" y="290" width="60" height="30" as="geometry" />
        </mxCell>
        <mxCell id="bjE_prnjRbW4GjXfM1Jb-5" value="&lt;div&gt;Private&lt;/div&gt;&lt;div&gt;&amp;nbsp;Test Dataset&lt;/div&gt;" style="text;html=1;align=center;verticalAlign=middle;resizable=0;points=[];autosize=1;strokeColor=none;fillColor=none;" vertex="1" parent="1">
          <mxGeometry x="700" y="220" width="90" height="40" as="geometry" />
        </mxCell>
        <mxCell id="bjE_prnjRbW4GjXfM1Jb-6" value="" style="shape=image;verticalLabelPosition=bottom;labelBackgroundColor=default;verticalAlign=top;aspect=fixed;imageAspect=0;image=data:image/png,iVBORw0KGgoAAAANSUhEUgAAAgAAAAIACAYAAAD0eNT6AAAACXBIWXMAAA7DAAAOwwHHb6hkAAAAGXRFWHRTb2Z0d2FyZQB3d3cuaW5rc2NhcGUub3Jnm+48GgAAIABJREFUeJzs3XeUZOl93vfve0Olzj15djbMRu4uNiGSAEECCwIgJVIidSQSkGnJFC3CYFAmaYmyD6Rj0D60TVGkJBKW5WM5CNTSlggsKCMtEbhIswEbsHl2Z3dy5+6Kt254X/9RPbMzsz073dNVdau6ns85c6anumvqNzXd933uGw0ikrsHHl2eChMzY0I3gXUTvmXcGqY8mHIe484x4Rk37pyZBhcaw7hz+AYmHXgYpnAYMNOdv9FNYzBveCFHARi7TBkNDPEGz3FgVgEwbmX9sTUD1kHVGDLnqINJjHGr1pm6MdSw1BxUPccahlrmm7pLTC0J3cpPv312rRvvm4hcvTdeIERkWz71qAsPxkt7XcBBg9vvnLfXGLfHYXaB22Vgl3NuFs/swrEL2AX4edfdZymwjGEJ65bALGFYBrOEc4tgFo2x8w5z1qScPl3YNf+xt5sk76JFdhIFAJEt+A/fqe7yveg6MNd6ztyA4RoL+w3sx3EQ2Lv+S7pv3sCchdMY5gycwXLKee61wLnjflo8/qPvnlrOu0iRYaEAIHKBz39zbTYJk5ux7maHOYwx14G9Dsx1wPVcvvtcBkMDeA3cazjvOLgT4F4xnnk5TMKjCggir1MAkJHz+W+uzSZ+ehu4WzDuZue8mzHuZuAmYDbv+qSnloGjnV/uKMYcNdYcDbPgBYUDGTUKALJjfe7PVmcIkxudMXc6jztw3AnmDnA35l2bDCDDCs49C94zDp51xj0TkL3y4+/Y90repYn0ggKADL0HnnGFcmvxLdZ59xrcvTjuAvcWMLvzrk12ArcI5nvAU86YJz1jn2iVd3/vp+80b1wxITJEFABkqPzH765M+3H2VoO513ruHoO71zhzu4Mw79pkdBhIHO5ZZ8yTBvOEy+wTthh896fum1nNuzaRzVIAkIH1la+4oDa2fJtx7m3OmPeA+0Hg+wAv79pENmLgDIaHrTPf8Dzz2Hht7dH3v/9wlHddIhtRAJCB8cdHlq71nX2vM+ZdwDuB+4BizmWJbEcEfNfAEefcdwLn/dmf+/5dJ/MuSgQUACRHn3tk7kZn/R+84O7+jrxrEum1C3sJfGsf/vPv2v24McblXZeMHgUA6QvnnPnMYytv8Zz7gHPuhwz8ILAn77pEBsA88LDDfN035qEff8fs9/IuSEaDAoD0zGe+PbcPE/yQMfwIuB8Drs27JpEhMG8MX3O4Lxvjf/4n3j57PO+CZGdSAJCueeCbJ8pFv3S/MeZDwI+gLn2RbnjWwJcw9outpP2Vn373ta28C5KdQQFAtuUz357b5xn/w3j8uHP8KDCRd00iO1irFtnvVdv2RT90//wX3nfgkbwLkuGlACBb8gnnvLcdWX6Xw/04xv15MPfkXZPIqIkzx9lqQj22USkw3y365t/u+uCB//Wnjcnyrk2GhwKAXNEnnPPe9tjKu521fwX4y8DBvGsSEai3LadWE1qJJfSxlaL/Ytn3/m8X2d/+2E8cbOZdnww2BQDZ0AMPOL9848oPrDf6Pw3sz7smEXkjByzVU06vJdj1xYS+Ma5S9I4VQ+/f+TP7/vuPvd0oDMgbKADIeZ9wznvrI4vvBX4WzF9CJ+OJDI126ji1mlCNLh4FCD1jKyX/2ZLHH/zCB/f/vjHG5lSiDBgFAOFz31q8PfPcz3jG/KzrHIkrIkNquZlycjXF2jfuLVQIvLQSmieKvv2tj33o0B/lUJ4MEAWAEfWZb8/tM37wV3HuZ4G35l2PiHRPnDqOr8TU25e/2S8EJhoLzJcrpcI/+Pn797zQx/JkQCgAjJBPOOfd++jS/T78gnP8RaCQd00i0jsL63MD3JtsNGwMjBe918YK5lO3+Af+x/e/36T9q1DypAAwAv7kyPz+zHl/3Rj+prr4RUZLlFpeW+qsFLiSQmDSSuh9J3DeP/jFP7f/230oT3KkALCDPfjIwvucM79s4C84CPOuR0TyYS2cXI1Zbm5umwADjBXNqbGC+R8+9sFr/kVvq5O8KADsMA884wrF+vJf9HB/3xnelXc9IjI4lhoZJ1fjNx0SuFQx9JrjBf4w8KK/97EP3rTWu+qk3xQAdojPfHtunzH+f4HhV4Br8q5HRAZTI7a8uhSTZFs7gTjwjB0vet+aCLyP/9wH9z/do/KkjxQAhtyD356/BeP9187ws2hSn4hsQpw6Xl1q00y2FgLg/KTBF8ICv/LLP3LNl3pQnvSJAsCQ+twjy2+x1v4aho8CQd71iMhwsQ5eXY6ptq7++IDJkneqUjJ/+xfuP/j/drE06RMFgCHzJ0fm77XG+0fO8ZfR/5+IbNOJlZilxjbOEDIwFnpzY8Xg1/6rD+77P7pXmfSaGpAh8ZlH5u8zznwSzI/lXYuI7Cxnqylnq8m2/56xojdfCrO/80sfuu7TXShLekwBYMD9x2+t3OD79h+C+3nAz7seEdmZ5mudTYO6YbzonSwV+blf/JFrvtyVv1B6QgFgQP2nx8/sSbPw7+P4O0Ax73pEZOfrZgjAGCYL3nNTBe9ntGpgMCkADJgHvnmiXPRLv26M+TWgnHc9IjJazlRT5rowHHCO7xk3WfK+PN5q//TP/dTh1a79xbJtCgAD5MEjCz/h4J+DOZx3LSIyuk6tJSzUunskQCHw0smC96mPf3j/rxhjtr7+ULpOAWAAfOaRhduM43fA/GjetYiIsL5EcHUbSwQvpxJ6q5NF/vovfOiaz3b9L5ctUQDI0YOPnq5gi//U4f42WssvIgPEOXhpoU0zvvIhQltmDFNl7zuTxfaP/tz7NSyQFwWAnHzuO/Pvtcb718BtedciIrKR1MKLcxHxFrcN3qxi6MWTBf9XP/7h/b/bkxeQN6UA0GcPPLo8VbL2nwK/DHh51yMi8maaseWlhRi3lROEtmii6L1U8rwPffzHDrzasxeRN1AD1EeffWT5x0rWPgv8LfTei8gQqBQ8Dkz2doSy1ra3rLazo7//xTN/v6cvJBdRD0AffOpRF+7PFn/DGPPfoIZfRIbQK0ttqq0ezAe4xHTZf6S458D7PvZ20+z5i404BYAe68zwN58G7su7FhGRq5Vkjufn2mS29yv4SqHXGC/zk9pJsLd0N9pDn3lk6W8YZx5Djb+IDLnQNxycCvvyWlFix1bq7ov/8gtn/6AvLzii1APQA1/5igtq40u/jeNX8q5FRKSbXlpo02j3fijgnKmS/+yM773zr314f6NvLzoiFAC67MFHq7udjf8IeF/etYiIdFszcbw4H0Ef9/Irh151V9n7gb/xIwee7d+r7nwaAuiiPzkyf6/L4kdR4y8iO1QlNMyU+3swaSuxk/NN++Snvnjyr/T1hXc4BYAuefA7iz+Z4X0Tw/V51yIi0ksHpgIw/e1AjlMbLDX593/wxTP/bV9feAdTAOiCzz6y+J87wx+h0/tEZAQUfI+Zcv+bj9Q6s1BP/8nvfeHMv+37i+9ACgDb9OCRxb+F439He/mLyAjZO5HPJc8BK430r/3e5898JpcCdhAFgG148Mjib3aO79X7KCKjpRx6jBfzu/StNNO/8K++cPpLuRWwA6jhukrrjf8/zLsOEZG87BrLt+NzsZH9yO9+4fRXcy1iiCkAXIXPPrL0d9X4i8iomyr7eDkvJl9tZD/8zz9/+ov5VjGcFAC26MFHFn8J53477zpERPLmGZgs9XdJ4EbWmtkHf+/zp/4w7zqGjQLAFjx4ZOE/c47fy7sOEZFBMQgBAGClaX/mD7505rfyrmOYKABs0oOPLrzVYf412j1RROS8idLgNCOL9fRX/+CLZz+adx3DYnD+5wbYnxyZ32+t+Qxa5y8icpHQNxSDwbgvsg5WWun/+amHTr8171qGgQLAFXzqURem+A8YOJR3LSIig6hSGJymJMmcX23Yr/2bh5+fyLuWQTc4/2sD6mC29NsG99686xARGVSlAekBOKeVuvFGbfKredcx6BQA3sSDRxY/4Ay/lHcdIiKDrBgOXlOy2sre+i8+f+bX865jkA1WbBsgDzy6PFWy9ingurxrEREZZM14/YjgARN6Jpssm8O/9OFrTuRdyyAavNg2IIrO/i5q/EVErijwXd4lbCixzo8zvpx3HYNKAWADnzky/0PG8dfyrkNEZBj4fT4aeCtqkb31U188o6HcDSgAXMI5Zwze/5R3HSIiwyLv7YCvZDXKfuuBB9xg7Fg0QBQALvG5I4sfBd6Rdx0iIsPCDfh0snbqKmcnz2gX10soAFzgP730UtEZ/ru86xARGSbWDuYcgAs12vZv/suvzI/nXccgUQC4QLYy+1fBHM67DhGRYZLavCu4siRzgWun/yzvOgaJAsAFHO4X865BRGTYWDf4PQAA9dj+rHNusMcr+kgBYN3nvjP/XuDtedchIjJs4mw4AkCcutK/+uLZj+ddx6BQAFhnjfnlvGsQERlGUTIcAQCgnblfy7uGQaEAADz46OkKmB/Puw4RkWHUSoZgEsC6Zju7/ve/cHZv3nUMAgUAgKzwYaCSdxkiIsOoFQ9PD4B1kNnsH+RdxyBQAACc4SfyrkFEZBilmSPOhqcHACDO+Km8axgEIx8APuGcB/y5vOsQERlGa63havwBotTd6DrX/pE28m/A276zcBOwL+86RESG0VqU5l3ClqXWeb//0On7864jbyMfAJzv3513DSIiw8g6qLeHrwcAIE3Nj+VdQ95GPgDgrAKAiMhVWGtlDMEuwBuylnflXUPeRj4AOMxdedcgIjKMFurD1/1/TmbdyG/7PvIBwMC1edcgIjJsmomlGQ9n9z9A5txU3jXkbeQDADDy3wQiIlu1UBveu3+A1FLMu4a8KQAoAIiIbEmcOlaHcPnfhazDz7uGvCkAKACIiGzJ6bUENyQnAF6OdYz8qYAjHwAydQOJiGxaM7astrK8y9g2w3AHmG4Y+QAwbFtYiojk6dRakncJXeGbke8AUACIU6VAEZHNWGxkNIZ0459LeWr/FQCSTAFARORK4sxyejXOu4yucQoACgA7Jc2KiPSMg+PLydDu+rcRs4P+LVdr5APASmO417KKiPTafCMZ2j3/L6ed7qx/z9VQAGgO/2xWEZFeabQtZ9Z23nWy3t55/6atCvIuIG/LjZ0xo1VEpNvi1HFsqc2QL/nf0FJNAWDkewDqkaWVqCtIRORC1sGx5TY7sac88AzVpoZ/Rz4AOODkys6Z2Soism0Oji/HtOIdeOsP4Bw7MNds2cgHAIATywoAIiLnnFiLd8Ruf5ezrMnfgAIAAKdWYtKdtL5FROQqnV5NWKrv3MbfM3B8qZ13GQNBAQDILJxY0mRAERltZ6sJ8/WdfXfsG7Mj5zVcDQWAdc+eaeVdgohIbuaqCWerO7vxB3bUbobbpQCwbqGWsLjDk6+IyEZOrSWcGYHGv+AbTmnS93kKABd47kyUdwkiIn3jgBMrCQu1nd/4A6xp6d9FFAAucGyxTS3S4JCI7HzWwrHFmKURmREf+oajC5r8dyEFgAtY63j8tUbeZYiI9FSSOY4uRlSjnTvb/1IrjZRMp79eRAHgEq8utpmvakWAiOxMjbblhbmI5k7d5GcDYWB4ZU5DvJdSALiEAx55tcno/GiIyKhYamS8tBiP3DK4MyuJdv7bgALABhZqCUfnlRZFZGfInOO15ZgTKzE78mSfN+EbOLmssf+NKABcxndeaWhCoIgMvWZseXGuPZJHnwee4ZlT2uPlchQALiPNHA+/VENjASIyrBbrKS8txLTTEbyQGZivxkQ67fWyFADexFw14TntECgiQybOLEcX2pxcTXAj1uV/jgccX9KmP28myLuAQXfk1SYzYwH7p8K8SxERuaKlRsap1ZhRPt+s4MNjrzXzLmPgqQfgCpxzfO2FGo22upFEZHDFqePoQpsTK6Pd+Ic+PHOqpTX/m6AAsAmtxPLQ82s6MlhEBo5zjvlayvNzEfURv1HxDJxcSnTDtkkKAJu0XM/4xlFNChSRwVGLMp6fa3N6LRnpu34ADNRaljNrGvffLM0B2IJjCzG+V+c9N49j8i5GREZWO3WcWUtYbY3e0r7LSRLHS3OatL0VCgBbdHQuouAb3nl4LO9SRGTEWAtztYT5ejpq+/m8KZs5njmlSX9bpQBwFZ493aIUGu4+VMm7FBEZBc6x1LScrSYkmtx2EePgqZNq/K+GAsBVenx9iYlCgIj00nIz4+xaSpxpYttGvntcJ7heLQWAbXj8tSbN2PH9h8fQpAAR6aa1VsaZaqqd7DZiwKZOd/7bpACwTc+faZGklh+8ZRxjlAJEZBscrLUtc9WEZqyGfyMGiGLLc6c14W+7FAC64OWFNnHq+OHbJgh8hQAR2RoHrDQz5qsJ0Sju279JnoHVRsorCzrdrxu0D0CXnFiJ+ZOn1qi3tSxHRDbHOlhsZDx3ps3x5ViN/5sIfcPp1ViNfxepB6CLVpopDz6xxvu+b4IDOjtARC4jtY7lRsZCPdWs/k0oBIZnTja1w1+XKQB0WTu1fOmZKvddX+Gua8p5lyMiA6SZOJbqCSvNTDv3bVJg4NFXGlhtfNB1CgA9YJ3jsVcbrDVS3nXTOKHmBYiMLOccay3LQiPVHewWeMbQiFJeOBvlXcqOpQDQQ0cX2pytpvzwbePsmdCQgMgoaaeOpUbKciPTQWJbVPANRxcilmtp3qXsaAoAPVZvZ/x/T1e5+1CZe6+taL8AkR3MOViLMhYbKfVId/tXwzfw2GsNHefbBwoAfWCd44kTTeZrKe+5eZyxohZfiOwkzdiy3MxYaWZkutu/KqFnmKsmHF/SLP9+UQDoo9OrMf/x8RXuua7CXQfL6g0QGWJJ5lhpZiw3Ui3f26bAwNMnm9r1sM8UAPostZ0JgieWY95z0zhTFT/vkkRkk9IM1qKU5WamCX1dUPANZ1YTTizrrj8PCgA5ma8mfPbJFe67bow7D5a0jbDIgEozx2orY7WVUVej3xXGGHCWx19tkOotzY0CQI4yC4++2uCluYh33DDOoVmtFBAZBHHmqEWWtVZKLbKog797Cr7h2EKbhVqSdykjTwFgAKy1Mr783BrXzhZ45+FxJkqaJCjSb83EUm1lVCOrg3h6IPQMq82MJ+Z0iM+gUAAYICeWY06vLnPnwQp3HyrrYCGRHrIOalFGNeo0+tqStzc805n79MTxBomOShkoCgADJrPw1MkmL89H3HawzL6JkImyRyXwtGpAZJuixFKLLNW2pdHWdry9ZIzBN47nz0TUI7X8g0gBYEA14s4EmalywC37ijhjKBcMk0Wf8ZJHJdQwgciVpNZRb1tqUUYtssS6y+89AwUPjs61WG6o4R9kCgADbq2V8uirKXsnQ27YXeR0lMBa53Ss8aLPRNFjouQReOoeEEkzRz221NuWejsjStTg95Mm+A0XBYAhMV9NmK8m7JsMuXa2QJw6ltOU5Ubn86XAY6zgMVY0VIoepUA9BLLztVNHI86oR53f29qQp/9Mp+E/sRhzZi3OuxrZAgWAITNXTZirJuwa9zm8p0TqDDhHlFqi1LLU7HydbwxjRY9KwTBe8CkXDb72GpAhZh204oxGYmm2O3f6qbr0c2OA0Gf9jl+H9gwjBYAhtVTPWKo3mKn43LS3hIWLJjRlzq3Pbgbo/HCWwk4PwVjBZ6zgUfSNJhbKYHIQpZZGbGkmllbb0kqc1uMPAGM6M/tfmW+z0lDDP8wUAIbcSjPj0VcbjBU9bt5bIvANl7spihJLlMASnYk5ngflwKMcGsqhT7lgKIUemk4g/eSco5VAlGQ0E0e03uhrhv5gCTxD5hxHz0bUNKt/R1AA2CEabcuTJ5r4nuGmvUWmK8EVZzxb21lt0IiB9VCAgZLfCQLl0KNc8CiFhoL2JJAuSK0jShyt2NJK1n+ldM7RlYFU8A21KON7cy1Stfs7igLADpNZx4tnIwCu21Vg/1RIatn83ZSDKHVEaWfv83N8z1AJDYX1HoNCYCgFHoVAwUDeKM4c7cTSTh2txBKl0E4sqW7rh4IxhsBznF1NOLGsiX07lQLADnZ8Keb4Usx40eeGvUVKgXfVF+DMOmptB5cchmKMoehDMfAohobiejAohkZLE3e41EKcWqLU0U4dcWJpZ44odVg19EMp9A3txPLKfES9rdv9nU4BYATU2xnfO9FZHnBousC+mRDrutPr6pwjSiFKM4gu/pznvR4IQr9zcSkEpvO7r4Aw6DLriDNHknUa+jjt/DnOLO2kM9FUhl9nNr9hbi3hxFIbnYIwOhQARszJ1ZiTqzFjBY/De0pUSh5xj9ZOW+toxZ3x3o14pnPhORcICr5HGBhCz1AIIFBI6A3XGYuPLaSpI7GWxDqSFJLMEmeQpE4N/A5X8A2N2HJsvk0z1t3+KFIAGFGN2PK9U51egZnxgGtnChQC09ezua3rbOTy+uYtG1+EAs+sh4ELP770z5x/jBHb78A5R2YhsQ67/ntmO4+l678n2Xojn6G18yMs9A1Z5ji+1GaxriV8o04BQFipp6zUUwxwaLbA3qkCBgZmwlZq3ZZq8TxDsL5W2TMGz+t87HsennH4xsN44JvOhknnP28MxjjMBb0Ohs7fceGfff+CF3OdCZKXstbhNsghme0MvTjArn9gLTjc+eWbme38vZnr3IVntvM1ls77YG3n77cOUtf5s8jl+B7gDHPVhNPL6uKX1ykAyHmOzpHEJ5bj18PAZIjxzFDdNVrreH3e8oV1n7v0qbtTdjbfdILwUj3l1YV2J2yKXEIBQDZ0YRjAwLUzBXZPhHjrXYgiMlgC34B1LDczXluMydQ1JFegACBX5l4PAx5wYDpkz2SBMDQkOnxFJDcFv/MzOFeNObuaqHtftkQBQLbEAqdWE06tdo77HC96HJopMjnmdzYcGpB5AyI7kVlfOdNsW04stVlraThLrp4CgGxLvW15/mwLgMCHa2eLzI4FeJ4h0VCByLaFviGzjpVGyomldl9X6sjOpgAgXZNmnaNBjy20ARgrehycLjJV9sCYgVlVIDLIfM/gG0e9bTm1HOsuX3pGAUB6ptG2vDTXOv/nPeMBe6cKjBU9rHO6kxGhs3+FoXNmwtm1lMVakndJMiIUAKRvFuopC+ubjxhgquKzd6LAZNnHeGjIQEbCuZM16+2M+WrKUi1B3/mSBwUAyYUDVpsZq83XewgmSj77p0ImSj6Bb0is0ymxMtQ6G1B1xvBrLcvZtZhapC59GQwKADIwalF20cXR9wy7J0J2VXxKRQ9/fUMiZQIZSKZzd+8stBLLSiNlrpoM1SZaMloUAGRgZdYxtxYzt/b6Y8XAsGcyZLrsUw59jA9xRneONhTZJGMMoedwztCKLWuthIVaRpRoYosMDwUAGSrt1HFyOebkBY/5nmHvhM9UJWSs6BH45vxBOCLb1ZmV3wmk9dix1kiYr6baXleGngKADL3MOs6spZxZu/h0s1LBMFsOmKwElIve+aOFNdlQNuIZQ+B1DleKUkctyliqJ9Qj3dXLzqQAIDtWFDtOxwmn1y5eVlUKDbPjAeMFn0rRI/Q9jOfIbGeyluxcgddp6C2ONHU0Y0s9ylhupESJ/u9ltCgAyMiJEsfplQR443rrUsFjphwwXvYph4bA9zrHqdI5kjdTt+9A843B9ztTQjILaWaJEkc1ylhpJLTVyIucpwAgcoEotpyJY1jb+PPFwGOq4jNR9CgVPAqBR+ABxmCAzK2HBLUz3WUgMIb1URyc68zxiFNLK7bUIks1StXAi2yBAoDIFrRTy3zVMv8mX2OA8ZLHWMmnEngUCh4FzxD4Bs8zGNP5Grf+y1rHqI08GNOZWOcZzr8Z1rlOgMocSeZoJ5ZmbGm0LY0o00l3Il2mACDSZQ6oRZ270s0q+IZSwaPoGwqhIfQNhcDH99e7tT2D53U+BvA8wDkMBmc6r2ku6Xgw6zPXnTOvP0bnREe3wVCG55kNey48r/O8c88//4E796/tDI+4znH0naGSzJE5R5pBnFnSzBKnjjh1tJLOnbuI5EsBQGQAxJkj1qEvItJHXt4FiIiISP8pAIiIiIwgBQAREZERpDkAOWlbRyN1GBzlwKPkmSs/SUREpEsUAPrIAacaKa/UU9YuPDTEwFTgcdNEyMGKj6KAiIj0mgJAnyTO8dhSm4WNloY5WEssjy+3eaXucdd0gemCRmdERKR31Mr0gQMeWYw3bvwvsRpbHp6PeHIlJh613WFERKRv1APQBy/XEpbam1/j7YDjjZSzrZRbJwtcPxagKQIiMgjGbZO70hfYbZcBw6I3w1PhbTRMJe/SZIsUAHosc46Xa+mVv3ADsYXvrcYcqyfcPlngQMXvcnUiIpsz5Wp8pPkg98ffxncX39Bkxueh4g/wh6WfoOqN51ShbJUCQI8tx3bbXfmN1PHocpvZhsftkwVmixq5EZH+uTY7w2/U/iW77cqGn/ddxoeih7kvfpbfnPhFTvgH+lyhXA21JD1WS7q35/ly2/KNhYgji21WY+2lLiK9N+Vqb9r4X2iPXeYf1f4Vk7beh8pkuxQAeixz3R+8n4sy/mw9CKwpCIhID32k+eCmGv9z9thlfqb1uR5WJN2iANBj5V69w64TBL6+EHFkqc2KgoCIdNm4bXJ//O0tP+8D7W9Sca0eVCTdpADQY7tLF5yl2gsO5loZD89HfGM+Yi7KNjzSVURkq+5KX3jDhL/NCMi4O3mxBxVJNykA9FjJ99jbp019lmPLkcU2X52PONlIUZ+AiGzHXru0jecudrES6QUFAGj3+gXumC7gm/4t5K8llu+uxDx0usWL1YQoU5eAiGyd20b35Xae2ycjP0ahAIBZ7fUrTIQe980U+v5mR9bxQjXhoTMtHl9qsxJvvStPREbXvLfr6p/rz3axkp7o+bV/0CkA4Nb68SoHKj7v3ltiLOh/KrbAqVbGw/NtvjYX8WojJXHqFRCRN/d0eCuZ2foGZCk+Twe39aCiLjL05dqOIMqjAAAgAElEQVQ/yBQA6N83wUzB4337ytw5XSDI6Z2vJpanV2K+dCri0eU2C21NGhSRjTVMhYeKP7Dl5325+B6aptyDirqp972/g04BwLiT/Xw5z8CN4wHv31fmUCW/jRgzHGeaGd9eaPOVuYgXqwnNVNMGReRif1j6CRa8zXfnz3u7eKDy53tYUZdYdyrvEvKmAOB4Ko+XLfmG+2YLvGt3kYkw38ky9dTyQjXhT89GfGsh4kQzJdFJhCICVL1xfnPiFzcVAua9XfzmxMepmiE4D8DwZN4l5G3kzwJw8FSeze/eks+eYokTzYznqwntHGfsO2CxbVlsx/jGsLfscU0pYG/Zxx/4Cb0i0isn/AP8+tSv8zPNz/GB9jcJuHhCcYrPQ6V38+/LPz4cjT/gcrr5GyQjf1n/yd996SYvy47mXQdA5uBYPeGlWko6QHfgvjHsLnkcLPnsrwTkMI9RRAZExbW4O3mRPet7BCx4u3gqvHUIxvwvZnGH//jv3v5q3nXkSZdy58xf+p0Xz4Dbl3cp57Rt5wjhV+sJg7aEP/Bgd9FnX8lnXymgqBOKRbZkPIi4a/YYu4trYGAxmuKp5cM00lLepY2SM//h79x2DcYM2BW2v0Z+CABjHL/9/Ocw/HzepZxT9Ax3TIXcNB7wSj3lWD0lG5Ble6mFs62Ms60MiJkIvfUw4DFb8BUpRS5jqtDgozd+lfsPPIFvLp5wmzmPh87cy6dffh/VZCynCkfKZ0e98QcFAAAcPGgYnABwTtE33D4Vcng84Ggt4XgjG5ggcE4tsdQSy9FaZ2LjvrLPvqLP7pLX190PRQbZtWML/ON7/h27S9UNP+8by4cOPs59sy/zySc/yonGnj5XOFqMNZ/Nu4ZBoFUAQMDYF4Fm3nVcTsk3vGW6wAcOlLh1MiQc0P+1KHO8Vk85stTmC6c7pxS+Vk9ppIMVWkT6aarQeNPG/0J7Smv8xj2fZjJs9KGykdWYqBX+NO8iBoFGcIFnv/DP0tt/7JfuAvOWvGt5M4Ex7C763DAWUvQNtcSRDliPwDkOaKSOuSjjWD3leD1lJbEktjOpsKhlBTIifu6WL3HXzKub/vqxoE05iHls6ZbeFTXCnOOBP/yHt/xR3nUMAg0BrPMMv2cdH8m7js0IvM5mQjeMB5xuduYIrMaDvYlPZDsbD51pdpYPlfxOmNlV9Nhd9KjktTWiSA+NBxH3H3hiy8/7wIEn+L9evp+mJgZ2ncP8Xt41DApdddf9P3/79m8Cj+Rdx1Z4wKFKwHv3lnjPnhIHKwHekNxYR5njZDPlyZWYh85GfOlMxHeXY443Uu1IKDvGXbPH3jDhbzMCL+PuLfQayOYYeOyP/95tR/KuY1CoB+AC1vEpz/COvOu4GrNFj9ligSgLea2RcryRDtUxwFFmOdm0nFyfiVH0DVOhx0zBYyr0mC74WnIoQ2dv6eq3m99bHvmt6rsucU53/xdQALjAF083vB/aVx7q7uiSb7htMuTWiYDF2PJaI+Vsy+IGdK7A5bQzx3yWMR+9vuNYyTdMFTymQ4+pQiccFIaly0NGktvGutjh+okdfM3U8vUzkW4jLqAAcIEE8wvPVVPeNlvIu5RtM8awp+izp+jTSh3HmymvNdJctxrerihzRK2MudZ6KDAw7humiz5TocdUaJgIFQpkcMy3pnN5rrzRs9WEBH4J+N/yrmVQKACsC371sfdiefvpVsrhOGC2MLy9AJcqB+u9ApMhK+2Mk82MU62UoR9qd1BPHfU05cIjHUMPJgKPidBjPPSYWA8GJQUD6bOnV24gc96W5wGk1ufplRt6U9QIWoktZ1oZGN4a/r3Hvj/57bd9O++aBoECwDpjvV8GBw6eXY35wT2lHbernQFmiz6zRZ87p0PmW5YTrZT5aPiGCN5MYmE5tixfsjJCwUD6rZGWeOjMvXzo4ONbet6XT9+nFQDdsn5Nf31MxfwKoADAjmvirtInHq2EVW8BQ+XcQ/fMFLhubDTyUZRZTjUzTreygV9O2AuVwLCn5HN4LGBiUHdZkqE1GTb4rXf8G/aU1jb19fPRNL/+yM9TTSpX/mK5otcaKU+txK8/4Ggmk3YPn3j7wG7+1i+62gGFuvnwhY0/wDNr8cgsRyv5HjdNhLx3b4kP7C/zfVMhkyPUEDbTzg6GX5uLeKGa7KjeEMlfNRnjk09+lIVo6opfOx9N88knPqLGv0uaqevc/V/IUPGr5v58KhosmhEJeD/w8V8D7rvwMetgLXFcOxaMVDdJ6Bl2FX1uGA84VAko+QYLQ7WkcDuW2pbYwb6SfjSke6rJGF8/exflIOaG8Xm8S86hSa3Pl06/jd955qdYaGvyXzc44NGl9oZbkRto2G/9Lw/2v6rBMkpt28Y+4byw9t3TwIbHAd85XeDG8dEYCngzsXXMtzJORxkLUYbd4Xng7bNFDlQUAqT7KkHE3TOvsmd9nf9Ca5qnVm7QmH+XvVxLeHYt2fBzBs7G//N9B2G0TwQc+QBQ/NXv3mKte/Fyn/cMfP/uEruKo9MlfiWpcyxGlrmos05/J/YOjAWG+/eV9RMiMoSWY8u35iPebBDXt9lN0T97xyt9K2oAjfytrcvc3W92kbcOHluO+KG9JUq+QgB0DiXaX/bZX+7cIVeTThhYiCzL7WxHbGDSSB2riWV6By0HFRkFrczx6GL7TRt/AOsFdwMKACPNcPeVvqSdwZHFmPfsLaFD7N5oMvSYDD1umYDUwUqcsRhZFtoZa4kd2i3N1hQARIZK5hyPLrVpb2KM0jruAf6491UNrpEPANaZu8wmhoHWEssTyzFv3VVQr/CbCAzndyC8nZAocyxGGYvroaA1RMMFyWgsAhHZERzw3ZV480uZPXdXTwsaAiMfAIznrt3sHerpVkqwAvdMFzQ2vEkl33BoLODQ+p4Krcyx1M5YaluW25b6AC+11M2/yJBw8PRafP648c0wzhzqYUVDYeQDAI4rL869wPFGSmAMd06HvapoRyv7hkOVgEPry5zbGSzHGSuxZbVtWUsyNli1k4uZglYBiAyD56oJr9XTLT7Ljvx6SwUAthYAAF6pJ4Qe3DqpELBdRR8OlH0OrE8odM5RT2EtzlhNLGuxZS129Htq4WToMRGom0dk0L1QTTha23i535sxmC1f+3caBYCrCADQ+aYDhYBuM8YwEcJEGHCufy7DUY0dq7E9/6ue9XByoYHbNcwjMvBerCa8WN164w/gYKbL5QydkQ8AnqF4tZvavFBNiK3jzmlNDOwlH8NMwTBzwaB84hxrsWU1dtQTSy3tzCfoxpSC2yZC9mrfB5HB5eDZtZiXt9zt/zrfmOLVRYedY+QDQOh1xqGv1rF6Smwd984U0aFy/RMaw+6iz+7iBQ+6ziTD6rlAkFhqaScgbGZeQeAZ7pgMuV47P4oMLAc8uRJzonn1jT90rv1Rd0oaWiN/pQuMob3NvuRTzYzUtXnrbBENG+fIQDkwlAOffRcec+GgmTlq68GglnY+bmeAc4wFHnvKPteO+ToaWGSApRYeW24zH23jrm1dYPSzPvIBIPQM3RhMnmtlfGM+4h27ilSUAgaL6Rz5W7k0GIjI0Igyy5HFuLO5WBeM0IGnlzXyb0HJ695bUE0sfzYfsbidMQUREbnIUjvj63PtrjX+ACXdqCkATBW6+00QW8e3F9pXtSxFREQu9loj5duLm9vedysmg5Fv/jQEMNmDfiAHPLeWUEsdd02HGmsSEdmixDqeXok51epNj+qUtvpUAJgMe9c4n2ykLLUz3jpTZFbLykRENmU1tjy+3KbRw21B1QOgIQAqvkexh/PCWqnjmwsRL1STYT0UT0SkP1xnafU35qOeNv4l31DW0a4KABjYV+ptR4ijs2PVdxYjomxwD78REclLK3V8azHie6sxvb5K7iv72ukTBQAA9pf7szRsIbL86dmIozX1BoiIAOA6E/2+Otdisd2fG6R9vez2HSIjPwcAYHfRwzfQj6PqM9eZIDjXyrhntsC4xqFEZEQ1U8uTK3HfGn6AwMDusq67oB4AAHxjej4McKnl2PL1uc5ywS6vbhERGWgWeKmW8tWz7b42/gD7KwG++v8B9QCcd3g84HRre3tLb1XmHM+tJRxvpNw5VeiMS4mI7GALUcYzazG1JJ87n8NjavbO0TuxbrboMV3wWI37P0mvkTqOLLXZV/J5y3RIRcMCIrLDNFLHc9WYM838dkqdKnSu89KhAHCBG8ZDnlhu5/b6c1HG4lnLTZMBN02EOlhIRIZeauFoLeHlev7DnTeNh/kWMGAUAC5wTcXnxapHsxuHyl+lDMeL1YRX6yk3TQTcOB7qmGERGTrWwYlmyotrCVHeLT9QCTwOVDTMeiEFgAt4wO2TAY8tx3mXQmw78wNerafcMhlyXcXHaEthERlwDjjbzHi2muR6M3WpOyZDzXq/hALAJQ6WA44VUpZzmAuwkVbmeGol5ljd4/apkH0lJVgRGUAO5toZz+U4we9yZgoeBzTJ+g0UAC5l4I7pAg8vRAzSbj21xHJksc1k6HHTRMA1ZfUIiEj+HDDfynixluQyifqK1q/pWvn3RgoAG5gpeFxXCTje6O+ywM2oJpbvLse8EHjcPBFw3Vig72sR6btzXf3P1xLqyQA2/OuurwTMaub/hhQALuPOqQKLbTtQY1gXaqaWp1ZijtZSbp4IODTma3MLEem5DMfJRsbRWkKzhwf2dEMlMNwxrZn/l6MAcBmBB/fNhHxzoT1IIwFvcC4IvFA1XFsJODweUNIpVyLSZe0MTjQTXqmntPuxb/o2GeDemSKBhkovSwHgTcwWfQ6PB7xSH7yhgEu1M8fRWsIrtYR9FZ+bxkNm1O0lIttUTSyv1lNONjKygb4dutiNEyG7iroGvhkFgCu4farAWmJZ6vN+1VfLAmeaGWeaGbuKHofHOysHtJeAiGyWBeZaGcfqKUvt/Hbuu1qzBY/vm1LX/5UoAFyBZ+BtsyW+Ph8RZcMRAs5ZaluW2m2KPlxTDrhuLGQiVBIQkY01UsfxRsqJZsIQtvsAlH3D23cXteZ/ExQANqHowzt3F/jGfNSXI4O7rZ3BK/WUV+opUwWP68cCDlV8fI2NiYw86zp3+681UhbibKCWP2+Vbwxv31WkqC7PTVEA2KSp0OPe2QKPL8XD/PPBWmx5Ko55fs1wTcXnUCXQ4RgiI2glzjjV7PyKB2Cr3u0ywH0zBV3PtkABYAsOlgPSGXhyNR7qlAydrYaP1VOO1VPKvuGaSmdPgTGdQCSyY0WZ5WQz43gjpTHgS/i2xMBdUwXt9b9FCgBbdN1YQOocz6wmeZfSNa31FQRH6wmzBZ9DZZ8DFZ+CutFEhl47c5xpZZxqpiwnduhvXjZy+2TI9eNqzrZK79hVuHE8JLHwYnXnhAAAHCy3M5bbGU+vGWYKHgfLPgfLPkXtLSAyNGLrmI8yTjczFtpZ7sfw9tJtkyE3T2jG/9VQALhKt012vuF2XAhY55w7HwaeWYWZos++UicQVAKNsYkMmihzzEUZc62M+WiYVuxfvVsnQ26dVON/tRQAtuG2yZCCZ3hmdbgnBl6J4/WegeeqCdOhx76Sz76yz1Tg6ZANkTw4WEssZ6NOg7+6Q7v3N2TgjqkCN6nbf1v07m3T4fGAgmd4YqW9o7vZznOwGltWY8sL1YSib9hT8tlf9NlT9rTtpkgPZc6xHFvmWxmnWxnRMK5L3iYD3DNT4NqKmq/t0jvYBddUfAJT5PHlNjtpYu1mtDPHyUbKyUaKj2FXyWNPyWNPMdCmQyLb5aCWWhbaGQuRZSmyQ7Udb7cFHrxttsjekmb7d4MCQJfsK/u8Z2+JR5baA39CVq9kdCYezUcZkFD0DLMljz1Fn70ln7ImEopcUTvrDLkttDPmotG8y99Iyfd45+4CU6HmIHWLAkAXTYYe791b4rGlmMVh3Uezi9rWnT+XAGA89NhT9NhV8JkpeZS0zFCEKHMsxxlLbcdilFEf0CPI87Sr6PO2XQXt8NdlCgBdVvAM37+nyPNrCUdrO3OFwNWqJ5Z6YjlG53TFom+YLXZ6CGYLHhOaUCgjIMocK+1Ot/5ynFFL3ehM3rsK148FvGW6oAPNekABoAcMcPtUyERgeHo1Hrl5AZvVzi7uISj6ptM7UDRMF3ymQqPzCmSoZQ7W4oyV2LKSWFbaVl36mxR4hrtnClxT1nh/rygA9NChsYBdRZ/HV9osD8lxwnlqZ47TrZTTLYAEA4yHhqmCz3ToMVvwmCx46iSQgdVMLcuxZS22rCaO1Xhnb8LTK9MFj7fOFrU1eY8pAPRYOTC8e0+Jl6oJL1YT9fRtgQNqiaOWpJxcfyzwDFOhx2RomCp4TIYeE6Gnoz+lryxQSzoNfTWxVGPHWpKpt2+7DBweC7hjuqCf6T5QAOgDQ2fHqpmCzxMrMVGm3oCrlVrHUjtjqf36Y56B8cBjqmCYDP31UGA0YUi6op1BLc3WG3rLWuKop1Z39l1WDgz3zhTZXVTT3y8KAH20p+Rx//4SL1YTXq6pN6BbrKNzcU4AXl99EXqGSmCYCD0mAsNE0AkGFV+TDeWNEttZc19bn6za6X2yRGrpe8vA9ZWAO6ZDbSTWZwoAfeabzgTBfWWfJ5djLfnpocQ61mLHWnzxexwaw1hoGAsMY4F3/veKb3To0Q7Xto5G4mimlkbmaKSWRtp5LHFq6PutEnjcM1PQXX9OFAByMlvw+KF9RV6sprxST9Sd2EeJc6zGjtUYLuwxgE44qJwLBIGh7EPZ73xcCgyh7lAGWmIdrczRSh2tzNLKoJmuN/SZI9UP2kDwgJsmAm6ZCvHVHZcbBYAc+cZw+1TIdWMBz6zGzEXaPChviXOsJY61ZOOemcDrhIJK4FH2Oj0GZd+j4HXGMAt+Z+6BLmnd5eisEoltp3GPXef39vqfm+uNvRr4wben5HPnVEFbhQ8ABYABMBYY3rm7yFyU8b3VhKaGBQZWah01C7Xk8mHNGEPBg5JnKK0PKxS8zpyEgmco+J2ehoLnEXpQ8M3IzXi2QJw5EguxtSTOEWedc+xj+/rHUdZp5Nu2c0S1DK+xwHD7ZIEDFa3rHxQKAANkX8ln936Pl6spL9cSLSkaUs452lnnjnVtk5tBBgYCzyPwOh+Hxqx/bM4/FnidIQiz/nnoPIZxncfX/2xweOYymyitf+1GEufAvfFzmXNY53AYUutwF3ztuTvu2HV2s0tcp5s9dZA6R2ohteuPO9Y/13lcRkPgwc0TITeNh9rNb8AoAAwYH8OtkyE3jAe8XNP8gFGROkgze+mUBJGh5Rm4thJw61Socz8GlALAgCp4nfkBN4wHvFRNON7M1AUqIgPPAPsrPndMhlSCURvcGi4KAAOu7Hf2wz48bnluLdFEQREZTAb2FX1u1wS/oaEAMCQmQo937i5STSwv11JOtdQjICL5M8Dess+tEyHTBd3xDxMFgCEzGXrcN1vgttRytJZyvJFqR0ER6btzXf3fNxEyHqrhH0YKAEOqEnjcPVPg5omAo7WUk42MTFFARHrMx3BozOfmiZCKTusbagoAQ+5cELht0nGimXKsnuq8cRHpuqIP11ZCbhwPtGX2DqEAsEMUfcPNEyE3ToTMNTNeriesxFpsLSLbMxl63DAecGjM17a9O4wCwA7jAQcqPgcqPktty7F6Z+WA9hIQkc3ygH1ln8PjAbuK2rlvp1IA2MF2FT12FYu0MzjVSjneSKglSgIisrGxwHDdWMC1lRC1+zufAsAIKPpw43jAjeMBa7HltUbKyWZGpmWEIiPPM527/evHAvYUfNTLPzoUAEbMVMHj7kKB75tynGpmnGymrGqugMjImSn4XFPp/Cpoq96RpAAwogqe4fB4wOHxgFbmONXs7CnQ0AlEIjtWyfc4VPG5bixgTEv4Rp4CgFBeX0Fw83jIcpxxspVxppkRa+agyNAr+oYDZZ9rKgGzoacufjlPAUBeZ2C26DNb9LlryrESW063Mk63MtraW0BkaBQ8w96Sz8GKz56ir2N4ZUMKALIhY8z5MHDnNKy0M+aiTiBo6jB3kYFT8g37Sj77yj57S1qxL1emACBXZHi9Z+D2yZDVxDIXZcy1MtZSi3YgFsmBganQY3+p0+BPq3tftkgBQLbGwHTBY7rgcdtkSDtzLEQZZ9sZC60MzSEU6R3fGGYLHnvLPgfLPiVtySvboAAg21L0DYfGAg6NBWQ4liLLQmRZaKfadEhkuwxMBB57ij57Sh67Sp6245WuUQCQrvHpTDzaW/KBkLZ1LEeWhXbGfJTR0kRCkSsq+p0htz1Fn30l3eVL7ygASM8UPXP+XAKAemJZaFuW4oyVyBJpmaEIJd8wW/DZVTTsLvmMB17eJcmIUACQvhkPPcZDj8Pr33btzLHc7vQQLMeWmiYUyggo+YaZYqdbf7bgMxEYTd6TXCgASG6K/sU9BO3MdXoH2o7VOGMtcTqvQIaab2Cq4DNT8JgJPWaKnrr0ZWAoAMjAKPqGg+WAg2WAEAfUE8danLGaWJZjSzW26iSQgVUJPGYLHlMFj+nQMF3QJjwyuBQAZGAZYCI0TIQBh9YfS6yjmliqiWMttlQTSy2xaGsi6ScPmAg7Df1k6DFZMEyFHoFRay/DQwFAhkroGXYVfXYVX3/MOqinlrXYUU2y9VDgaGuSoXRB0YeJwF9v6D2mQsN44OnOXoaeAoAMPc/QuTiHAP75xxPraKaOWmKppY5a2gkGzUyTDeWNQq+z5n5ifbJqp/fJo6SWXnYoBQDZsULPMFUwTBUuXlaVOEcjcTRSRyO1539vZk6HHu1wRc8wFhoqgceYbxgLPMaCzmOhuu9lxCgAyMgJjWG6YJguwIU9BtAJB81zgSB1tDJoZZ2Po9SRaFXCQAs9Q9k3lAND2fco+1AJOg19xTeEupsXOU8BQOQCoTFMhZ0JXRtJrCPKoJlaWrbTY9DKLHEGrcwRZ525B4oJ3WXorBIprDfwBa/TyBfXf6/4HiUfNfAiW6AAILIFoWc6Y8Whf9mvcc4RW4isI1ofVohtJzzE1hFnnZ6G2FoSC3HmRm4VgwcU/M57WfA8QmMo+J1z7Ave6x+X/E4jX/Q6R1SLSPcoAIh0mTGGot+5Y50KN/ec1DlS60gtpK4TEDofv/5YajtDEG7989B5DGc6j6//2WGw7jKbKK1/7UZCY8C88XO+MXjGYHAEnsFc8LXB+h13wXR2swuNIfAMgYHAGAIPAm/9ccP65zqPi0i+FABEBkBgDIFvLp2SICLSM8rhIiIiI0gBQEREZAQpAIiIiIwgzQHISdt2NqIxOMqBdhsTEZH+UgDoIwecaqS8Uk9ZSy5Y+GVgKvC4aSLkYMXX0eAiItJzCgB9kjjHY0ttFqINVnw7WEssjy+3eaXucdd0gemCRmdERKR31Mr0gQMeWYw3bvwvsRpbHp6PeHIlJtZpdiIi0iPqAeiDl2sJS+1s01/vgOONlLOtlFsnC1w/FujoUREZCONBxF2zx9hdXAMDi9EUTy0fppGW8i5NtkgBoMcy53i5ll7Vc2ML31uNOVZPuH2ywIGKdokRkXxMFRp89Mavcv+BJ/DNxb2ZmfN46My9fPrl91FNxnKqULZKAaDHlmO77a78Rup4dLnNbMPj9skCs0WN3IhI/1w7tsA/vuffsbtU3fDzvrF86ODj3Df7Mp988qOcaOzpc4VyNdSS9Fgt6d4xL8ttyzcWIo4stlmNR+34GBHJw1Sh8aaN/4X2lNb4jXs+zWTY6ENlsl0KAD2Wue4P3s9FGX+2HgTWFAREpIc+euNXN9X4n7OntMZHbvxaDyuSblEA6LFyr95h1wkCX1+IOLLUZkVBQES6bDyIuP/AE1t+3gcOPEEliHpQkXSTAkCP7S559HRnHwdzrYyH5yO+MR8xF2WdZQQiItt01+yxN0z424zAy7h75tXuFyRdpQDQYyXfY2+fNvVZji1HFtt8dT7iZCNFfQIish17S6tX/9zy1T9X+kMBANq9foE7pgv4pn8L+WuJ5bsrMQ+dbvFiNSHK1CUgIlvnttF9OQRXnVbeBeRNAQDT85g6EXrcN1Po+5sdWccL1YSHzrR4fKnNSrz5zYhEROZb07k8t09GvotCAQC31o9XOVDxeffeEmNB/7f0s8CpVsbD822+NhfxaiMlcUOQz0UkV0+v3EDmtt5MpNbn6ZUbul9QNxn6cu0fZAoA9O+bYKbg8b59Ze6cLhDk9M5XE8vTKzFfOhXx6HKbhbYmDYrIxhppiYfO3Lvl53359H00B35r4N73/g46BQDjTvbz5TwDN44HvH9fmUOV/DZizHCcaWZ8e6HNV+YiXqwmNFNNGxSRi3365fexEE1t+uvno2n+/bEf7mFFXWLdqbxLyJsCgOOpPF625Bvumy3wrt1FJsJ8T/qpp5YXqgl/ejbiWwsRJ5opiU4iFBGgmozxySc/uqkQMB9N88knPkI1qfShsm0yPJl3CXkb+bMAHDyVZ/O7t+Szp1jiRDPj+WpCO8cZ+w5YbFsW2zG+Mewte1xTCthb9vF1GqHIyDrR2MOvPfJf8pEbv8oHDjxB4F08oTi1Pg+duY8/fOWHh6PxB1xON3+DZOQv6z/5uy/d5GXZ0bzrAMgcHKsnvFRLSQfoDtw3ht0lj4Mln/2VgBzmMYrIgKgEEXfPvMqe9XX+C61pnlq5YQjG/C9mcYf/+O/e/mredeRJl3LnzF/6nRfP8P+3d+dRkl7lnee/975LLJmRkWulSiotpZJqpbSwtUEstuTBzTRgBE237J7uY+Nu5mBjkMRmzJy2pruhG49RCWj3jDleOHPaNoMsiSMYMzYIg5CwWkhCEki1qEollWrLPTMiY3uXe+ePN6tUKtWSWRkRb0TG8zmnTmXFonxOKPO9v/eu2PG0SzmhYZIjhF9YDOm0JfyuhtGMw3jWYTzrkpETioVYkX5TZWe0l1EzC4aeUCQAACAASURBVCim9RBPe1uoqO64c14jjt1765ZLUKrDrrDt1fNDAChluXPPt1H8VtqlnJDRiu1Fj039Ls8vRhxcjIg7ZNleZOB4LeZ4LQYCCp5eCgOaYd+RSCnEWRRtmVuq3+LG4BEc+8ou9Fg5PJB5E1/PvpuS7k+pwp5yf683/iABAAAL31J0TgA4IeMothU9Nva77C+HHKrEHRMETiiHhnJo2F9OJjaO5xzGMw6jWd3W3Q+F6GSXxsf4bPmPGTVzZ3zesTHvqD/E9cGzfL7w27zkrG9zhb1FGXV/2jV0AlkFALj0/T1QTbuOs8k6itcM+ty0PsvmAQ+vQ/+v1WPLi4sRj840+LujySmFLy5GVKLOCi1CtFPRls/Z+J9qzMzy++X/xoBZbENlPatSKPvfT7uITiAjuMCzf7cr2vbO39kJ6jVp13IurlKMZhyu6PPIOIpyaIk6rEfgBAtUIstEPebgYsShxYi50BCaZFJhRpYViB7xG9V72BntW/br+2yNrG3whN/Rl6OuZS3f+Ppnrr477To6gQwBLNGKrxjLLWnXsRyuTjYTuqLf5Wg1mSMwH3T2Jj51k2w8dKyajH1mnSTMjGQ0oxlNPq2tEYVooX5T5cbgkRW/76bGj/nL/K9SVbkWVNXbLOoradfQKeQ27BTv27XnUeANaddxIWYbhoOViOO1iA5aQbhsWScJAhIIxFrypuCnfHzxTy/ovX/U/yEe8a9tckW9TcHj99y29fVp19EppAfgFMbyJ1p1ZwAYzmiGMz712OPFSsShStRVxwDXY8PhquHw0kyMjKMoepohX1P0NIO+I0sORddZZ2ZW8d7pJlYiAEJr5e7/FBIATvH3Ryv6beO5rr77zDqKLQMemwsu04HhxUrE8ZrBduhcgbNpxJbJOGay/vJyqayjKPqaQU9T9JNw4GvpxBKdy66ik3U17xWvVo0MDx6ry23EKSQAnCJEfWh3KeJ1w37apayaUoqxjMNYxqEWWQ5VI16sRKluNbxa9dhSr8VM1JZCgYJ+RzGYcSh6mqKnKHgSCkTnmNQjF/5eZ7iJlYhnSyEh/A7w52nX0inkSrnE/eTjb1VGPYiCG8ayDPvd2wtwNhaYa8QcrsYcqUWs1cP/PA0FV1PwNP2eprAUDLISDESb9dkqfz7/e6/a+Od8Ihw+OPQFmQTYJHOB4aGpenIRtPZN4Z2vW/nMzDVIegCWKKM/AhYsPDsf8Jax7JqLRwoYzjgMZxx2DHpM1gwv1SIm6903RHAuoYHZwDB72soICQai3SoqzwOZN/GO+kMret/3MjdI498sS9d0Tl7i1O8CEgBYc03cBbrjsbxX0lMoTm7Gfe2Qz2V9vZGP6rHhSDXmaC3u+OWErZB3FWNZh419LoVO3WVJdK0Bs8gXSl9gzMwu6/WTeoTfK36KkpItgZvhxUrE03PByw9YquGAGeOO13fs5m/tIlc7wF9Uv3Jq4w/wzEJAda32kZ8m62g2FTzeui7LTRfl2Fr0GOihhrAaJTsY/nCizt5SuKZ6Q0T6Srqfzxd+myl9/jH9ST3C5wsflsa/SaqRTe7+T6XIOyV1YzoVdRaZEQnoN334U8D1pz5mLCyElkv73J7qJvG0YiTjcEW/y4a8S9ZRGOiqJYWrMdMwBBbGs/KrIZqnpAv8KPNGsrbBFfERNK/8fYpw+G72LXyp/zeZWsXEQfEyCzw20zjjVuQKKuYfv/qt9lfVWXqpbTuzO6z2yj89CpzxOOAdgz5X9vfGUMC5BMYyWYs5Wo+ZqsddudnQSrx+OMP6vIQA0Xx5W+OacB9jS3sETOkRnvY2y5h/kx0ohzy7EJ7xOQXHgy9efzH09omAPR8AMp/86dXG2LNu1K0V/MJolpFM73SJn09kLdN1w0Q9Wae/FnsH+lzFjeM5+Q0RogvNBoZ/nKxzrkFcx8Sb6rve8HzbiupAPX9ra2N7zbku8sbC47N13rYuS9aREADJoUQX5RwuyiV3yKUwCQNTdcNsI2YtxIFKZJkPDYNrcDmoEGtZLbY8Nt04Z+MPYLR7DSABoKcprjnfSxoxPDodcMO6LHKI3asNeJoBT3N1ASILc0HMdN0w1YhZCA3dmggWJAAI0VVia3lspkFjGWOUxnIt8M3WV9W5ej4AGKt2qmUMAy2EhidnA1474kuv8Dm4ipM7EG7Dox5bpusx00uhoNZFwwVhbywCEWJNsMBP54LlL2XWdmdLC+oCPR8AlLaXLvcO9Wgtwp2Dawd9GRtepqyj2NDnsmFpT4VabJlpxMw0DLMNw2IHL7WUm38huoSFny0EJ48bXw5l1YYWVtQVej4AYCmu5OWHKhGuUuwY9FpV0ZqWcxQb8i4blnZdaMQwG8TMBYb5hmEhjDnDqp1UDPmyCkCIbrC7FPLiYrTCd5nBlhTTRSQAsLIAAPD8YoinYfOAhIDVyjiwPuewfmlCobWWxQgWgpj50LAQGBYCS7unFg54moIr3TxCdLq9pZD95TMv9zsXhVrxtX+tkQBwAQEAkh86kBDQbEopCh4UPJcT/XMxllJgmQ/MyT+LcQsnFyrYJsM8QnS8faWQfaWVN/4AFoaaXE7X6fkAoBWZC93UZm8pJDCWHYMyMbCVHBRDvmLolEH50FoWAsN8YFkMDeUomU/QjCkFWwoe62TfByE6l4VnFwIOrLjb/2WOUpkLiw5rR88HAE8n49AX6uBiRGAs1w1lkEPl2sdTitGMw2jmlAdtMsmwdCIQhIZylASE5cwrcLVi+4DH5bLzoxAdywJPzQW8VL3wxh+Sa3+9OSV1rZ6/0rlK0VhlX/KRakxkG7x2OIMMG6dIQc5V5FyH8VOPubBQjS3lpWBQjpKvGzFgLX2uZizncGmfI0cDC9HBIgOPzzaYrK/irm2Jq+R3vecDgKcVzRhMnqjFPDxZ5w0jGfKSAjqLSo78zZ8eDIQQXaMeGx6dDpLNxZqghw48Paue/wiyunkfQSk0/GiyzvRqxhSEEEK8wkwj5sGJRtMaf4Cs3KhJACj6zf0hCIzlkanGBS1LEUII8UovViIemV7e9r4rMeD2fPMnQwADLegHssDuhZByZNk56MlYkxBCrFBoLD+bCzhSa02PalG2+pQAMOC1rnE+XImYacS8dijDsCwrE0KIZZkPDE/MNqi0cFtQ6QGQIQDyjibTwnlhtcjy46k6e0thtx6KJ4QQ7WGTpdUPT9Zb2vhnHUVOjnaVAICC8WxrO0IsyY5V/2O6Tj3u3MNvhBAiLbXI8o/TdX4+H9Dqq+R4zpGdPpEAAMBFufYsDZuqG75/vM7+svQGCCEEADaZ6PeDiRrTjfbcII23stu3i/T8HACA0YzGUdCOo+pjm0wQnKjFXDvs0y/jUEKIHlWNDE/NBW1r+AFcBaM5ue6C9AAA4CjV8mGA080GhgcnkuWCTV7dIoQQHc0Az5UjfnC80dbGH+CivIsj/f+A9ACctLHf5WhtdXtLr1RsLbsXQg5VInYU/WRcSggh1rCpeswzCwHlMJ07n4190uydIJ/EkuGMZtDXzAftn6RXiSyPzjQYzzq8ZtAjL8MCQog1phJZdpcCjlXT2ym16CfXeZGQAHCKK/o9npxtpPb9J+ox08cNmwZcNhU8OVhICNH1IgP7yyEHFtMf7tzU76VbQIeRAHCKS/IO+0qaajMOlb9AMZZ9pZAXFiM2FVyu7PfkmGEhRNcxFl6qRuxbCKmn3fIDeVezPi/DrKeSAHAKDWwbcHl8Nki7FAKTzA94YTHi6gGPy/IOSrYUFkJ0OAscr8Y8WwpTvZk63fYBT2a9n0YCwGkuzrkc9CNmU5gLcCa12PL0XMDBRc22osd4VhKsEKIDWZhoxOxOcYLf2Qz5mvUyyfpVJACcTsH2QZ+Hpup00m495dDw6HSDAU+zqeBySU56BIQQ6bPAZC1mXzlMZRL1eS1d02Xl36tJADiDIV9zWd7lUKW9ywKXoxQafjobsNfVXFVwuazPlZ9rIUTbnejq31MOWQw7sOFfcnneZVhm/p+RBICz2FH0mW6YjhrDOlU1Mjw9F7C/HHFVwWVDnyObWwghWi7GcrgSs78cUm3hgT3NkHcV2wdl5v/ZSAA4C1fD9UMeP55qdNJIwKucCAJ7S4pL8y4b+12ycsqVEKLJGjG8VA15fjGi0Y5901dJAdcNZXBlqPSsJACcw3DGYWO/y/OLnTcUcLpGbNlfDnm+HDKed9jU7zEk3V5CiFUqhYYXFiMOV2Lijr4deqUrCx4jGbkGnosEgPPYVvRZCA0zbd6v+kIZ4Fg15lg1ZiSj2difrByQvQSEEMtlgIlazMHFiJlGejv3XahhX7O1KF3/5yMB4Dy0gtcNZ3lwsk497o4QcMJMwzDTaJBx4JKcy2V9HgVPkoAQ4swqkeVQJeKlakgXtvsA5BzF60czsuZ/GSQALEPGgTeO+jw8WW/LkcHN1ojh+cWI5xcjir7m8j6XDXkHR8bGhOh5xiZ3+y9WIqaCuKOWP6+UoxSvH8mQkS7PZZEAsExFT3PdsM8TM0E3/36wEBieDgL2LCguyTtsyLtyOIYQPWguiDlSTf4EHbBV72op4PohX65nKyABYAUuzrlEQ/DUfNDVKRmSrYYPLkYcXIzIOYpL8smeAn1yApEQa1Y9NhyuxhyqRFQ6fAnfiijYWfRlr/8VkgCwQpf1uUTW8sx8mHYpTVNbWkGwfzFk2HfYkHNYn3fwpRtNiK7XiC3HajFHqhGzoen6m5cz2TbgcXm/NGcrJZ/YBbiy3yM0sK+0dkIAABZmGzGzjZifLSiGfM3FOYeLcw4Z2VtAiK4RGMtkPeZoNWaqEad+DG8rbRnwuKogM/4vhASAC7RlIPmBW3MhYIm19mQYeGYehjIO49kkEORdGWMTotPUY8tEPWaiFjNZ76YV+xdu84DH5gFp/C+UBIBV2DLg4WvFM/PdPTHwfCwv9wzsLoUMeprxrMN4zqHoajlkQ4g0WFgIDcfrSYM/v0a7989Iwfaizybp9l8V+fRWaWO/i68VT8411nQ320kW5gPDfGDYWwrJOIqxrMNFGYexnJZtN4VoodhaZgPDZC3maC2m3o3rkldJAdcO+Vyal+ZrteQTbIJL8g6uyvDEbIO1NLF2ORqx5XAl4nAlwkExktWMZTVjGVc2HRJitSyUI8NUI2aqbpipm67ajrfZXA2vG86wLiuz/ZtBAkCTjOccbliX5SczjY4/IatVYpKJR5P1GAjJaMVwVjOWcViXdcjJREIhzqsRJ0NuU42YiXpv3uWfSdbRvHHUp+jJHKRmkQDQRAOe5q3rsjw+EzDdrftoNlHD2JPnEgD0e5qxjGbEdxjKarKyzFAI6rFlNoiZaVim6zGLHXoEeZpGMg6vG/Flh78mkwDQZL5W/MJYhj0LIfvLa3OFwIVaDA2LoeEgyemKGUcxnEl6CIZ9TUEmFIoeUI8tc42kW382iClHtncm712Ay/tcXjPoy4FmLSABoAUUsK3oUXAVP5sPem5ewHI14lf2EGQclfQOZBSDvkPRU3JegehqsYWFIGYuMMyFhrmGkS79ZXK14pohn0tyMt7fKhIAWmhDn8tIxuGJuQazXXKccJoaseVoLeJoDSBEAf2eoug7DHqaYV8z4GvpJBAdqxoZZgPDQmCYDy3zwdrehKdVBn3Na4czsjV5i0kAaLGcq3jzWJbnSiH7SqH09K2ABcqhpRxGHF56zNWKoqcZ8BRFXzPgaQqelqM/RVsZoBwmDX0pNJQCy0IYS2/fainY2OeyfdCX3+k2kADQBopkx6oh3+HJuYB6LL0BFyoylplGzEzj5ce0gn5XU/QVA56zFAqUTBgSTdGIoRzFSw29YSG0LEZG7uybLOcqrhvKMJqRpr9dJAC00VhWc+NFWfaVQg6UpTegWYwluTiHAC+vvvC0Iu8qCp6m4CoKbhIM8o5MNhSvFppkzX15abJq0vtkqEtL31oKLs+7bB/0ZCOxNpMA0GaOSiYIjuccnpoNZMlPC4XGshBYFoJXfsaeUvR5ij5X0efqk3/nHSWHHq1xDWOphJZqZKjElkpkqETJY6GVhr7d8q7m2iFf7vpTIgEgJcO+5m3jGfaVIp5fDKU7sY1Ca5kPLPMBnNpjAEk4yJ8IBK4i50DOSb7OugpP7lA6WmgstdhSiyy12FCLoRotNfSxJZJftI6ggU0Fl6uLHo50x6VGAkCKHKXYVvS4rM/lmfmAibpsHpS20FoWQstCeOaeGVcnoSDvanI66THIORpfJ2OYvpPMPZBLWnNZklUigUka98AmfzeW/l1dauylge98Y1mHHUVftgrvABIAOkCfq3jjaIaJeszP50OqMizQsSJjKRsoh2cPa0opfA1ZrcguDSv4OpmT4GuF7yQ9Db7WeBp8R/XcjGcDBLElNBAYQ2gtQZycYx+Yl7+ux0kj3zDJEdWie/W5im0DPuvzsq6/U0gA6CDjWYfRizQHShEHyqEsKepS1loacXLHurDMzSBdBa7WuDr52lNq6Wt18jFXJ0MQaul5SB5D2eTxpX8rLFqdZROlpdeeSWgt2Fc/F1uLsRaLIjIWe8prT9xxBzbZzS60STd7ZCGylshAZJYetyw9lzwueoOr4aqCx6Z+T3bz6zASADqMg2LzgMcV/S4HyjI/oFdEFqLYnD4lQYiupRVcmnfZXPTk3I8OJQGgQ/k6mR9wRb/Lc6WQQ9VYukCFEB1PARflHbYPeOTdXhvc6i4SADpczkn2w97Yb9i9EMpEQSFEZ1IwnnHYJhP8uoYEgC5R8DRvHM1QCg0HyhFHatIjIIRInwLW5Rw2FzwGfbnj7yYSALrMgKe5fthnS2TYX444VIlkR0EhRNud6OrfWvDo96Th70YSALpU3tVcM+RzVcFlfznicCUmligghGgxB8WGPoerCh55Oa2vq0kA6HIngsCWActL1YiDi5GcNy6EaLqMA5fmPa7sd2XL7DVCAsAakXEUVxU8rix4TFRjDiyGzAWy2FoIsToDnuaKfpcNfY5s27vGSABYYzSwPu+wPu8w0zAcXExWDsheAkKI5dLAeM5hY7/LSEZ27lurJACsYSMZzUgmQyOGI7WIQ5WQcihJQAhxZn2u4rI+l0vzHtLur30SAHpAxoEr+12u7HdZCAwvViIOV2NiWUYoRM/TKrnbv7zPZcx3kF7+3iEBoMcUfc01vs/WouVINeZwNWJe5goI0XOGfIdL8skfX7bq7UkSAHqUrxUb+1029rvUYsuRarKnQEVOIBJizco6mg15h8v6XPpkCV/PkwAgyC2tILiq32M2iDlcizlWjQlk5qAQXS/jKNbnHC7Juwx7Wrr4xUkSAMTLFAxnHIYzDjuLlrnAcLQWc7QW05C9BYToGr5WrMs6XJx3GMs4cgyvOCMJAOKMlFInw8COQZhrxEzUk0BQlcPcheg4WUcxnnUYzzmsy8qKfXF+EgDEeSle7hnYNuAxHxom6jETtZiFyCA7EAuRAgVFT3NRNmnwB6V7X6yQBACxMgoGfc2gr9ky4NGILVP1mOONmKlajMwhFKJ1HKUY9jXrcg4X5xyysiWvWAUJAGJVMo5iQ5/Lhj6XGMtM3TBVN0w1Itl0SIjVUlBwNWMZh7GsZiSrZTte0TQSAETTOCQTj9ZlHcCjYSyzdcNUI2ayHlOTiYRCnFfGSYbcxjIO41m5yxetIwFAtExGq5PnEgAshoaphmEmiJmrG+qyzFAIso5i2HcYyShGsw79rk67JNEjJACItun3NP2eZuPSj10jtsw2kh6C2cBQlgmFogdkHcVQJunWH/YdCq6SyXsiFRIARGoyzit7CBqxTXoHGpb5IGYhtHJegehqjoKi7zDka4Y8zVBGS5e+6BgSAETHyDiKi3MuF+cAPCywGFoWgpj50DAbGEqBkU4C0bHyrmbY1xR9zaCnGPRlEx7RuSQAiI6lgIKnKHguG5YeC42lFBpKoWUhMJRCQzk0yNZEop00UPCShn7A0wz4iqKncZW09qJ7SAAQXcXTipGMw0jm5ceMhcXIsBBYSmG8FAosDZlkKJog40DBdZYaek3RU/S7Wu7sRdeTACC6nlYkF2cPwDn5eGgs1chSDg3lyFKOkmBQjWWyoXg1Tydr7gtLk1WT3idNVlp6sUZJABBrlqcVRV9R9F+5rCq0lkpoqUSWSmRO/l2NrRx6tMZltKLPU+RdTZ+j6HM1fW7ymCfd96LHSAAQPcdTikFfMejDqT0GkISD6olAEFlqMdTi5Ot6ZAllVUJH87Qi5yhyriLnaHIO5N2koc87Ck/u5oU4SQKAEKfwlKLoJRO6ziQ0lnoM1chQM0mPQS02BDHUYksQJ3MPJCY0lyJZJeIvNfC+Thr5zNLfeUeTdZAGXogVkAAgxAp4WiVjxZ5z1tdYawkM1I2lvjSsEJgkPATGEsRJT0NgDKGBILY9t4pBA76TfJa+1nhK4TvJOfa+fvnrrJM08hmdHFEthGgeCQBCNJlSioyT3LEWveW9J7KWyFgiA5FNAkLy9cuPRSYZgrBLz0PyGFYljy/926Iw9iybKC299kw8pUC9+jlHKbRSKCyuVqhTXusu3XH7KtnNzlMKVytcBa5SuBpcvfS4Yum55HEhRLokAAjRAVylcB11+pQEIYRoGcnhQgghRA+SACCEEEL0IAkAQgghRA+SOQApaZhkIxqFJefKbmNCCCHaSwJAG1ngSCXi+cWIhfCUhV8Kiq5mU8Hj4rwjR4MLIYRoOQkAbRJay+MzDabqZ1jxbWEhNDwx2+D5Rc3OQZ9BX0ZnhBBCtI60Mm1ggZ9MB2du/E8zHxgemqzz1FxAIKfZCSGEaBHpAWiDA+WQmUa87Ndb4FAl4ngtYvOAz+V9rhw9KoToCP2mys5oL6NmFlBM6yGe9rZQUfm0SxMrJAGgxWJrOVCOLui9gYGfzwccXAzZNuCzPi+7xAgh0lG0ZW6pfosbg0dw7CtvaGLl8EDmTXw9+25Kuj+lCsVKSQBosdnArLorvxJZHpttMFzRbBvwGc7IyI0Qon0ujY/x2fIfM2rmzvi8Y2PeUX+I64Nn+Xzht3nJWd/mCsWFkJakxcph8455mW0YHp6q8+h0g/mg146PEUKkoWjL52z8TzVmZvn98n9jwCy2oTKxWhIAWiy2zR+8n6jH/GgpCCxIEBBCtNAt1W8tq/E/YczM8i9r325hRaJZJAC0WK5Vn7BNgsCDU3UenWkwJ0FACNFk/abKjcEjK37fTY0fk7e1FlQkmkkCQIuNZjUt3dnHwkQt5qHJOg9P1pmox8kyAiGEWKWd0d5XTfhbDpeYa8J9LahINJMEgBbLOpp1bdrUZzYwPDrd4AeTdQ5XIqRPQAixGuvMzCreO93ESkQrSACARqu/wfZBH0e1byF/OTT8dC7ggaM19pVC6rF0CQghVs6uovtyNe9tk54fo5AAgJpv9XcoeJrrh/y2f9h1Y9lbCnngWI0nZhrMBSvvyhNC9K5JPXLh73WGm1hJS7T82t/pJABgF9rxXdbnHd68Lkuf2/5UbIAjtZiHJhv8cKLOC5WI0EqvgBDi3H7mbSZWK9+ALMLhZ+6WFlTURIq2XPs7mQQA2vdDMORrfnE8x45BHzelT74UGn42F/DdI3Uem20w1ZBJg0KIM6uoPA9k3rTi930vcwNVlWtBRc3U+t7fTicBQNnD7fx2WsGV/S6/NJ5jQz69jRhjLMeqMY9MNfiHiTr7SiHVSKYNCiFe6evZdzOll9+dP6lH+Eb+n7WwoiYx9kjaJaRNAoDl6TS+bdZRXD/s809GMxS8dCfLLEaGvaWQ7x+v849TdV6qRoRyEqEQAijpfj5f+O1lhYBJPcLnCx+mpLrgPADFU2mXkLaePwvAwtNpNr/rsg5jmSwvVWP2lEIaKc7Yt8B0wzDdCHCUYl1Oc0nWZV3Owen4Cb1CiFZ5yVnPp4uf5l9Wv81NjR/j8soJxREOD2TfzP+Te1d3NP6ATenmr5P0/GX9vV9+bpOO4/1p1wEQWzi4GPJcOSLqoDtwRylGs5qLsw4X5V1SmMcohOgQeVvjmnAfY0t7BEzpEZ72NnfBmP8rGezGb9627YW060iTXMqtVe+7a98xsONpl3JCwyRHCL+wGNJpS/hdDaMZh/Gsw3jWJSMnFAuxIv1unZ3DBxnNLICC6XqRp2c3UomyaZfWS47de+uWS1Cqw66w7dXzQwAoZblzz7dR/FbapZyQ0YrtRY9N/S7PL0YcXIyIO2TZXmTgeC3meC0GAgqeXgoDmmHfkUgpxFkU/Qq/duUPuHH9kzjqlRNuY6t54Nh1/PWBX6QU9qVUYU+5v9cbf5AAAICFbyk6JwCckHEU24oeG/td9pdDDlXijgkCJ5RDQzk07C8nExvHcw7jGYfRrG7r7odCdLJL+6b43679K0azpTM+7yjDOy5+guuHD/C5p36Nlypjba6wtyij7k+7hk4gqwAAl76/B6pp13E2WUfxmkGfm9Zn2Tzg4XXo/7V6bHlxMeLRmQZ/dzQ5pfDFxYhK1FmhRYh2KvqVczb+pxrLLvDZa/+aAa/Shsp6VqVQ9r+fdhGdQEZwgWf/ble07Z2/sxPUa9Ku5VxcpRjNOFzR55FxFOXQEnVYj8AJFqhElol6zMHFiEOLEXOhITTJpMKMLCsQPeI3r/4uO4deWPbr+9wGOTfg8ZmrW1dUD7OWb3z9M1ffnXYdnUCGAJZoxVeM5Za061gOVyebCV3R73K0mswRmA86exOfukk2HjpWTZYPZZ0kzIxkNKMZTT6trRGFaKF+t86N659c8ftuWv8k//3AjVRlYmDTWdRX0q6hU8hVd8nffGzbj4GfpF3HSmhgQ97lreuy3DCW5eK8i+6SG+t6bDlcjXhqLuCB43W+e6zOT2cDDlUi2ZFQrBk7hw++asLfcrg65poV9BqI5VHw+Ddv3/Jo2nV0CukBOIWy9o+tUl9Lu44LMZzRDGd86rHHi5WIQ5Wo1ZWLhAAADRtJREFUq44BrseGw1XD4aWZGBlHUfQ0Q76m6GkGfUeWHIqusy574dvNr8v1/Fb1TWdgV9o1dBIJAKfQJfPXcdH598CVaddyobKOYsuAx+aCy3RgeLEScbxmsB06V+BsGrFlMo6ZrL+841jWURR9zaCnKfpJOPC7pctD9CS7inWx3fUb2xUOuAuxjP2fQgLAKe6+Y0fwvrv2/j7Wfj3tWlZLKcVYxmEs41CLLIeqES9WolS3Gl6temyp12ImakuhQEG/oxjMOBQ9TdFTFDwJBaJzTNYGU3mveDWl7KfvvmNHkHYdnUSulKezVr3vrr0/Am5Iu5Rms8BcI+ZwNeZILWKtDrV7GgqupuBp+j1NYSkYZCUYiDbrc+v8xVu/uOJ5AJFx+M2HbpdJgM2i1CP3fmzzm2Xzn1eSHoDTKWX54rOfQOsfs8YCkgKGMw7DGYcdgx6TNcNLtYjJevcNEZxLaGA2MMyetjJCgoFot0qU5YFj1/GOi59Y0fu+d/R6afybx2LtJ6TxfzW58p3F++7c86edtD1wK9Vjw5FqzNFa3PHLCVsh7yrGsg4b+1wKnbrLkuhaA16FP3zDnzGWXVjW6yfrg3z6J79FKcy3uLLeoBT/1z23bv1w2nV0IrnanYWTiW8FDqRdRztkHc2mgsdb12W56aIcW4seAz3UEFajZAfDH07U2VsK11RviEhfKezjc0/9GlP14nlfO1kf5HNP3iKNf7NYDoYNPpV2GZ1KegDO4eYv7X2LMvaH9GhQqkSWY7WIiXrMXMP0zKzkK/pddg76aZch1pgBr8otV/6Am9Y/iavjVzwXGYcHjl3P159/uzT+zWOstTfed/u2H6ZdSKeSAHAeN+/ac5eCj6VdR9oCY5msxRytx0zVY8waTwOvH86wPi8bD4jmy7t1rhl6gbGldf5TtUGenrtCxvybzGLvvO+2bR9Pu45OJpMAz2Msv/jJ6Wr/dcDb064lTb5WbOhz2dDnElnLdN0wUU/W6XfThkPLtbsUsD6Xk4gsmq4aZXlkamvaZax1D7sL5jNpF9Hp5PK2DO+562fjrvV+Alyadi2dqBQmYWCqbphtxGtmqOCt67IM+j05+iNENztkI/cN933yqsm0C+l0EgCW6f1ffO56q+OHABmgO4fIwlwQM103TDViFkLTtVuaXTPkc3mfdJIJ0UVqyvK2e27f+ljahXQDCQArcPOde29Ryv4lPTop8ELUY8t0PWZ6KRTUumi4YFvR56qCBAAhuoSxilvuu3WrbPe7TBIAVuj9u/Z80MKfIp/dBanFlplGzEzDMNswLHbwdoTXDvlcJj0AQnQDi7IfvvfWbX+SdiHdRBqxC/C+XXtuRU6VaopGDLNBzFxgmG8YFsKYqEM6CX5xPEfBk18RIbrAp++9besfpl1Et5Gr2wW6edee/6Tgs2nXsdZYa1mMYCGImQ8NC4FhIbC0e2rhgKd5+7qs/IYI0eGstf/hvtu3/UHadXQjubytgoSA9oixlALLfGBO/lmMWzi5UME/Gc2yLiNTPYTocP/x3tu2/vu0i+hWEgBW6f137f6ItepLyMTAtgqtZSEwzAeWxdBQjpL5BM2YUrBlwGPzgLf6/5AQolUs1n7y3tu3fTHtQrqZBIAmuHnXnn+l4C8AaTXSZJNJhqUTgSA0lKMkICxnXoGrFdsHPC7vl4l/QnSwyFo+dN/tW/8i7UK6nQSAJrn5rt3vUlZ9HehLuxZxGgvV2FJeCgblKPm6EQPW0udqxnIOl/Y5cjSwEJ1t0aD+xTdv2/KdtAtZC+Rq10Tvv2vPNdbwTRQb065FCCHWmJfAvPfe27Y/kXYha4WMWzfRPbdufdr69g3A99OuRQgh1g77oI3c10vj31wSAJrsvo9sm5ldOPYrCr6Qdi1CCNH91FdH85Vflr39m0+GAFro5rv2/htl7X8FCmnXIoQQ3cRCSVn74Xtv3/ZXadeyVkkAaLH37tp9hbbqL1G8Oe1ahBCiS/zEsfGv3337jv1pF7KWyRBAi33ztm0vzJaOvR3s/w507sb3QgiRPqssX3YW4rdI49960gPQRjff9ez/pKz+M+DStGsRQogO8wKGD9778a3/kHYhvUJ6ANrovlu3fzfML25dmiAovQFCCAEW1FejgGuk8W8v6QFIyft27bkBxZ9i2Zp2LUIIkZIDGvtv/+a2bT9Iu5BeJD0AKbn3tq0PO6bvtcAfAmHa9QghRBsFoP7zwELmNdL4p0d6ADrAzV/cvVkptQvF/5x2LUII0UrW8oAm/tg9t+94Ju1aep0EgA7y/jt3v9sqdRdwZdq1CCFEc6n9Vtnfv+/WrXenXYlISADoML9xx8Fsudj4uIXPIAcLCSG636Ky6nNVV+/6zkevbqRdjHiZBIAO9e4/2jvqO/YTFm4FMmnXI4QQKxSC+gsnjP7g7k/tOJ52MeLVJAB0uA986ZnLYuN+FuxvAU7a9QghxHkYBffEjvOZb3706gNpFyPOTgJAl/jVO3fvdJT6HPDutGsRQogzsArux8aflQl+3UECQJd5/117rrGWTwC/jvQICCHSZ5RVf2s1/+HeW7f8JO1ixPJJAOhS7/3yc5t0bD4F9oOAm3Y9QoieYxTcY9B/cN9tm3enXYxYOQkAXe79u/ZdabGfRtl/gyWbdj1CiDVOUVfwNe3wh3f/7taDaZcjLpwEgDXiA19+biwy8QeV5SPAhrTrEUKsNWpCYb8Wunz5/t/dejTtasTqSQBYYz5wxzN+NOj8qkLdjrW/kHY9QojupuBJsP9nYSH7f3/tjo31tOsRzSMBYA27+c7db1dKfQT4VcBLux4hRNcIgPtR+iv33rr5wbSLEa0hAaAHvOeun417xrvFKvXvwO5Iux4hRMd6zir+LCb82v237pxIuxjRWhIAesx7v7T7ddroD4H910Au7XqEEKlrKLgf9FfvufXqB1DKpl2QaA8JAD3q3X+0d9R17a8ry78C3ph2PUKIdrP/Qyn+u3H56/s+sm0m7WpE+0kAELzvj5693Lr6FmXVvwV7Vdr1CCFa5iUFf2WM/fP7Pr5tX9rFiHRJABAvs1bd/OV9Nyhj/xfg/cBo2iUJIVZtCvgb4C/vvXXLj6WLX5wgAUCc0Qe+YZ3o2L436dh+wCr+OXBx2jUJIZZtGviOsvbukb7K//fV//X1YdoFic4jAUCc1x13WP3U0L43a2PfZeGfA5vSrkkI8SqHQf2tsubbM6Xj3/nBHb8UpV2Q6GwSAMTKWKveu2vfG7Sy7wL+GXA98nMkRBqsgieMtf+v0vrb935s82PSvS9WQi7cYlWSLYjNO7W177LwT4FC2jUJsYbVwD6srPq2dZ177v3o1YfTLkh0LwkAoml+446D2fli8Esa+w7gl4HXpF2TEF3OKvg5yn7PGPX3xVLmB7Idr2gWCQCiZW7+P/avw4verqz6ZbC/Alyedk1CdD41obAPgv2eddy/lbt80SoSAETb3Lxr3zat4puw6m1W8VYsF6VdkxAd4JiFH4F6UMc8cM8ntuxJuyDRGyQAiNS85yt7LnZiblBW/bK15i1KqW3Iz6RY+44peAjs97Dm4Xtu2/6sTN4TaZCLregY7/nKnou9kLeg7S9Yq94IvBY5r0B0tyrwhMU+ilKPKGseuve27cfSLkoIkAAgOtgv3vEP7sjAui1Gu6/Txr4OxQ02WXao065NiLN4HnhYWR43jnq8rvRPvvPRqxtpFyXEmUgAEF3lnV9+biBn7HUWc52C68Beh1U7AD/t2kRPCYCfW3hSYZ/UVj8ZhPbJ+z+9tZx2YUIslwQA0fU+9CePeZPVgR2a+DqLuk4prsGyA1iXdm1iLVATYJ8BnlbWPmmsfnKsv/ysbK8rup0EALFmvXfXwUF0fZOyeoe2djtW7bDKbgc2Ij/74jQK5iw8C+oZZe2zKP2MDsOf3/2pHcfTrk2IVpCLoOg5H/gvB4qhH21xlNlkUVcBVwNXLf0ZS7c60WKTWPaj7H5Q+xV2v1V6v1N39939e5sW0i5OiHaSACDEKT7wXw4U40xjk7L6KqPZqK29FKsvR9nLLVwGFNOuUZzTPHBIWXUIZV60qEPK8oJVZn/N8fZ/56NXl9IuUIhOIQFAiBV455efG8ja8DKsukIZfRnY9Si1AWvXobgExTiWdchKhWYzwISCCWs5imYCwxGlOGrRh5QNX6i6/kvSwAuxfBIAhGiyD3zDOo2JveNuZC4Cd73CjKMYwTJiLaNoO4xlBPQI2GFghN5bxRAAM8kfO4tiBqtmFMwY7DRWzSilJ5VRR60OjzuXbJu8+1+oOO2ihVhLJAAI0QHe84U9BeW6g1qbfmttwVFqwGIGraWglO3HUlBKDVgYVNZqlBoEsKhBMApUUYG2MAA4gK+g7/TvY5OeibMNYyyo5E779PdUSBrsSEHZggG7ANoq7PxSHXNgrYJ5a20JRRkog1pU6PnY2pJSqqwcVXacYP7u39mx2KSPTghxgf5/K70FWxt4/GAAAAAASUVORK5CYII=;" vertex="1" parent="1">
          <mxGeometry x="280" y="155" width="60" height="60" as="geometry" />
        </mxCell>
        <mxCell id="bjE_prnjRbW4GjXfM1Jb-8" value="" style="shape=image;verticalLabelPosition=bottom;labelBackgroundColor=default;verticalAlign=top;aspect=fixed;imageAspect=0;image=data:image/png,iVBORw0KGgoAAAANSUhEUgAAAgAAAAIACAYAAAD0eNT6AAAACXBIWXMAAA7DAAAOwwHHb6hkAAAAGXRFWHRTb2Z0d2FyZQB3d3cuaW5rc2NhcGUub3Jnm+48GgAAIABJREFUeJzs3XmUneddJ/jv8y53v7WvKi2l0mrLsmzLimPHxnFsx3aIk5NAlJBJkwQDCUxP0wSY052eaaAZmjPnTOhZepombNMwEMgyECA7AccxtmPt+y5VlUqqfb/Luz/zR0m2dtVy7/u8973fzzk6jqRb9/mmVPd9f++zCtSIkXnZoSXd90Hi3QC2QaJXCjQIIKE6G91Myiv/FQAkEEBCQkBCIggACQn/yutklbOIhWYX4gi4QgpLCFkUUkxBw4CU8rRhGAccU/9unxCjVY5DCo1LmReuuzWQsldKrVdA9kKIbkjZKgXahEArJBIAdAANqvPSrUlIBBLwAXiBhB/CdeR2NCECAZQFMCxk8HJgaF9Yn0yeVBRnSYTqAHcz5rqPywC/JiDfB8BQnYcqS2KhCPABBIGEByCQUuWH2dUgxwW0UwLim17a+DMWBbVpXMp8YHuPaAKPSeABQO4AsB41cN2jpZEA3EDCCSQC1WEA6MCIpuM31qVSv686y51E9oMwUi6v1zTt/wTE+1VnofB5cqGqv/pflXSBkhDiiCHFX2lp8/dXCVFSm4huRUqZmLS8x6UWPC8hngFwPxae5KmOOFLCDuRbvZAqGQIjQsiPrEunX1Wd5VYiWQCM2/bHJMQXAeRVZyH1JCTcAHAl4Cv+VAsBaQCXoGlfNZPmb68SYkJpoDp3WcqM4TjvB7TdgHwOQE51JlJPAij5gfKHB2DhmqED/3tvJvU51VluFLkCYMx2/x0gfwsRzEbqSSnhYqG7T/WHW0gJTYhBQ+j/ZXXa+IIQwlObqD5IKbUx23tGCPkzAF4EkFGdiaKp7AdwI1AEAIAh8P3eTOoZ1TmuFamb7Jjtfh6Qv606B9UGXwKuXBj3U00Ang7tZRHIX1qXTx5XnSeORuZlh5bwfg6QL2FhLJ/orkp+AE/9JQIAkID49tps8gXVOa6KTAEwZtsfBcSXEKFMVBukBFxIOH5EJgAJcUZI+cu92dQ3VGeJgwnb3upL8ctC4KcBpFTnodoiART9ABF4TgAAJHTxv61NJX9NdQ4gIjfb4XK5V9f0Q+CyG1ohR0rYPqBuHcHbDGDIBH6xJ5v6O9VZatGIbd+nQfsNQH4IgKY6D9UuXy4UAVEgBGTW0B7rSiTeUJ5FdQAAGLXdrwvID6jOQfHhBBK2jMZMYF3IflPgZ1an0/+kOkstGLOsTVJovymAj4I3fqoQO1hYHRAFOnB5fTbVozqH8gJgxHHeqUm8rjoHxY+UgC0l3CAK/QGADhxKiOSLPRlxUXWWKBqTMicd51cFxL8BkFSdh+JFAij4EjIKTwUATB2fWZdKfVFlBuXVtSbF/6g6A8WTEEBKE8joGgyhvNaFD+ywpN0/UCz/gZRS+WcvKqSUYsxxPg3XPScgfh28+VMVCAAJ9ZeBt0gf/151BqXfjmEp23XHvQTAVJmD6oMbSFgSkXgCMCCmhRZ8ZF06/X3VWVQataw+TdO+KCWeVp2F4i8AUPCiMRcAAJJ6ctOalDirqn2lTyGa674A3vwpJKYmkNMRid4AD7LZ9fEPA5b95XrsDZBSijHL+VdCaEd486ewaAB09R//t8jA/WWV7Su98AiJJ1W2T/VHQCCjC6S0CFwFhIDry49cKNuj5wvODtVxwjJWkF3jjvMtCPwf4CY+FDItAg8AV/kI3qOyfbUFALBNZftUvxKaQE7XEIU6IJBok5rcP1CwYz8fZtRyn4PhHgbEc6qzUH2KVA8AhNKVAEoLACnQq7J9qm+aALKaBjMCFwQppeYK+b/2l63vSSljd4CNlFKM2e7nhZDfgEC76jxUv6I03iYU94Cp/V5IHvZDagkBpHUNySh0BQDwAjzTX7YHLkvZpjpLpYxImR13vK9d2eY7dsUN1ZZofNIXqJ7/o7oYSihunwgAkLyyXDAKfIkeq+wMDhSLO1VnWamxguzSHPflK7v5EUVAdEoAqThMNK54RBFgCCCrC4gITBIKpEx70N8YsrwfV51luYZte5sw3TcAPKw6CxHdjAUA0TV0IZDRRCQ+GBIwbN/7u8Gy82nVWZZq3HEe0qV4WQLrVGcholuLwnWOKFJ0AWQMLRIfDgkIVwZ/NGBZn1GdZbEmHGdXIPE9CMRmHgNRHEXhGkcUORoiVARICM/H7w2Uyz+nOsvdjLruY4HEPwqgRXUWIrqzKFzfiCLpahEgIjBpSALCk+L3L5btT6jOcjtjjvOACOTfA8ipzkJEd8cCgOgONFydGKg6yUJPgCvx3y4WrfepznKjYdveBol/ANCsOgsRLQ4LAKK70ASQjsg+AYGUmgN8fXDevk91lqvGCrLLgPgGgFbVWYho8VgAEC2CIQTSEdknQAKGr+ONs1J2qM5yUcq0MN2/4Wx/otoTjSsaUQ0wBSKzY6AvZdYs2/tU7iQmpRRJx/tzCTyiKgMRLR8LAKIlSGoiEscJA4ArsXrQcv5OVfvjjvd57vBHVLtYABAtUToiGwUBgBvI9w2W3c+H3e6o5T4DyN8Mu10iqpyoXMeIasbVA4Si0Q8AeDL4rYsF+/6w2huZlx1Ck/8veLAPUU1jAUC0DLoAEhGZDxBIqbma/H4Y8wGklEJLOH8Mic5qt0VE1cUCgGiZkpqAHpH5AIFE22DZ+VK12xm33f8BEDV7QBERvY0FANEKpPVoFAAA4AbB7ouu+2S13n+4XO6FwH+s1vsTUbhYABCtgIboLA2EEPBd/6vVeGsppdB1/YsAstV4fyIKHwsAohVKaAJRqQE8ibaBsvV7lX7fcdf9FCSerfT7EpE6LACIVkggOlsFA4AX4OcvleSaSr3fpJQNkJJd/0QxwwKAqAJ0IWBGpAaQgOYK58uVej/PdX8dEF2Vej8iigYWAEQVkorIWQEA4AXynZWYEDhmWZsg8S8rkYmIoiU6VyyiGicAJCOyLBAAfDf4kxW/idD+gwASFYhDRBHDAoCoghLawk6BUeBJuX7I8pa9Zn/YtrcB2F3BSEQUISwAiCpICAEzKhUAADfwlr0iQIf2m+A1gii2DNUBwub7PoaGRjA8MoZyyYLn+aojRZoQAulUAs0tTVi3rgfZbEZ1pMhLaoATqE6xwJdYM2R5P746ZXxjKV83bllbJE/6I4o1pY8qY7bjIsQiZGDgEvbtPYxiqRxWk7GiaQIbN63Hzofug2HUXe24JFYg4QRSdQwAgAEc782mti3la0Yt54tC4OeqlYlIFV8CRT8aFboAsCGbUnYfrpsC4MiRkzh48HgYTcVeS0sTnnnmcSSTnBt2OwGAgheNiwwAJAKxfW0+eXQxrx2Zlx1awu0HkK5uKqLwsQB4W12M7/X3D/HmX0FTUzN45ZU3VceINA2AEaG5AL6GLyz2tVrC+znw5k8Ue7EvADzPw969R1THiJ2RkTH09w+pjhFpZoR2B5QCT0kp79rbJqUUgPx0GJmISK3YFwCDA5dRLnPMvxpOnT6vOkKkGQIQakfZ3hJIaV4s2r90t9eN2d6zADaEEImIFIt9ATA8PKo6QmyNj03Ccz3VMSJLAEhE4/4PAPA1edcd/YSQPxNGFiJSL/YFQIEz/qtGSolS2VIdI9KMCA0DBFKsuyhly+3+/rKUGQDvDzESESkU+wIgOpffmOI3+I50EZ0PmQSEtJ1/e7u/NxznRQDZECMRkUJRuTZVDTeuqR5NE8imOVn8bqLUC+AH8qO3/1vtI+ElISLVYl8ArFrVqTpCbHV2tEM3dNUxIi8qxwQDQACsvtLVfx0pZQKQ71WRiYjUiH0BsHbtKmSzfEqthq1bOVl8MXQhInNAkJQQrm2/dOOfT1re4wDyCiIRkSKxLwB0Xcc7dj2gOkbsrFndjdVrulXHqBlR2jg5COTHb/wzqQUvqMhCROrEvgAAgNVruvHwrvshovIYVuPaO1rxrscfVh2jpuiR+tnTtt/4JxLiaRVJiEidujkLAAAuXx7Bnj2HMTdXCKvJWNF1HVu3bsQDO+6BptdF7VgxgQQKEdp/XGSSXX1CjALAuJR56bjTADihg2KPZwG8LUo9k1W3alUXXnyxA6Oj47h8eRylUgmW5aiOFWmGoSOTSaG5uQlr13YjlUqpjlSTNAEIAcgIHBAoAZhF+xPAwvkAge29Uwje/InqTV0VAACgaRq6uzvR3c3VARQuHQIeIlABAJCa9gKuFACawKPRSEVEYWI/LlFI9AhNAwgQbL3mtw8qC0JEyrAAIAqJFqGJgIFEx9X/LSHvV5mFiNRgAUAUkih92CRgnpWyY1zKPID1qvMQUfjqbg4AkSqaWJj1G5Xx9qTlPCN0cUbyRAeiusQCgCgkUbvLBlI+EEh40UtGRGFgAUAUIl0IeFFYCwgAUmyV0CZEZPokiChMURqWJIq9CM0DhBRYJ6RcpzoHEanBAoAoRFH6wAnIFgjBAx2I6lSUrkdE8RehHoAAIgcp21TnICI1WAAQhUiL0HC7FEhBgAUAUZ2qu0mAvufj4tAwhofHUC5Z8INoHApBtUvTBNLpFLo627F6TTcSCfO2r43SHABImIBsilS3BBGFpq4KgP7+IezbexilsqU6CsXQuXMDSCQTeHDHvdi8pe+Wr4nSrTaQgQboadU5iEiNuikADh86gUOHT6iOQTHn2A5+9OZBTM/M4pFHbt5iP0IjABAL5UhCdQ4iUqMu5gCcv3CRN38K1enTF3D8+Omb/jxKPQBXdgBkAUBUp2JfAHiuh317j6iOQXXo0KGTKJfLN/xplEoAAHXUC1hJvgTGXR/9losxx4cblc2diJYg9h/+gcFLsCyO+VP4PM/DuXODuO++LaqjUIXMegF+MFvCiaIL65oJxKYQ2JQx8WRjBh0JXWFCosWLfQ/AyPCY6ghUx4Yv8+cvLo4VHfznSzM4MG9fd/MHAFdKHC86+P3LM3h97sZeH6Join0PQKHEDyOpUyyVVEegCjhZcvC18fm7TuIMAHx3auHf/NEGLrCgaIt9D0DkRlyprohILfyn5SgGAf5morCkFRz/MFXCqONXLRNRJcS+AMhmM6ojUB3LZrOqI9AKvTZjwQ6WNskvAPDyDHt/KNpiXwD09HSpjkB1bFVPh+oItELHSvayvu5s2YWzxMKBKEyxLwDWrF2FXI5PYRS+RMLExj6etlvLyn6AWW9524V7UmLC5TAARVfsCwBd07Br1w6OxVLoHnpoOxJJ7rNTy8orPCqkxLNGKMJiXwAAwOrVXdi1634WARSa7du3YtOmXtUxaIWCFW7ezNs/RVnslwFetWXLBjQ05LBnz2HMzs6rjkMxlc1m8PDD92Pt2lWqoxAR3VHdFAAA0N3diRdffAajo+MYHh5HsVRC4LNGp5XRNA3pdBpdXW3o7uqAptdFxxoR1bi6KgCAhXXZXV0d6Ori7GwiIqpffFQhIiKqQywAiIiI6lDdDQEQEV0VSMC+w1K9pe4AeCMnWNhL4HYSmoDO1UmkCAsAIqorJT/AG3M2TpZsTLj+Chf63dnXxu++4qjJ0LAlk8CjjWk0cgIphUhp6TlmOy5YhFAd8SVQjNDKkwajvm44J0sOvj5RgBXBLXoNIfDelgx25VOqo8RalD6DAsCGbErZfZg3XyKqC0eKDv56EUf6quJJiW9OFmEFEk808ihhqr76Kv+JqC5NuQH+dolH+qryT9Ml9Fuu6hhUB1gAEFHsvTxThCdr4fYPSADfn+ZRwlR9LACIKNZcKXGyVFtP1EO2h+llnkJItFgsAIgo1kYdH26NPP1fa8j2VEegmKu7SYCe62FwaBjDw6MoFS24rqM6EtU4wzCQyabR1dmONWtWIckjgCOlGMEZ/4tR9H3VESjm6qoAuHD+IvbtO4KyZamOQjF04fxF7N9/FPfvuAdbt2xQHYeuULfIamXSGjtoqbrqpgA4ePA4jhw5qToGxZxtO9jz5iFMT83i0UcfUh2HALSbOjQAtTai3m7qqiNQzNVFiXn+/CBv/hSqs2f7cezYKdUxCEBG17A2ZaqOsSSNhobuZN08n5EisS8AXNfDvn1HVcegOnTo8EmUyhxuioInm2prY513N2XUbtNKdSH2BcDgwCVYHPMnBXzPx7lz/apjEIDelIlHG2qjCNiaSWBHLqk6BtWB2BcAwyNjqiNQHRu5PK46Al3xTEsm8kXAtmwCH27P8emfQhH7QaZiqaw6AtWxYok7ukWFBuC9LRlsyph4eaaMi5Ybma2BuxIGnmhM455sgjd/Ck3sCwB+mEglwbPeI2d9ysT6LhMFP8C466Ps374MmPN9fGdq+UXc441pdCduf5lNakCbaaCxzk5lpGiIfQGQzWWAUdUpqF5ls1nVEeg2crqGnH7nG++E6+M7WH4BsCZlYHOaG0NRNMW+7OxZ1aU6AtWxntWdqiMQEd1S7AuANWtXIZ/nUxiFL5lMoG/9WtUxiIhuKfYFgK5p2LVrB8diKXQ7d27nuQBEFFmxLwAAoKenC+9gEUAhun/HPdiwYZ3qGEREtxX7SYBXbd7Sh4amPPa8eQgzM3Oq41BM5XJZPPzw/Vizplt1FCKiO6qbAgAAujrb8f73P42xsUkMD4+hWCzB55GbtEK6riOdTqO7uw2dne3QeIobEdWAuioAgIV12Z2dbejsbFMdhYgiLq2vbNgww2KQIow/nUREt5HRNKSWeRMXAJpNXmIpuvjTSUR0GwLA5szyjhLuSRrIsgeAIow/nUREd/BYQ3pZW4o/3pipeBaiSmIBQER0B50JHY83Lu0Uwe3ZBLYss+eAKCwsAIiI7uKp5gx2NaQW9dotmQQ+0JarciKilau7VQBEREslALyvJYvepInvTxcx5QU3vSava3iyMY2HGlI8hZRqAgsAojrgSYkLlouLtodRx8OcF8CSCze2lBBoMjWsShjoS5vYmDZhcNfMW7o3m8A92QSGbQ+XHA9FP0Ba19Bp6libMtmlSjVF6ad8zHZcsAihOuJLoOjf/PRYLY6U2Dtn42DBgi1vf+79tVKahkcaUni0IYWkxkKA4iXsz+CdCAAbsillHzIWAEQhCvPic7hg47W5MsrB4m78N8pqGp5qTmNnfnFj30S1gAXA23jzJYoZX0p8f7qEYyVnRe9TDAL8/WQRA5aLD7TlOCxAFDN1VwC4rofBwUsYGR5DoVSG73mqI1GNWzgLIIWurg70rutBQuERwF4g8bXJAi7blfu5PlJ0MOvP4xMdeZgcEiCKjboaAjh3bgD79h+FbdlhNUl1JpEwsf3+rbj3nk23/Ptqdj9KAN+cKuL0Cp/8b+eeTAIf6chzhjvVNA4BvK1uJq0eOHAMr722jzd/qirHcbFv7xH882t7Q2/7jTmrajd/ADhRcvDKTKlq709E4aqLAuDc2QEcPXpKdQyqI+fPDeLI0ZOhtTft+nhzvlz1dn44W8aUG42nJyJamdgXAK7rYt+Bo6pjUB06cvgUiqXq35QB4NU5C8uc7L8kvgT+caZY/YaIqOpiXwAMDFxitz8p4fs+zp8bqHo7466Pc+Xqdf3f6HjRwZjjh9YeEVVH7AuAkZEx1RGojo0Mj1e9jeMlByE8/L9FAjhYYFFNVOtiXwAUS5bqCFTHCsXqT5q7YLlVb+NGZ0PscSCi6oh9AaBx0RIppFV53bwVSEy74XfHT7g+yhFZSkVEyxP7AiCby6iOQHUsl8tW9f1VzciXwC1PxCOi2hH7AqCnp0t1BKpjq3o6q/r+5UDdTbiosG0iWrnYFwCr13Qjn6/uUxjRrSSTCfStX1vVNoJFnvBXDewAIKptsS8AdE3DO97xAAQPMqGQPfzw/UhW+VwAXeHe/InYXz2I4q0uPsKrVnXikUcerPqELKKrHnjgXvT1VffpHwDyurqPcKOhK2ubiFaubk4D3LSpFw0NOezZcwjT07Oq41BMNeRz2Pnwdqxe3R1Ke82GBk2I0IcCdCHQYtTF8wNRbNVNAQAAnZ1t+PEffw8mxqdweWQMpWIJrsvjgGlldENHNpNBV1cbOjraQ+1pMoRAd0LHpQoe/7sYa5IGdA6rEdW0uioAAEAIgfaOVrR3tKqOQlQRG1Nm6AXA1mx15zYQUfWxD4+oxm3NJmGG2OuQ1AS2Z1gAENU6FgBENS6jCezMpUJr79GGFDIKJx8SUWXwU0wUAzvzSWRC6AXI6xoea0hXvR0iqj4WAEQxkBACz7fmUM15eZoAPtSeC3W4gYiqhwUAUUysSxp4srF6Z18835LF+pRZtfcnonCxACCKkQdzSTzWmKroGZgCwNPNGezKhzfPgIiqr+6WARLF3SP5NNpNA9+aLMJZ4QZBCU3gQ205bOWsf6LYYQ8AUQz1pUx8orMBnVZpWb0BAsCqcgm/sKqJN3+imGIPAFFMNRoatk9P4VLxMkba2zCbb0Rwlwl8WiDRNDeLzokJ9ObSaDLWhJS2vpX9AEOOh3HXR8mXCCSgC6BB19Ce0LE6acDgzotUYSwAiGIuWy5jw+BFBNolzGczKKfSsBMJePrCYT6G5yPpOsiWy8iWStCCK+f85rjcr5p8CRwu2DhQtDFkubjTYI0uBDamDTyUT2Fzmj0yVBl1VwA4jouBgUsYGRlDsVRG4PuqI1GNE5qGTDqFrq529K5bjWQqqTrSLWlBgMb5AhrnC6qj1L1TZRffnSpgyg0W9XpfSpwquThVctGTNPDe5gzWckUGrVBdFQBnzvRj/4GjcGxHdRSKocHByzhw4Bjuv38r7r13s+o4FEF2IPHXE/M4VXKX/R6XbA//z8gc3tWYxnuaMxVd8UH1pW4KgH37juD48TOqY1DMua6HffuOYnpqFu96fJfqOBQhM16AL43NYcxZea+jBPDqbBnjrocPt+WR4OZMtAx1sQrg7Nl+3vwpVOcvXMThwydUx6CIKPsB/mxktiI3/2udKrn48lgBixtIILpe7AsAx3Gx/8Ax1TGoDh09ehrFUll1DFLMl8BXxguY8qpzmz5nOfj+VKkq703xFvsCYGDgEmzLVh2D6pDv+zh/bkB1DFLsh7MlXLCWP+a/GK/NlXG2zLlNtDSxnwMwMjKmOgLVseHhMWzfvlV1jJoyMz2HoaERTE7OwnEcrHAzQ6Vcw8CB9X2AVv1nre9Nl9CXTsT/qY4qJvYFQIldsKRQscifv8XyPB9HD5/CpUvxKdoH29rhh3DzB4Axx8eRgo0duWguQ6XoiX2xqInY/1+kCNM4O3tRPM/DG68djNXNP9A0TDQ3h9rmnnkr1PaotsX+7pjNV+94VKK7yeVyqiPUhCOHTmN2dl51jIqayecRhPT0f9Ul28NslSYbUvzEvgDoWdWlOgLVsZ6eDtURIm9mag6XL8fnyf+qeUXFX7UnHFJ8xL4AWLOmG/l8VnUMqkPJVBJ9fetUx4i8i0MjqiNURTmZUtLueIX3GqD4in0BoGkaHnnkAQiepEUhe/jh+5FIcL/2u5manFEdoSocU82//bTHAoAWJ/YFAAB0d3fine98CFrI43FUvx58cBv61vMo3cWwY3o2h6+rud44nAJAixT7ZYBXbdy4Do0NOezZewiTMX3iIPUaG/PY+fB2zj1ZAj+I5x1LkxIqnsV1dnbSItVNAQAA7R2teN/73oOJiWkMD4+iVCrH9umDwmOaJrLZNDo729HR0crhJgIAGL4P1wj/EptmBUCLVFcFwFVtbc1oawt3fS4R1ZekbaOcDH9TnlZTD71Nqk0cFCciqoKcol1IVyfr8rmOloEFABFRFTQU5kJvM6kJrGEBQIvEAoCIqAoyZQtpO9ytee/NJmBwDgotEgsAIqIqWTUa3g6HugAeb+DW57R47CsioprV1t6CtrYm1TFuSwKYlT4mRPUn5u3MpdBi8pmOFo8FABHVrJbWBmzYuFZ1jDtK2x7+ZGQOvpRVa6NB1/BkU7pq70/xxHKRiKiKepIGXmyt3nkkhhDY3ZFHRtHOg1S7+BNDRFRlO3JJPNFY+Sd0XQAfasuhhzP/aRn4U0NEFIL3NGfQaGj41lSpIsMBaV3DR9pzWJ/igVO0PCwAiIhCsjOfQqup4xuTRUy4yz8pYH3KxIttOTQb7MSl5WMBQEQUot6UiV9Y1YT9BQuvzJQx7y/+MKSOhI5nmjPYlE5UMSHVCxYAREQh0wTwcD6FB3MpnLMcnC65GLJdTLjBdcMDSU2gzdSxLmXinkyC2/xSRfGniYhIEV0Am9MJbL7yRC8BWH4ADwKmkEhp7OKn6mEBQEQUEQILk/ve/h1R9bC8JCIiqkMsAIiIiOoQCwAiIqI6xAKAiIioDrEAICIiqkMsAIiIiOoQCwAiIqI6xAKAiIioDrEAICIiqkMsAIiIiOoQtwImIqKqKPgBLlgehm0PU54H58rBhwkNaDUMdCZ09KVN5HQ+i6rAAoCIiCrqXNnBP89a6LdcyNu+ygWwcOJBb8rEY40pbOQxx6FiAUBERBUx4nj47lQJFyx30V8jAVywXFywXKxPmXi2JYPuBG9NYWC/CxERrdiBeRt/ODy3pJv/jS5YLv5weBZ75q0KJqPbYZlFRETLJgF8b6qE1+fKFXm/QALfnCxi0vXxXEuWhyJXEXsAiIho2V6ZqdzN/1o/mrPwykyp4u9Lb2MBQEREy3Ky5OAHM5W/+V/1g5kyjhWdqr1/veMQABHRXbiuB9f1VMeIFFtKfH2yfIdZ/isnAfz9ZBF9KQNpLhWsOBYARES3UC5ZOHduECPDE7BtPoXe6GJXN6z2tqq3YwUBfjhr4b0tmaq3VW9YABAR3WDgwiUcP34OQRCojhJJrmFivLU1tPb2zFt4Z2MKDewFqCh+N4mIrnH+3CCOHj3Dm/8dTDQ3IdDCm5/vSYnDBTu09uoFCwAioitmpudw8sQF1TEib6ahIfQ2T5Y4DFNpHAIgiqjC3Dwmx6cwPTmF4nwR5XIZruNiKbOufN+HXOaT7Oz8LPoHBxf9eiE0mKaObCaDfGMOrS3N6OpqRz6fXVb7Kpw6cQFSVnNaW+0LNIFiJh16u8OOBzesVVEAAAAgAElEQVSQMEPseYg7FgBEEWKVLQyc7cfQwBAK8wW1YXwfvu8v6UssC5ifL2JkdBxnsPAk3dCQQ1/fWmzY2ItMOlWNpBVhOw4mp2ZUx4g8O5ECFGzPE0hg0vPRxW2CK4bfSaIIKBVLOHnkBIYGLi37iT2q5uYKOHjwOI4cPom+DWuxfftWZLPRm9E9Mz3Hp/9FcEx1t405P0CXstbjhwUAkUIyCHDmxBmcPnZ6yU/btcYPApw504/zFy5i+/Yt2HbvZmhadKYhOTbX+S9GmJP/buTGqzZWjgUAkSKlYgl7Xt2Dmalp1VFC5Xs+Dh44jqGhEfzYE4+ojvMWKXl3WQwRqOslMTj+X1EsAIgUmBqfwo9++AacOt5gZmJ8Ct/45j8inUxDE9HpCaA7Mz11PSU5FgAVxQKAKGRjI2N484dvwld4IY0K27Lh2A5ymRxM01QdhxYh5TiAlIAI92YsALSaeqhtxh3LbqIQTU5M481XefO/lpQShdI8vJjPgYgL3feRtq3Q2+1I6EixB6CiWAAQhaRcLuMHL78On4fK3ERKoFCcj90KiLhqmgt/ieqmdCL0NuOOBQBRCKSUePWHe2FZ4T851YogCFAoF1XHoEVonZ6CCHHJpACwI5cMrb16wQKAKARnz/RjZHRcdYzIc10XtsM936Mu5ThonQlv06QduSTaOP5fcZwESFRljuPiwMFjqmPUjFK5DNNMQAt5ktlKPfDAPdDq6LS6LRL4Kxeo9oCWIQTe3Ry9jaPigAUAUZUdP36G58kvgZQBbNtCOhX+fvMr0dndCsOor0vqM3MWvj1V3WGbp5vTaKyjwipM/K4SVZHv+Th9+rzqGDXHsq0lHXpEajzSkMLOfPXOd9iRS+KdDbVVCNYSFgBEVTQwcIlP/8sgpYTj8vtWC15oyWBLuvJ7OGxOJ/Bia+2cJFmLWAAQVdHAwCXVEWoWC4DaoAuBj3Y24N1NlRun35lP4aMdeeg1Ng+k1tTXgBVRiHzPx/DImOoYNcvxHEioOHiWlkoAeLIpjY6Eju9NFTHtLW8/h2ZDw7MtWdyT4Zr/MLAAIKqSqamZ2J/wV1US8D2v7ibW1bJ7MglsTpvYW7Dx+kwZs/7iCoFGXcOjjWk8nE/yqT9E/GQRVcncfBENDXmUyxaCIEDgB5Cc2bYkns8CoNboQuCRfArvyKdw0XJxwfJw2fYw5fmwgwCAQFITaDF0dCcN9KUMrEmZ7OlRgJ8soiqxSjYMzUQ++/YEKSmBIPARBAH8wIcfBAgCH77nI+BxtDcJuDVwzRIA1qZMrE3xkKeoYgFAVCVl6+Yd7YQAdF2Hruswcf2FcaE48OB6Pnzfg+/7Vw7Iqd9eAxYARNXDAoCoSvxFjn9etVAcGNB1A8CVfc8l4AU+fM+F53lwfa+ubor1W/oQVR8LAKIqkZXo0heAoeswdB3JKzXBQs+AB9ddKAriPHTA0wGJqocFAFGNuTqEkEwsVASe78H1XLiOC8/nUcNEtDgsAIhqnKEbMHQD6WQaMgjgeC4c14XrOexDJ6LbYgFAFCNC05BMJJFMJCEh3zpe13U9sBogomuxACCKKQGBhJlAwkxASgnbceC4NjyPwwRExAKAqC4IIZBKJpFKJhEEASzbguPYCCR7BYjqFQsAojqjaRoy6QwyqQwcz4Fl2/A8V3UsIgoZCwCieiXw1hCB53uwbBuuY3OmAFGdYAFARDB0A7mMAZlKw3JsWLYFyeEBolhjAUBEbxGahnQqjVQqBdteKATqaedBonrCAoCIbiIgkEqmkEwmYds2ylaZPQJEMcMCgIhu6/pCwIJlWVw5QBQTLACI6K4WCoE0kok0bKeMctmC5HRBopqmqQ5ARLVDCCCVTKOxoRFJM6k6DhGtAAsAIloyTdOQzWbRkG+EYbAjkagWsQAgqhLfj//seUPX0ZBrQDaThSaqcDkRlX9LIlrAAoCoShzbUR0hNMlEEo2NjUgmUxV9Xy5BJKoeFgBEVeC5HsplW3WMUAkIZNMZNOQaoGt6Rd4zCAJONiSqEhYARFUwOTlTt+vmDcNAY74RqVQKlejD91yeU0BUDSwAiKrg4uCI6ghqCSCTyqAhn4ehr6w3wHLqZyiFKEwsAIgqbGZ6DqOjE6pjRIKhG2jINSKdSi/7PVzXged7FUxFRAALAKKK8n0fhw+fUh0jWgSQTqWRzzVA05Z3ySmWipwLQFRhLACIKiSQEocOnMT8XFF1lEgyr8wNSCQSS/5a3/dRLPH7SlRJLACIKsB1PezfcxTDw+Oqo0SaEAK5TA6ZdHbJ8wMdx0GhWGBPAFGFcAsvohUavjyOE8fPoVy2VEepGalkEoauo1AqLGmtv+M68Oc8pFOZZfUkENHbWAAQLYOUEpcvj+Pc2QF2+S/T1eWC88UCPG/xS/38IEChVIBu65icnMbGjesgBLcMJFoqFgBESxD4AYYujuDcuUGUSnziXykhBBpyeZStMspWeUlf6/s+zpy5gOHhUWy9ZyM2b1oPfYVLDonqCQsAokXwPA8D/Zdx4fwQ7Dra4jcs6VQauqYva7Z/oVDC3j2HcezoGdx77wZs2tQH0+Sljehu+CmhFStbNmam51AqlmGVbfiBD8/zYRgGEgkTmXQKuXwWjY056EZtPaEFQYDBgcs4c2awrvb2VyGRSEDTNcwX5pe1i2K5XMa+fUdx7NhZ3H//FmzatH7Zyw5V8TwP01OzmJ6ZQ7FYgmXZcF0XiYQJXdORzaWRy+XQ2taMbGb5eysQASwAaJmmJmcwfHkco6MTi97zXtM0tDQ3orO7FT09nTATZpVTrszlS2M4dfI8u/pDZOgGGvMNmC8W4Pv+st7Dsiy8+eYhnDhxFg8+eB/WreupcMrKcmwH5y8MYujiCMbGJuAvclJkNpvBmjWrsG5dDzo6WquckuJI6cyZMdtxwSKkZkgpMXRxFBfOX8T8/MomvmmahlU9Hdi0uReZTGVPkFupiclpnDp+HjMz86qj1K1AShSL83C9le8A2NbWjAcfug9dne13fN3gwGUcOXx62e0898LjMIzFX87m54s4fOQE+vuHEKzw6Ojm5kbce88mrO9bwwmRd+FLoBiRo7oFgA3ZlLJ/MBYAtCgT41M4fuws5udLFX1fTRNYvbYbWzb3IpFUu6zLshwcO3oaI8PcxjcKJIBisQDHrczQy7p1PXh41w5k0rcuOMMqAGzLxoFDx3Hu7EDFjztuamrArl33o6uro6LvGycsAK5vXxkWANHn+z6OHz+Hwf7LVW3HNA1s3LwOvb2roWnh/lgGUmKg/xJOn+yHV4EnTqqsYqkI26nM0cqmaeKBB+7Bli0bbnpSrnYBEAQBTp0+j8OHTsBxqnvC4ZYtG7Bz531cFXELLADexpsv3ZZlO9j35pFQusJd18OJYwuFxpatfehedefu2kqZnZ3H0cOn2d0fYdlMFkITsKyVz8VwXRd79hzG2bMDeOcjD6KtvaUCCe9uZGQMe/YcxszMXCjtnTp1DmPjE3jq3Y8hm+VkQbo19gDQLRWLZbzxzwdgKZr53tHRinu2bUAul6nK+/uejxMnzmNw4PKyZpxT+JazV8CdCCGwZXMfHnroPuiGXpUegLm5AvbtPYKhS8Mrjbss2Uwaz773x5DPZ5W0H0XsAXgbb750k3LJwo9eO6js5g8AY2OTmJiYQm/vamzcvK6i67pnpudw8MAJFIuVu5lQ9aVTaQgIlKzKzEORUuLkqXO4PDyKd71rV0Xe8yrHcXHk8EmcPHWu4uP8S1EslfG9772C5557EtlsdYppql3sAaDreJ6P117dv+JZ/pWUSJhX5gf0rGiGcyAlLpy7iNOnLiAI+NRfqyzbQqlc+cmoPT2rUJwvYbmXxedeeBy6ruPChYvYt+9oRYYsKqW5uRHPP//kklYpxBV7AK5vXxkWANFzYP9xXL40pjrGLTU05nDvvRvR2ta05K8tFss4eOAEZqbDGYOl6qr0cMBVhmEgm8lC15Y+ee7Bnfdg/4GjmJ6arXiuSuhbvwbveryyPR21iAXA9e0rwwIgWkZHJrB3z1HVMe6qu7sdW+/dsKj9AwIp0X9+CKdP9S97YxkKkcSir0olq1SVp2wBgXQ6jVQitagsfhCgXC5VbLliNT317kexek236hhKsQB4G2++BGBhC9KjK5gAFabh4XGMjkygu6cDq1d3oqW16aYtX4vFMkZHxtF/4TKP6a0lS7gUZlIZQC4MCVSShESpXIJl20glkgtbFN/w8yUBeJ4L27GvLOmrjSGlH/3oADq72nlWAgFgDwBdcfLEeZw7O6g6xrJomkAmk4Zu6JCBRNmy4VZ5nTVFR7FYhO1WZp+A2xFCg6YJCCz0Ki3MIamNm/6N7rtvCx58cJvqGMqwB+BtvPkSSiULF84PqY6xbEEgUShUdlIY1Y5sNoOgGMB1q1f0SRkgLiNIJ46fwYaN69CQz6mOQorV1lFZVBXHj51VulSJaGUEcpk8DJ3PM4vhBwH274v+XB+qPhYAdW5ichqjI9z7nmqbEEAum6u5439VuXjxMoaHR1XHIMX4aaljUkocP3pWdQyiitA0DflsnqfhLdLevUe4C2adY59ZHRscuIz5uehs+EOVIQSQ1kvIGiUkdQtJzUbKsJHUbAhIGJoHXVw/oO1Dh+cbkBCwgyQsPwnbS8IOkih5GZT8LGrhXqHrOnKZHOaLPNvhbmZm5nDm9AVs3tKnOgopwgKgTrmOi9On+1XHoBVIaA6akzNoTkyhOTmNvDmPnFlEzihAE5Wd0xFIDQU3i4KXx7ybw7TTjGl74ZcTqD3G+UamaSKTTqNU5lbPd3Pw0HH09q5WfhQ3qcECoE6dPtUPx+ZSuVqhiQAtmQLac7PoyM2gJT0HzS1DCyyYKCGB6t7sNBGgITGPhsTNT9ZFN4txqx1jVgfGyu2YslsQKB5dTCXT8HwfjhP9zXlUsm0Hhw6fxK5d96uOQgqwAKhDhUIJg4OXVcegu2hIldDTMIlVjVPoyk/D1G9Yh5YWANILvwIf8GzAsxb+G4S3Zi1rFpE1i+jN9wMAvMDAqNWJoWIPLhV7MOc2hJblulyZLHw/gO97StqvFadPn8OmTb1oalLz70TqcCOgOvTmG4cxPj6lOgbdQlO6iN6WMaxvGUVjagXzM3wHcMuAUwYCtTfAebcBg4XV6C/0YtxqQ5iXnSDwMTs/x8lud7FqVSeefvpdqmOEghsBXd++MiwAwjc6Oom9bx5RHYOu0ZgqYmPbCPpah5FNVGFHO99dKATcYqg9A7dS8HLon+/F+fn1mLJbQmnTcR0UioVQ2qplTz31GFav7lIdo+pYAFzfvjIsAMIVBAFeeXkPikVOjlLN0H30tYxic9sltOVCPKHQswG7CLjqd06csNtwenYTLsz3wQ2qexlY2NufZ0LcST6fxQdefBaaHu/V4SwArm9fGRYA4Tp/bhAnjp9XHaOuNaZK2NoxhA1tw0joCrvmAx9wigu/FPcKuIGJ8/N9ODZ9b/XmC0hgrjAHj/MB7mjnzvtw772bVceoKhYA17evDAuA8DiOg5f/8U24Li+AKrRk5rGt6yL6WkYgRJTGo+XC8IA1DwRqV4VICQyVVuPEzD24XFpV8fcPggCz8zM1sZ+BKqZp4IMffBbpdFp1lKphAXB9+8qwAAjP4UOncHFwWHWMutOZn8EDPefRnZ9WHeXu3NJCIeCrXx46Wu7EgckHMFKu7Ji07dgolrj51Z1s2tSLd77zIdUxqoYFwPXtK8MCIBxzswW8+sN9nAkdouZMATu6L6C3ZUx1lKVzS4A1B0Sgu3zM6sD+iQcrWggUigU4LvcHuB0hBJ5//t1oa2tWHaUqWABc374yv/NPzquGhoymybSpIa1pIqULpA0NKSHArakqRBs5CGHPqI5RF7IJCw+vOYP1LeOo1fPi32IXFgoBqf5iOVBYhz0TD6PgrvwI24WhgFkWxHegZ1uR2/ik6hhVYXsShSKQMsNrU0r4AYQrA3gB4AY+PAnpSgnn3743uT68JNdT+vR9+JJ85PoM/EBWWpc+hvtN3vyrTdd83Ns5hPu7L9y8YU+tSuaARGahCHCKUDl4vi43gDXZizg1uwX7Jx+EGyz/6q1pGjLpDIcC7sAvTuLA8YuY0lerjlJxvgcUQlx4c4UOSP0Wf650vI3d7zGmI8Bmg7P+q62ncRKP9p5ELhHDZWZCA9JNQCILlKaUzg/QRIB7mk5gXW4Ab4w/gsHC2mW/VzKRhOu6HAq4gzXeUczoXQh4m4iteC/4rHO9xiBSogobyxAAIGm4eKz3BJ7dfDCeN/9r6SaQ7wQyTVA8coiMUcJ7uv8JT6/6PrLG8vczyKQz0Hh08G2Zsowuj8eFxxkLgJhKCRu9+pDqGLG1rnkMH97+Oja319mZCokc0NAFGEnVSbAmO4QPrv06NuSX18ulaRrSqUyFU8VLl3caCal+0yiqDhYAMbXZPH/Tme+0cqbu47HeE3hq4xEkDfXL5ZTQdCDXvjA0oLg3IKE7eKLrh3h398tI6kvv7UomkzD0Ww3NEgBo8NHjHVcdg6qEBUAMNWmz6NRqcPlZxLVl5/DBbT+qv6f+20nmgHz7QkGgWG9uAC+u/Xt0ppf+c5/NZKuQKD5a/IvIBxOqY1AVsACIHYktxjnFz2Xxs7n9Ml64Zx9ySZ6jcB09sTA3wFS/c1zOKOD51d/G9pYjWMqKIl03kEyoH9KIKgFgjbe07ynVBhYAMdOjj6BRm1cdIzYMLcCTfUfxWO8J6EL9evhIEhqQbQXS6s+TF5DY2bofT3a/AlNb/BBNJp2BELwc3k4mmEGbP6g6BlUYf+JjRBceNhr9qmPERsa08fzWfVjfOqo6Sm1INgDZNqieFwAA63P9eN+abyJnLu4YYCEEMqlUlVPVth73GDSo3x2SKocFQIxs0AeRFFzXXAlt2Tm8f9setGXD3zGkppkpIN8RiXkBzYkZ/Piab6Ittbjx62QyCT0CuaPKhI1V3inVMaiCWADEREZYWKtfUh0jFnoaJ/H8lv3ImNxDYVmu7hmgq9/NO62X8ULPt7E+17+IV4tYn4JXCZ3eWaTk4npVKPpYAMTEZuMsNI5Rr9iG1mE8vekwjLhs56uK0IBcWyT2C9A1Hz/W9QNsaTx919cmzAQMnTvf3Y5AgNXeUdUxqEJYAMRAqzaDDn1SdYyat63rIp7oO8FCqlKuFgERWCEgBPBoxxvY1nTsrq9Np7k50J00+cNo8LnMOA5YANQ4AYktJrfrXKn7ugawa81pcKlTpQkg0wqYUbipSuxq34udrfvv+CrTMGCaIR4VV4PW+EcgeJpizWMBUOPW6MPICZ5qthL3r+rHw2tYRFWNAJBpXjhZMAK2txzBg60H7viadEp9r0WUpYM5tPsXVMegFWIBUMN0+Ojjsr8V2dY1iId6zqmOEX9CAOmWSAwHAMCOlsPY3nzktn9v6AYMg70Ad9LtnYQOzpWpZSwAatha4zISok73o6+AjW3D2MUn//AIANmWhaWCEbCzbT+2Nd1+n/sMVwTckQkbbewFqGmc7lqjBIAenXvSL9e65jG8q/cEannMf6acxbnJLowVmlB2E9C1AE2pEtY0j6O3eaxikxkDqaF/qgODM22YtbLwAw1p00FnbgYb2obRmFrKaXECyLQAxQnAU79nxa72vSj5aVyYX3/T3y30AhjwPG5+czud3jmM6hsQhc2faOlYANSoZm0GGRHzM+irpC07hyf6jkGI2rz5+4GGNy9uxunxVZDy+gvvdCmHC1MdOJhaj8fXH0dHbnZFbY3ON+Gf++/FnHX90/CclcHofBOOjKzDlvZL2LX2zOK3ShbawsTAwjgQqL65SjzR+SrKXhoj5a6b/jadTGPe49bat5OQJeSDScxrbaqj0DJwCKBGdWrjqiPUpFzCwtObD8HQanOpnx/o+M6ph3BqrOemm/+15qwMvnPyIVycaV92W4PT7fjOqYduuvlfS0qBk2Or8d1TD8IPlrCLnqYvnB8g1D85aiLAU90vozFx866PpmlyX4C7aPbZE7kCSj8AqgsA1eV/zWrVp1VHqDmm5uOZzQeRNtR3PS/X6wNbMFZoXNRrfanhlfPbMGctffb9rJXBKxe2IbhDkXGt0fkmvDGwZWmN6OZCT4D6GgBJ3cbT3f+AhH7zz0YyqX4zoyhrkLW1J0Ck+v0ElO49rbYAkJJ9a8tgwkVG8FjapZF4YsMxNKVrd8nkRLEBZydu7qa+E9fXsW9ow5Lb2je0EZ6/tGvTmYkuTBbzS2vITAHJxRU01daQmMe7u16GuOEWkTSTEJrqZ6XoSgbz0FFDk5EjVAEIxeOQan+qheDm9cuQ02r3JqbK/av6sbaptodNzkyswnIelwdn2mG5i9+X3/ISuDiznDFdcSXjEqXyEdkoCFiVGcaOlkPX/6EAUiZ7AW5HYGFfgFoRRGj0TwipdCKX4h4A3H1fTrpJmpP/lqS7YQoPrjqvOsaKjcw1L+vrpBQYLTQtvp35pjvOL7iT4WVmRKYJ0KIx1r6j5RBWZ4eu+7OFYYAIjFVEVEIuZSWIWn6Eti7QhBxR2r7KxqUQr6psv1aZglMnFitlunii73gU5pqtWMlZ/lNoyV38166oHWeZa/yFtjApMAI3WSGAxzv/GWn97WE2TdOQ4PbAt2XK2plX40VotELTtR8qbV9l437gfxNAhDpkaoPOb9kiSbyr90RsjvX15fI/rp6/+K9d0mz+G792BRmhm0B6iXMIqiSlW3ii61VcO2CcTEZjA6MoEjWyI6AMgCBCUXXp/meV7SstAL7y0+lBQPxAZYZaJCPwlFQLtnZcwpoaH/evO8mGSBwhDACrMpdxT9PJt35vGgZ0Tga8JSlq4/viRKijQjfE1Nc+m92rMoPyfzUNwe+qzlBrXKl05UhNyCUs7OQ2v7Up0xyJ/QEA4OG2/Wgw357glkhEoziJGr8GrkkSgBOh6VO6If+T6gzKC4A//++S35DAG6pz1BJL8iJ0ZxKP9x2HqUWor48WTzOAVDSWBurCw2Mdr+PqUAALgFtztWis4rgT14rOCgBdx9zf/Hzyf1GdQ3kBACEkdPGLQC0tJFWrLHlIyZ1sbh9GV54bJdW0ZA7QF790sZq6MiPY3LjQm6RrGgwjGqsVosQWWdUR7kgGgBWVrVMEoCXwkuoYQBQKAAB/+VOJA1LIz6vOUStKMgMXnJF8K0nD5fG+cRGpoYC9SBsLd5AkewGu48OELXKqY9xRqQjIiGwAZJryb77+c8mvqs4BRKQAAIC//HjyC1LKP1KdoxZIALNBNGZLR83O1WeRMiM004eWTzeBRDSeLBOag4da9i/8bzPBabjXKOgtUdpc7yblUnSW/hmmPPn1z6Y+pDrHVZEpACCEHFmd/CwE/lR1lFow5reqjhA5bbk5bGrjwSSxkmpY2CMgAjY2nEVbahJCCJgGe+CumtGWsftjSMql6Ez8M0ycSbYmd6jOca1ofLKuePkp4X3p44lPCYl/D9TIwlJFxoJ2Lge8wa7VZ6LSY0yVIrTITAgUAnik7U0AEmYiGvMTVJPQMK11q45xEymB0nyEbv4J+b2//Wxi61d2i0h1T0aqAAAACCH/4l8kfwua9m6AWwXfjiNNjPrLP+o1btY2jaMzP6M6BlVDMgtE5Eje9vQYenMDC7sCstjEtN4DT0RrToTnAoU5wI1At7+mw0qmjF/428+m3gshIrIG4W3RKwCu+NLHzVfzxcSDEuIlAKdU54mifn91pMfewqIJyTX/cReRXgAAeLD1IDQhYETk7AJVJIBRY+knTVaL5wLF+YVfqnf70zQ4iZT4o0Im0fzXP6//V7Vpbi/SP8Ff/IxwAfwxgD/+qb9wH5V+8EEIPCmA+wBEe9ppCOaCPMb8dnTq9b3bXV/rCBpTtXMYCS2DmV5YFuir70FtTMyiL38ex+weeOX6PZdjWl+Noljm4U8VIAPADwDPWXjaV3nTFxqk0FDQNXFUB/7o//tsoiYmtEe6ALjWlz5uvg7g9au//6m/kG1C2g0KI0VCUeTWQIx/ExLR34mjCoSQ2N7drzoGhSGVB4qTqlMAAB5oPYyzc+tQisra8tCJkiUyLwghh+7+2srydQivqDUH/tubD5gmoGpltBYYl7/2WXFGTesrUzMFwI2+9HExAWBCdY4IOP8nX/nOr0GI/1t1EBX6Wkb59F8vzPTC0kBf/eBu3pzDxsYB7C+0wY/S+bKhkZ/7wqceekV1ClqZyM4BoMX71E++9/ck8GXVOcIncR+f/utLKjr7X9zXdLxedwX8q8+99NEvqg5BK8cCIAaEEDIX5D4FgTdVZwlTT+MUmtNF1TEoTGZm4ayACGhOTmF9Y311QgrgR6JB+7QQgvOPY4AFQEzs3v1YGZr5HIAfqc4Slns7L6qOQCpEZHdAAHigra4WKO0DtPd9bvfuup35EDcsAGLk0x96asYJxHOQ8tuqs1RbY6qEnsYp1TFIhWQ2MmcErMqOoD0X//uhAL5lprz3fO5nd/NDFyMsAGLmM7ufnc3K2fdD4D8ixrspbu64BHAXhPoktIUJgZEgsb0t9InwYfIB/Pbc0Mn3/6tPfGJOdRiqrGgMplFF7d692wfw7/7bl7/99UDT/hDAdtWZKkkTEhtaR1THIJUSWcCJxuqPrS0X8IPBPviBrjpKpR0V0F763M/urqu5RfWEPQAx9sndz7850Go+JIT8DIDY7Ba0tnkcKUP9hjCkkJEEtGgcyJPSbWxoGlUdo5JmAPlv5hu0nbz5xxt7AGLuN556ygPwxT/88re/qmnar2vAL8oa/3ff0DqsOkKoppHHVNCA6cYGBHJ5NfvxxFqMuVlMSQMNKN9xW/KLRjvO5Ze33E6HxH5vFbr1eXSL+WW9x6Il00BZ/Z4AALCtbQinp6J7Kt4iBQL4c991fvXXfuGnx1SHoeqLxkwaCs2ffPU7WyXE73e+CwEAACAASURBVArgBdVZliNhePjYA69Ai/kqJBc6XvF34HXvPozIloq9ry0lxn0fQ34AV1b349+nT+PDiWP4aPIoEtWYjhJ4wFw0hoICKfBfD74XllebpwQK4GUp8K9/5aWPHVKdhcLDAqBO/clXv/MigP8EiOic5rEIm9sv47HeE6pjVNWloB1/4L4fE7J6B+C4Ejjl+pgOqn9A2VptFr+b/RY26VXYxnd+NBI7AwLAdy48gGMTa1THWKqLEPiffuWlj/2p6iAUPs4BqFOf/snn/s6ZbL0HwL8GUDOze3tbYjXWepOBoAu/6+6u6s0fAEwBbEvoaNWr/wwwGDTik/MfxjGvo/JvnojKagBgS8tl1RGWogCIz8/r5c28+dcv9gAQ/uxr3+52pf4bAvIlAJGdymzqPn7qwR/Etvu/INP4HecTmJXhbXTjAzhoeyjJ6n9PO7QivpL/SzQJq3Jv6rsLvQAREEiB/7L/eThBpKfYSABfNXztV3/pM7sHVYchtdgDQPgXP/H88M/85LOfEYF8RAi8qjrP7fQ0TMb25g8A3/IeCfXmDyxUe+vNcGq+sSCLP7Aeruyb6mZktgbWhMTahkhvDbwXgXz8V372Y7t58yeABQBd41O7n9v3yQ8/+2NCik9CYFp1nhutbor0xXVFbGniNV/Ndg0tmkA6pL7ArzjbYMkK37CNZGXfbwV6G6M3eV7TNGkY5uc/99JH3/ErP/9Tr6nOQ9HBAoCuI4SQn/rIs3+q+fp2CRxQnedaPY3ROAu+Gk7KtXAVjr606uFcCmxp4HWvwhPlIrMrILC+KVoFgK7pJTOTfviXPvUTv8MDfOhGLADolj65++lLbiCeikoR0JgqIW3Gd/Of0aByS/2WIx3i3voXgqbKvqGRiMxspnyijJZ0QXUMAAs3/+ac3PwvP/biftVZKJqiMXhGkfSZ3c/O/uHXvv8hXfoHAVT4qr00XQ3qRiTKbgID0x0YLzbAchOQVVg/f6xlHaDwqPswO9EPTPbiuxXeI2hk6gHYrkDScNGdm8VDHafQmpqpbCOL1JObwlQ5p6TtqzRNk4lE8ulP7v7AJaVBKNJYANAd/exPPD3wx1/93v8sIP8vlTk6c+EXAIEU2D+0ESfGVsMPqttZVsimlBYAYZ6uN++kcXmusj0eJbcEy7YwbycxUezA0dEOrGmaxwc3vApT8yra1t2syk3hyPjaUNu8ka4ZX/nFT3zgDaUhKPI4BEB3lQumvwgJpWutOvLhblXg+jq+c+ohHB1ZW/WbP62coV//LCMBDM7k8UdHnkPZC3eS4Kq82hNzhRCBnvFeUhqCagKvbHRXu3fvdiDw56raTxoucolwz1x/9cK9GJ1XOupBS2AYt55AWXI0/NWp94SapTlZQtqwQ23zWoZh7v3vd++OxkQEijQWALQompT/oKrttmy4T/+XZlsxMF2FXeuoajRNh7jNMMZUycCB8a0hppFoz6jbXFPTjK8ra5xqCgsAWpTACJRtwN+SqfKpcjc4Mbo61PaoMgz99sso94+uDzEJ0B7yz+x1jOD76hqnWsICgBal5KaU7cLTlC6G1paUAsPzapfk0fLo+u3nNM9ZJkI49+gtbSl1PQCm1M8pa5xqCgsAWpSc4Svbbq0xVQqtLcszOemvRul36AGQ/397dx4mV1XmD/x7zl2q9+7sO0kIq+yro6AiDxFEICSEjBBCAoooCeA2o8w4M3GccQZnfJ4xgsjzw2xsj50NRCALiILixiIEEkxIAqSTkKSXdNd2t3PO748mMUC6u6r61j33Vr2f5/HxIVTd89V03/Pec8+iFLq96JZZDNc4AiAcr0lb4yRR6E5HCqIY0zQjTqG5JroRgNjsKEOK1l8BELUhNRrn4NVYiTuTmOhBBQApCPOVlllxdZYHyxCRtVdjejB4dO2R8HDW9+2MMYZmO7qnctsIUGPq2blSymCKloZJ4lABQAoimJ4CoD4V4tGxBWBMYWyT3nXcpDSc8z7Hb5pSAXjEd7vmVHSvrg7HJYt2xiNJLCoASIHUCB2t1tvRFgAAcNLonZG3ScLB+ujlzxy9NeIkQFPEe1ccJJmiVwCkIFQAkIIwQM8IgB39MOroxi5MHqZ140NSIn6EAmBInYczRmgoAFJ6CgAl2WgtDZPEoQKAFEjPCECtpWdHtfMmbcLoRn0HEJHSfLAAqE9JfP74X2vJUqNpN0Cl1HAtDZPEoQKAFIaxYTqaTWmaSGVyic8c/xecOnYHTQpMEHZwFgADJg1J48aT12nblrfW9LW0Cyjaw5oUhE4DJAVhCrVlOAV3QCkz2pPcDseZxJnjtuMjo9rwTtcI7M80Ie/bkCr8urkrNUTvaUsRakg5ZZloyZmCk3JQgx6cO3ozmiKc9X8kNYamVQBK2VoaJolDBQApiGKRHhl/iG3oKwAOqjE9HDdiF44bUb6j1Xv8JmwT1bEF8YSW/fjMmJfLc3E3DeS7y3PtItVaekYAOGBpaZgkDr0CIIXSUgBEfZY7Sbr43NJMTT+7iit6sCMFic9vC4k3TSMAnCkdzZLEis9Ojqaun13JqAAgBaECgBRGaSoAeIQnuJDki9EdTdfPrlI0AkAKE6NfFxJnStMrAINGAEhCGdBUvDLE51AEEmtUAJCCMF1jq1QAkKLE5xUA5/SzS+KNCgBSKC2LqaWMzw2dJICKT6crdP3sKtDGFaQgVACQQukpAMqw5p6QKAilZySeMUZLZ0hB6O5KCqM0FQAxGtIlSUAjAOCKCgBSECoASEEYY1oKACFoPhMpQqxeAei5vTJJIwCkMLRchBREQbo6Jlh5Ii4/ogw5z4YT2GXpYxxux2n+Wlk5gY2ObGNZrm0GAs04UJZrF8uRejbkUwxUAJCCxOXuSmKOgeV1PFu5Qu+upo5vYeO7k7CjcxRyXvlWQu4cMwqokjPcdnSMwmP7zy3LtXP5HDzfxdjGDC466kUMrdG3LbAT6NmSn4PpOYSAJA4VAKQgSql2MA0jAIG+H9Fd3cPwm20nwdNchJDCSSUhpUJbdz2WvfZJnD9hG84ZtUlLlrymAkCB0TnWpCBUAJACsf06WnV8PZ3v7u6heHrraZA6jkAkJTv89YxSwG/fmQLOFM4auTnyLLpGABhj7VoaJolDkwBJQRSwT0e7Wa8m8ja9wMRvtp9MnX8CSfn+JfAKwHPvHItutyHyLDlfy+aZYFy9q6VhkjhUAJCCcK6pAPCjLwBe33sU3ICG/ZNIyg/PVJFK4Vc7z4w8S7dbF3mbAMAV26mlYZI4VACQgjDBtbwCKOfEu77s6BwVeZtk8JQClDry/vtt6eaI0+grACRXO7Q0TBKHCgBSEGUxLSMAabcm0qXdvjDQ4+i5cZPBEbLv1W9+AOSD6IpJBYa0VxtZe4fj3NympWGSOFQAkIIwpbQsrhbSiPQ1gCv0TNwig3ek4f/D9fj1ESUB0l6NtjkkgSfatDRMEocKAFKQTGBo2QkQALrz0d24UwYtoU4qIfrf/6YllY0oCdCeL89GR4VI2aa+zQ9IolABQApSZznatqnpdqIrACxDoKkmF1l7JDxC9H0InmUypHh0NWx7rimytj7IZ2KKtsZJolABQAqihHm8rrY7c9Eu4Zo0dG+k7ZFwCNl3ATCuMdqH4va8vgIAgbxAX+MkSagAIAXhkBfparsjF+1w6kmjdiJl+pG2SQZHQUGII68AYAyYOvGFSPO0R/wzezgl1ZXaGieJQgUAGdC9975gKcWu1dX+gXw9gghPBUyZPj519GtgLD4ny5H+9Q7/H/nv6/wJ29BoRff+3xcmOp3oNx46SAhxzr33PkZLWciAqAAgA7KGdt4IhrG62leKoTMf7Q11bHMnLjzmVVhG38PKJD4C/8MTADlj+MRR0Z8FsCfbAqn03VqFlIZXK+7RFoAkBhUApF/LWp8exxj+U3eOvemWyNuc0NKOGaf8HieO2olak1YHxFlw2AoAgzOMbcph7snPaDkIaFdmWORtflDgu9fdvaT1dN05SLzRZuekT8uXr6sX9exXUCjP2a1FGNfcganH/UVb+0r1bkuc81IIZPivI541T8Nv+WmhX7dQ7UJisx/NaMdsvhHX4bVQr9nR4YBLgWG13RhZ0w6u8dFm1ZaP4e1u/Wc7G4aRblL1U2688VItu3iS+KPTAMkRLV+9bqSQ7Bdx6PwBYF+md1iVsyNP9Co3xoAG20GD7ZTl+mODTqD/ZexlFeUmD5NTHRib6gzvgsLHWBmPlRtCcezORD9adSRCiMYeI7ftJ/c/es4tc6b9VXceEj/0CoB8yJIVG2YIwV4F8FHdWQ7yhYH2rL6Z1eV2rKF387ZuEd2Ex7OtXeFeMNC2R9WH7EoPgS/i81wlRNDoes6mux9Yc6fuLCR+qAAghyxZue6ExSvXPwGmVoEhdifitHXrf7daLmNYB8bpOW8JgQK6+jhEJ2wnGO2YzEPeVdrPh3u9QXirO3a/NpBKccdx/3HR0lWddy97ZKbuPCQ+qAAgePDBXw5ZvHL9jxjYRgZ8VneevrR1jdAdoawuN5/X0u7bQmKAbfRDc2vtH8K9oJKxGgF4q3uk7gh98gN/iBM4KxYtW7Xl3oceO0F3HqIfFQBVbOEzz5hLV637kpey/8qA21TM54R05uuR1XA8cFRO5jvwCfPVSNs8IBR297OFbpiusV/F+ebb4V40iM/qjB6vVusZAAVRgO/7x2bzuU13LVv9CO0XUN2oAKhSi1evu3Bih/+SUuxeAAl5tGZ4pyu+T1hhmGn+BucamyNpq0tKbApEX/vnhOoK+w18s+534V/Yj8+5DVs6tW2VUTSlFHN9b1rOynfdvWzNv+nOQ/SgZYBV5r7WtccYBv8+FK7WnaUUIxu6cemJ0W7rqsPvxMl4PPgYelT4ByEJpbBTKLQFoux9/3Cew601f8CVdjmKGgV07+l9DRADD276JPZmm3XHKIlhGJ0pnpr7lblX/FJ3FhIdKgCqxPLl6+pFLf4BjH0bQILH0RVmnvZ82ZbjxYkHE6+LydgkJ6FDNWF3bjhUiT12jeXCsnJoFwy7hA0fgA0fBj7ceTq+XfKrFsaA8fUdGM97cJ71Nj5pvo0aVqb1jX4eyHaU59pF6nbr8bNXP41k31IZLMt6pdZQl9103VV6l6WQSCT5p5UUQCnFlq18ao5i8k6AjdadJwxnT3gTJ48O+V1yAix/4UJIVdqv7Fnj38QpYwr7/2zjnkl4sa20E2U5U7j+7F+V9N2iZTtj8wrgj3uOwe/aTtQdIxScMWWa1iOjaoPPz5o1Kz6TLEjoaA5ABVu28qlTl67e8AfF1LJK6fwBYOv+saDatcopGZvOH2B4vf0o3SFCI5Vinu9N35PhHXc/+OgM3XlI+VABUIGUUmzxqnXfkZAvxGUnvzB1O3XYm07mu1YSEjcunT+wKzMCB5zw52roFsigwc3nV/142Zq1Smk83YiUDf2lVpi7W59pWLrqqdVMse8BsHTnKZet7cmZcU3KwI/ueN+BbGyfqDtC2SgAnu9e/ONlq3fes3x1ZS/BqUJUAFSQ5cvX1ddx/zFAXak7S7nt6BiFfGDrjkF0CFxA+LpTAAAcUYMtHfHb/S9sfuCP9USw9d5Va8fozkLCQwVAhVj0xBMpWc/WArhAd5YoCMWxZd843TGIDm5ad4JDXu88BoGsjvkogZBNTk9686IHnmjSnYWEgwqACtGYM/+fUjhfd44obd47HkLSj3BVEQHgx2MJaKAMvLL/aN0xIhUI0ayC/Eu6c5Bw0N2zAixZueEmAHN054iaE9jY3lExixtIIbyM7gSHbOs5Bmmn+m6hQeBPuWvZmp/pzkEGr/p+eivMfauengjgh7pz6LLx3YlQJa6NJwkjBeDGowCQ4NjYeSJEROcoxI0vvBvueviR2BwXTkpDBUDCGUreCaiYn0BSPj1OHbZ3Vv4kLALA6dGd4JBtPVPQkU3whpqDJKVi0gse1p2DDA4VAAm2bOWGMwA1S3cO3V7dPZlGASqdFIAXj7X/UnG80nEqvCAeKxF08f1g8k8efDSRZ4qQXlQAJJhk+AZoSzx0O3V4s4NWJ1U0pweRHFtYgC09xyHt18Ov8gIAAHw/+C/dGUjpqABIqMWtT4yAUlR9v+fltqMRCEN3DFIOMojNtr++tPBqxynwfS8u9YhWgfCn/PTBx47VnYOUhgqAhGLcuhIA7YTznpyfwqa9lbMfOzlMvhslH4MYso2dpyAn6uD59PQPAFBAIMUdumOQ0lABkFjqct0J4mbjnonIlXiMLYmpwOk99jcGMn4DXu/+CJQCvIAOyTtIBP6lujOQ0lABkECqd8bbebpzxI0vDfx553G6Y5DQKCB/QHeIQ/7cfjaENOD5Lg3/H0ZIOZIOC0om+ktLoOVrnj4WwFDdOeJoR+dI7OoepjsGCYOb7t35LwZ2Zcfh7UzvoT+eR0//h1NKsbsffOTTunOQ4lEBkEBKKZp0048/vnMchKQJgYkmAsCJx57/vjTx/P6PAQCkFDT7/0iUQZsCJRAVAAmklJqgO0Oc9Th1eGlXde3RXnHyXbGZ+PdS+5nI+vUAAJee/o9MyRN0RyDFowIggRgDncY1gE17j8LedIvuGKQUbqb3yN8Y2JsfhTd6Tjz0z55PBcCRSCXpnpRAVAAkkWKW7ghxpxTwu7dOhE97AySLDACnW3cKAIAnbTz37vmHBiKCIKjavf8HwjgtSU4iKgASSEHFY11UzPU4dfhTRa0KKH1InLHCv1vMZz9skN/NdsZm6P8P+z+KTNBw6J8dLx6jErEkJd2TEogKgARSUB26MyTF1v1jsb2jMg4LSpmlTz6rKeK7g2rHGsQEuXw3IOIxxL6952hs7/nbPBIpJXwqAPrEGNurOwMpHhUACcQUf1t3hiT5/dsnosep0x1j0FpqSt8Ot6UmW5bPhvZd34nNUb8HvBb8fv/fve/PXM+lpf/94Jxv1p2BFI8KgAQSSryqO0OS+MLA01tPS/x8gKOG7i/pe/W2i2H1hR+lO7y+G3VWaU+7R7WUkFEEQK6zpPbC5ksTz+y5AL782zQbBcB16em/P5LZv9CdgRSPCoAE+uKsSzoBbNedI0m6nTo8t+MkJPnwxOOG70a9XXxHdNrY7WBF/M9mDDh17FtFt1NnuzhmxO7ivqQUkOsAlCy6vfAx/Hbv+ej2mt/3p77nQcYiXzwZjPsLZn+ORiUTiAqAhGJQ63RnSJp3ukbglT0TdccomcEFPnn0a+BFTNIb19yBY4fvKbqt40e0YUJLe8Gf50zik0e/DpMX2VHmOgERj411Xu447dBuf4dzXJrf1h/DMt/QnYGUhgqAhFLcoCG3ErzcdjS2dYzWHaNkoxoP4IJjNsI0Bl6ONqGlHRccs7GkWf2MAZ+c8lpBRYBlCFww5TWMbuwqrpF8d2wO+tmenoxXOk/90J/7vo+Alv71ywB7WHcGUppkvxStYmecePT2lpETbgDQPOCHyWEY2g6MwKjGA2hIObrDlKS5JofJQ/fBCWyknTqoD7zWaKrJ4ZwJW3HW+Ddh8NKnrhlMYfLQvWiwXXQ79XAD6wP/XmLy0L244JjXMLKhyLX7XjY26/3fzY3Gr9+9AOoIz0O5fBZS0vB/XzjjYnS9vGzFihVUJSVQcl+IEixdueGfFdR/6M6RRCnTxyXHv4QhdfGYeV4qXxrYn2lG3kvBMgI01eTQUlv6LP7+HMjXo8epgy9M1NouRjR0w+Il3Pf9/Hvv/cPPWKxOdwjWtl0CT354H5sgCNCTKXzyZDWyLHv9bXNnXKw7BymNqTsAKV1Wmj+q4/7tAEbozpI0bmBh3V/PwGdPfBHNg1hep5vFBcY2RTODvqU2O/jiInCAbDy2sejxm7Bh99Qjdv4A4DjxeD0RV4wxlWqom6c7BykdzQFIsPmzPp1Riv1Ad46kcgIbG/56BrJeSneU6hC4sen8M0ED1rVdjHxQe8R/L4SAR6f+9Stl2b+8+apLip9hSmKDCoCEa1BdiwBs0Z0jqTJeDZ7cfBbS7pE7AhKSg51/DLb57e38P4Ns0PfmUDl6+u+Xwbifaeazdecgg0MFQMLNmjXLYwz/oDtHkmW8Wqx74wwqAsrlUOevfzJdxm/A2raLkfYb+/xMEATw6dS/ftmWdee3pk1L685BBocmAVaIJSvWPQnGLtGdI8nqbRdTj3u5bJPoqpLvvDfhT/+Tf5c7BOt3T+1z2P+gnkwPgiCIKFXymIbZefsNM4fpzkEGj0YAKoRh8K8DoJeWg5D1UnjijbOxN92iO0plcHOx6fz3OSOxdlff7/wP8nyPOv/+MICnjC/ojkHCQQVAhbh+xtTNCrhHd46k8wIT67ecjp0HaGHFoDhpIB+Po313ZCZh3a7PwBUDT/bM5+ndf39sw/7LrddOf0R3DhIOKgAqSMr1FjKGwvdvJUckpIGnt56Cv+w+euAPkw9Qvdv7xmSTn80HTsSz734KQg6855njuhCS9rPpC2NMccO4WncOEh4qACrI7NmXdSmp/k13jsrA8Jddk/HbHR+BUPRrUhAlgPR+wNO/r4JQJp5793z8cf+5BQ1CKCja838AlmX9fP6caW/qzkHCQ3e2ClOvuu8FFB0XHJI328fgyTfOQsajFQL9Eh6Q3tf735ql/UY8vvOz2JaeUvB38vk8bfnbD4MbbocYcoPuHCRctAqgAi1eve5CJtnTunNUEtsIcN7kzZg4ZJ/uKPHjZADngO4UAIC23Hg89+75Bb3vPygQAXrStOVvf2rt1D/dcv30/9Kdg4SLCoAKtXjF+tWMYbruHJVF4eTR7+CM8dthMHpahBRA/kAsTvQT0sALHWdh84ETUOxtrSfdg0DQzP++WKa1+7Z5V43TnYOEj14BVCrOvwkgmcfdxRbDa+9OxGOvn4vOXN8byVQF3wEy+2LR+R/wWvB42+ew+cCJKLbzdz2XOv9+MADcYPN05yDlQSMAFWzpivXfVwx36M5RiQwmcfq47Thp9DvgTP9St8goCeR7AE//KYpScbzWdTJe6Tq1oFn+H6SUwoGebqgY7FAYV7Zl//7WuTM+rjsHKQ8aAahgWWV9Hwq7deeoREJxvNh2DB7bdA7aM02640TDd3on+sWg8+90h+HxtkvxUscZJXX+AJDNZ6nz7wdjTDbVBrTsr4LRCECFW7Jq/TwoLNGdo5IxpnDiyJ04fdwO2EYFDifH6F2/J2y83HE63ug+AWoQty/P85DJ6S9k4ixl2fctmDvjJt05SPlQAVDhlFJs6eoNf4DCubqzVLqU6eP0sTtwwsg2sEp4LaAU4KZ7/6N5Rz+lgO2ZKfjz/rPhiJpBXkuiO91Dy/76YRhG7sDbrzcvXLiwAitachAVAFVgyaoNfwelngf9fUdiaF0aZ43fhnHNHbqjlEYpwM8BTk/v079mu7Lj8ELHWehyh4RyvUwuA8/Tv19BnNk1dfNvve6Kn+jOQcqLOoQqsXTl+vsVcJ3uHNVkREM3zhq/DaMbu3RHKdzBjj8GM+P3OSPxUvsZeDc/OrRr0tD/wEzT2n77vKsK30WJJJapOwCJBpPGt8HFlQpo0J2lWuzPNGPtG2diVOMBnDz6bUxo6QAQ01cDXq53qF/oP1Byd24MXu08NdSOHwCkFMjm6ajngdSZ1mzdGUg0aASgiixete47TLHv6c5RrYbWpXHymHcwacjeeCwdVBLwsoCbBaTeJ36pOHZkJuH1rpPRGdJQ//sp9KTTtOZ/ALaVeurWudOn6s5BokEjAFWE9dj/i0b/CwAm6c5SjTpzjXh220n4s3ksjhmxByeMbEO9rWGvJuH3dvxerrcI0Cgb1GNrz7HY2n0sskFd2drJ5R3q/AfAGRe2ZV6jOweJDo0AVJklK9ZfDYZW3TkIwJnCuOYOTBm2BxNa2mHwMnbGSvZ2+F5O+4E9QnHsyo3Hlu5jsSs7blDL+Qrh+x7SWXrvP5CUnfrhguunf1N3DhIdKgCq0JKV658BcIHuHORvbMPHpKH7MHHIfoxp6gznFYGSvZv3+Hnta/il4tiTG4MdmUl4J3MUPGlH1K5EDy35G5BpGN23zZs5hFXE+lVSKHoFUIUkl1/lkr8IoLQt1EjoPGFhy/5x2LJ/HGzDx4SWDoxvbseYpi7UWEU8scsACNz3On29R0E4oga7s2PRlh+HXdlxRZ3QFwYFhUwmTZ1/ASxuL6DOv/rQCECVWrJq/U+hcLPuHKR/jPVOHhzb1IFRjd0YUd+NlHnYTH0pAOECvgcEjtbJfK5IYZ8zAvuckdiTHYMOb7jW/YOyuSxcz9UXICFM09x0+7yZJ+nOQaJHIwBVSongXxg3/x5Ai+4spG9KAR3ZRnRkG7FxDwAotNTmMLzuAEZauzHU3o9GK4sUj7ajc0QNutwh6PKGoMsdgv3OcBzwmhGXZwrHdajzLwBjXNk1/O915yB6xOO3lWixZOX6rwP4oe4cZPBqzTyarB40mBk0WFk0WGnUmXmkDBc13EHKcGHxwtb4+9KEK2rgiBq4IoWcqEXGb0Q6aEDGa0CP3zTo7XjLyQ98pLPp2G65ECeWZT9629wZV+rOQfSgEYAq9vYwa9HEDv9GADT8l3D5oBb5oBZ7Marfz9ncAxhgMAGT9b4uCJQJoXqng3gimsl55SKlRCabpc6/AIxzL+VY1+rOQfShEYAqt2T1uqmQbL3uHIQMllISPZk0hNB/fkES1KRS/zp/znTaGKyKUQFAsGTl+scBXKo7ByGlUlBI005/BbNMa99t867qf7iIVDyuOwDRT0h5OwA6Ho0kVjabpc6/YAyGYc7VnYLoRwUAwRdnXfImA7tbd45BUADeAsOLADYB0LvrDYlUNpeF55e/fjW44RqGkePMSHSlYdvWS/PnTFurOwfRjyYBEgCAMsx/h/BnAxipO0uBJKDWAHggJ+2n5s/69KG9XpVSbPGadacakk9TwJcBjNEXk5RTzsmVbbkfXidrCwAACpZJREFUY0xapvlrwzR/+pVrr1jFGDu0o9C9q9aOEU7u9sBXc/zAH1uWAGXAOZfMSM3QnYPEA80BIIcsWbHu82DsYd05BqTUWsbUN+fNvOT1gT666IknUo1Z4w4wdgeAZE9xJ+/jOA5yTi78CzPAtlK/Vjw17bbrLu0Z6ON3LVs9LVDqPhH4w8MPE66aVOpH8+dM/6ruHCQeqAAg77N4xfrVjGG67hx92MIY+/q8q6Y+XuwXl6186lQJ+QCAU8qQi0TMcR3k8uF3/gbnjmXYc+bPvXJlsd/98f1rFgZBcIcU8VxLaZrmrtvnzRyvOweJD5oDQN5H2fm56H2PHhsMyECp76brglNL6fwBYO7Mi171OoaeBaW+C4DWiSVYuTp/y7Jf4XbDqFI6fwC4dc70hXVezRDbstfEbV99zrkXSPNjunOQeKERAPIhy1Y/dZyU4jcAG605igTUzwyO71w/4+J9YV10cev6TzGOZQAmhnVNEg3XdZHNZ0O9JmM8sGtqv7Fg9uWLwrrmTx945CNeEKzyg+CEsK5ZKsaYtG3rkgVzZmzQnYXECxUA5IiWrlx7kgL/FfRNCnyWg3117sypL5fj4ve2bmi2ufo/AHNBvweJkHcc5EN+529b1pamWnHh3FmzdoV64ffcff+aa4IguCcQorkc1x8IY0zW2zVX3DxnWkkjZ6Sy0Y2P9Gl567rJgrPHEOFWwQxog2L/PHfmRfdHMYy6ZMXaT4Dxe0DbIcea4+aRy4e3utNg3LdSqe/Mv27aD0K7aD9+snzN91zf/7ZUMrKVVyY3HIPbFy+YN+3ZqNokyUIFAOnXAw880eTXmHcBmFPmprJQuLNeNfzvrFkfj3Qdf2trq50xmv+RKfZPAGqjbJsMLJvPwXWd0K5n29YGXiNmzJ81KzPwp8NzX+vaofl8doXvBxeqMh9WYJrWtprG+k/cfNUle8raEEk0KgBIQRav2DCNMflDgE0J+dKSAQ/5LLjjpqsubQv52kVZuubpKSoI7gJjl+jMQd6jejf5cf1w1vmbhrnfStlX33LtFb8J5YIl+r8HVp3Dhfq57weTw74259xPmdadt1w//V/CvjapPFQAkIK1trbaGT7kSwzyq4MtBBgQKIY1TMnvFrKeP0pLVq67HGD/DeAjurNUKwWFTDYD3y/sCOP+cG64lmndueD6K/8thGih+fFDa65UvvyxH/jjBzsgYDDuW6a12nTMG2+++fIybI5AKhEVAKRoCxcu5JNP+tjFirOrlcIVAIYV+FUB4M8Ae9RkYtmcGA9Ptra2GjmjeZ5S7LsAxunOU02klEhn0hBycKs1Dc6FaVjLRtb6X5k1a1Zsz7pY9PCjZ8AT/62E+HggRUOh3+OMSdM032TcWta+7aUfLFy4MNFbFJPoUQFABmXhwoX86FPPO14odTakmgLGJoGhDgCglM/AOsHwlmLqVTvvvzB79mVdehMXp7X1+dosz94OqG8BaNGdp9IJESCdzUBKOfCH+8AYU7ZlP1lTUzvni7Mu6QwxXtktWrpmCjfUTKVwvlLqKKXQBCgTABiYwxh2Mc7esGA89qXrrnjy8O2JCSkWFQCEFGDZ6qeGCSlvY8ACAEN156lEvu8hk82i1AlyjDFlmeazSvEv3DZv+raQ4xFScagAIKQId7c+01DH/S8w4JsKoG1VQzKYZX7vHdrznCeMOd+48cqdIUcjpGJRAUBICVpbW+0cG/J5xdQdALTv9pZUCgrZbGnH+XLGA9M0Hwsku/FrN0w/UIZ4hFQ0KgAIGYTW1lYja7TMgcR/giExx8LGgRACmVwGQhQ32Y8zLkzbWjoq5d8S58l9hMQdFQCEhODeh54Zblv+Q2CYqjtLEnieh0w+g2Jf95uW0W6g7rwFcz+3pTzJCKkeVAAQEpLW1lY7y1tWArhcd5a4UlDI5XJwveI39zFN812zTh4b9Q5+hFQqKgAICdF7kwT/CNpE6EMCIZDJpkta4scNw6trapxEW9sSEh6uOwAhlWT+rE9nuORfRNGD2xVM9c7y70n3lLy+37RSX6POn5Bw0QgAIWWwZOX6tQAu1p1DNyEEsrksAlH6JnWmYey//YardR1LTUjFohEAQspAMXWf7gx6KeSd3qf+wXT+AGCa1rKQQhFCDhPZ2dSEVBPG7acgfIkqLLJ7n/ozCIpc3tcXx8eiUC5ECHkfegVASJksWbl+O4DQj3yNLQXknBwczwltBoTBuf/VG2fZ4VyNEHI4GgEgpHz2oUoKAM/zkHNygzrE50gYWPHrBQkhBaECgJByYXAqfS2AEAK5fBZ+UKaTaBmjI24JKRMqAAghRVOqd5Kf4zq6oxBCSkQFACGkYAoKrusg7zhQqsKHNwipcFQAEEIGpAC4rgvHyUOqcN/zE0L0oAKAENIPBdfzkHfyoU/wI4ToRQUAIeRDeof6XTiuCynDWc9PCIkXKgAIIYcoJeG4LhyX3vETUumoACCEQAgB13ND3cSHEBJvVAAQUsV830fedRAEvu4ohJCIUQFASJWRUsL1XLiuSzP6CaliVAAQUgWUUvACD57nwQ98GuYnhFABQEjFUoAf+PB8D67vUqdPCHkfKgAIqSBKqUOdvu/7NJOfENInKgAISTghJfz3OvzeQ3mo0yeEDIwKAEISRiqJwA/gBz4CEUAI2qiHEFI8KgAIKRcJD2zwlxFCIBABgqC306+qLXm5ouOACSkTKgAIKRfGssUMxysAUgqI4G8dvhACqoqH9Bk4nTdMSJlQAUBImTCotg933QpSKkglIYSAEBJCBpBCQihBr+8/gDHWpTsDIZWKCgBCyiTver6QAaQUkFJCvdfxk8Ixxv+qOwMhlYoKAELKRAlvm+t5umMkm1K/0x2BkErFdQcgpFIxYEUYkwCrmS+wVHcGQioVFQCElMlXrp+xzzSNdt05ksowrfav3TD9gO4chFQqKgAIKSODG4/rzpBUpmGu1p2BkEpGBQAhZZQymr7FOaO5/UXinKmUUf+vunMQUsmoACCkjG669qK9pmn+SXeOpDEN8/mbrr1or+4chFQyKgAIKTPLsOcwxmkUoECcc2WZ9g26cxBS6agAIKTMvjz78q2WydfozpEUpmn+/MuzL9+qOwchlY4KAEIiMKpWXmMYZlp3jrgzDaO7Y/urc3TnIKQa0CplQiJy18OPfNTPuc9LpajwPgLOuTRqU2ffds20l3VnIaQa0I2IkIgsuObKP1op6yZGdfcRpezUfOr8CYkOFQCERGjBdTMW23bq36kI+BsGhhortfCW66b9VHcWQqoJ3YUI0WDR8jXfEIH3P1Kqqv4dZIypGsu69ZbrZ9ytOwsh1aaqbz6E6HTX/aunBn7wCyFlje4sOhjcyFkp+7L5s6c9ozsLIdWICgBCNFr0wBNNXOSfdP3g40CVbBXAANtKPad46rLbrru0R3ccQqoVFQCExMBd96+eGgTyZ0IEE3RnKSfTtN4yDPalBXNmbNCdhZBqRwUAITHyk4d+8SkZBP/jBcEZSkpTd54wMM4D2zD+xEzzOzTcT0h8UAFASAwppfg9Dz76eSHkTAV5ppRquFKqVknFVUxfFTDOFBQU4yxvMmMvGHuFm8YDt1x7xSOMMak7HyHk/f4/ZDhfkmd9ANgAAAAASUVORK5CYII=;" vertex="1" parent="1">
          <mxGeometry x="438" y="165" width="50" height="50" as="geometry" />
        </mxCell>
        <mxCell id="bjE_prnjRbW4GjXfM1Jb-15" value="" style="endArrow=classic;html=1;rounded=0;" edge="1" parent="1">
          <mxGeometry relative="1" as="geometry">
            <mxPoint x="345" y="190.5" as="sourcePoint" />
            <mxPoint x="420" y="190.5" as="targetPoint" />
          </mxGeometry>
        </mxCell>
        <mxCell id="bjE_prnjRbW4GjXfM1Jb-18" value="" style="group" vertex="1" connectable="0" parent="1">
          <mxGeometry x="710" y="155" width="70" height="70" as="geometry" />
        </mxCell>
        <mxCell id="bjE_prnjRbW4GjXfM1Jb-9" value="" style="shape=image;verticalLabelPosition=bottom;labelBackgroundColor=default;verticalAlign=top;aspect=fixed;imageAspect=0;image=data:image/png,iVBORw0KGgoAAAANSUhEUgAAAgAAAAIACAYAAAD0eNT6AAAACXBIWXMAAA7DAAAOwwHHb6hkAAAAGXRFWHRTb2Z0d2FyZQB3d3cuaW5rc2NhcGUub3Jnm+48GgAAIABJREFUeJzs3XeUZOl93vfve0Olzj15djbMRu4uNiGSAEECCwIgJVIidSQSkGnJFC3CYFAmaYmyD6Rj0D60TVGkJBKW5WM5CNTSlggsKCMtEbhIswEbsHl2Z3dy5+6Kt254X/9RPbMzsz073dNVdau6ns85c6anumvqNzXd933uGw0ikrsHHl2eChMzY0I3gXUTvmXcGqY8mHIe484x4Rk37pyZBhcaw7hz+AYmHXgYpnAYMNOdv9FNYzBveCFHARi7TBkNDPEGz3FgVgEwbmX9sTUD1kHVGDLnqINJjHGr1pm6MdSw1BxUPccahlrmm7pLTC0J3cpPv312rRvvm4hcvTdeIERkWz71qAsPxkt7XcBBg9vvnLfXGLfHYXaB22Vgl3NuFs/swrEL2AX4edfdZymwjGEJ65bALGFYBrOEc4tgFo2x8w5z1qScPl3YNf+xt5sk76JFdhIFAJEt+A/fqe7yveg6MNd6ztyA4RoL+w3sx3EQ2Lv+S7pv3sCchdMY5gycwXLKee61wLnjflo8/qPvnlrOu0iRYaEAIHKBz39zbTYJk5ux7maHOYwx14G9Dsx1wPVcvvtcBkMDeA3cazjvOLgT4F4xnnk5TMKjCggir1MAkJHz+W+uzSZ+ehu4WzDuZue8mzHuZuAmYDbv+qSnloGjnV/uKMYcNdYcDbPgBYUDGTUKALJjfe7PVmcIkxudMXc6jztw3AnmDnA35l2bDCDDCs49C94zDp51xj0TkL3y4+/Y90repYn0ggKADL0HnnGFcmvxLdZ59xrcvTjuAvcWMLvzrk12ArcI5nvAU86YJz1jn2iVd3/vp+80b1wxITJEFABkqPzH765M+3H2VoO513ruHoO71zhzu4Mw79pkdBhIHO5ZZ8yTBvOEy+wTthh896fum1nNuzaRzVIAkIH1la+4oDa2fJtx7m3OmPeA+0Hg+wAv79pENmLgDIaHrTPf8Dzz2Hht7dH3v/9wlHddIhtRAJCB8cdHlq71nX2vM+ZdwDuB+4BizmWJbEcEfNfAEefcdwLn/dmf+/5dJ/MuSgQUACRHn3tk7kZn/R+84O7+jrxrEum1C3sJfGsf/vPv2v24McblXZeMHgUA6QvnnPnMYytv8Zz7gHPuhwz8ILAn77pEBsA88LDDfN035qEff8fs9/IuSEaDAoD0zGe+PbcPE/yQMfwIuB8Drs27JpEhMG8MX3O4Lxvjf/4n3j57PO+CZGdSAJCueeCbJ8pFv3S/MeZDwI+gLn2RbnjWwJcw9outpP2Vn373ta28C5KdQQFAtuUz357b5xn/w3j8uHP8KDCRd00iO1irFtnvVdv2RT90//wX3nfgkbwLkuGlACBb8gnnvLcdWX6Xw/04xv15MPfkXZPIqIkzx9lqQj22USkw3y365t/u+uCB//Wnjcnyrk2GhwKAXNEnnPPe9tjKu521fwX4y8DBvGsSEai3LadWE1qJJfSxlaL/Ytn3/m8X2d/+2E8cbOZdnww2BQDZ0AMPOL9848oPrDf6Pw3sz7smEXkjByzVU06vJdj1xYS+Ma5S9I4VQ+/f+TP7/vuPvd0oDMgbKADIeZ9wznvrI4vvBX4WzF9CJ+OJDI126ji1mlCNLh4FCD1jKyX/2ZLHH/zCB/f/vjHG5lSiDBgFAOFz31q8PfPcz3jG/KzrHIkrIkNquZlycjXF2jfuLVQIvLQSmieKvv2tj33o0B/lUJ4MEAWAEfWZb8/tM37wV3HuZ4G35l2PiHRPnDqOr8TU25e/2S8EJhoLzJcrpcI/+Pn797zQx/JkQCgAjJBPOOfd++jS/T78gnP8RaCQd00i0jsL63MD3JtsNGwMjBe918YK5lO3+Af+x/e/36T9q1DypAAwAv7kyPz+zHl/3Rj+prr4RUZLlFpeW+qsFLiSQmDSSuh9J3DeP/jFP7f/230oT3KkALCDPfjIwvucM79s4C84CPOuR0TyYS2cXI1Zbm5umwADjBXNqbGC+R8+9sFr/kVvq5O8KADsMA884wrF+vJf9HB/3xnelXc9IjI4lhoZJ1fjNx0SuFQx9JrjBf4w8KK/97EP3rTWu+qk3xQAdojPfHtunzH+f4HhV4Br8q5HRAZTI7a8uhSTZFs7gTjwjB0vet+aCLyP/9wH9z/do/KkjxQAhtyD356/BeP9187ws2hSn4hsQpw6Xl1q00y2FgLg/KTBF8ICv/LLP3LNl3pQnvSJAsCQ+twjy2+x1v4aho8CQd71iMhwsQ5eXY6ptq7++IDJkneqUjJ/+xfuP/j/drE06RMFgCHzJ0fm77XG+0fO8ZfR/5+IbNOJlZilxjbOEDIwFnpzY8Xg1/6rD+77P7pXmfSaGpAh8ZlH5u8zznwSzI/lXYuI7Cxnqylnq8m2/56xojdfCrO/80sfuu7TXShLekwBYMD9x2+t3OD79h+C+3nAz7seEdmZ5mudTYO6YbzonSwV+blf/JFrvtyVv1B6QgFgQP2nx8/sSbPw7+P4O0Ax73pEZOfrZgjAGCYL3nNTBe9ntGpgMCkADJgHvnmiXPRLv26M+TWgnHc9IjJazlRT5rowHHCO7xk3WfK+PN5q//TP/dTh1a79xbJtCgAD5MEjCz/h4J+DOZx3LSIyuk6tJSzUunskQCHw0smC96mPf3j/rxhjtr7+ULpOAWAAfOaRhduM43fA/GjetYiIsL5EcHUbSwQvpxJ6q5NF/vovfOiaz3b9L5ctUQDI0YOPnq5gi//U4f42WssvIgPEOXhpoU0zvvIhQltmDFNl7zuTxfaP/tz7NSyQFwWAnHzuO/Pvtcb718BtedciIrKR1MKLcxHxFrcN3qxi6MWTBf9XP/7h/b/bkxeQN6UA0GcPPLo8VbL2nwK/DHh51yMi8maaseWlhRi3lROEtmii6L1U8rwPffzHDrzasxeRN1AD1EeffWT5x0rWPgv8LfTei8gQqBQ8Dkz2doSy1ra3rLazo7//xTN/v6cvJBdRD0AffOpRF+7PFn/DGPPfoIZfRIbQK0ttqq0ezAe4xHTZf6S458D7PvZ20+z5i404BYAe68zwN58G7su7FhGRq5Vkjufn2mS29yv4SqHXGC/zk9pJsLd0N9pDn3lk6W8YZx5Djb+IDLnQNxycCvvyWlFix1bq7ov/8gtn/6AvLzii1APQA1/5igtq40u/jeNX8q5FRKSbXlpo02j3fijgnKmS/+yM773zr314f6NvLzoiFAC67MFHq7udjf8IeF/etYiIdFszcbw4H0Ef9/Irh151V9n7gb/xIwee7d+r7nwaAuiiPzkyf6/L4kdR4y8iO1QlNMyU+3swaSuxk/NN++Snvnjyr/T1hXc4BYAuefA7iz+Z4X0Tw/V51yIi0ksHpgIw/e1AjlMbLDX593/wxTP/bV9feAdTAOiCzz6y+J87wx+h0/tEZAQUfI+Zcv+bj9Q6s1BP/8nvfeHMv+37i+9ACgDb9OCRxb+F439He/mLyAjZO5HPJc8BK430r/3e5898JpcCdhAFgG148Mjib3aO79X7KCKjpRx6jBfzu/StNNO/8K++cPpLuRWwA6jhukrrjf8/zLsOEZG87BrLt+NzsZH9yO9+4fRXcy1iiCkAXIXPPrL0d9X4i8iomyr7eDkvJl9tZD/8zz9/+ov5VjGcFAC26MFHFn8J53477zpERPLmGZgs9XdJ4EbWmtkHf+/zp/4w7zqGjQLAFjx4ZOE/c47fy7sOEZFBMQgBAGClaX/mD7505rfyrmOYKABs0oOPLrzVYf412j1RROS8idLgNCOL9fRX/+CLZz+adx3DYnD+5wbYnxyZ32+t+Qxa5y8icpHQNxSDwbgvsg5WWun/+amHTr8171qGgQLAFXzqURem+A8YOJR3LSIig6hSGJymJMmcX23Yr/2bh5+fyLuWQTc4/2sD6mC29NsG99686xARGVSlAekBOKeVuvFGbfKredcx6BQA3sSDRxY/4Ay/lHcdIiKDrBgOXlOy2sre+i8+f+bX865jkA1WbBsgDzy6PFWy9ingurxrEREZZM14/YjgARN6Jpssm8O/9OFrTuRdyyAavNg2IIrO/i5q/EVErijwXd4lbCixzo8zvpx3HYNKAWADnzky/0PG8dfyrkNEZBj4fT4aeCtqkb31U188o6HcDSgAXMI5Zwze/5R3HSIiwyLv7YCvZDXKfuuBB9xg7Fg0QBQALvG5I4sfBd6Rdx0iIsPCDfh0snbqKmcnz2gX10soAFzgP730UtEZ/ru86xARGSbWDuYcgAs12vZv/suvzI/nXccgUQC4QLYy+1fBHM67DhGRYZLavCu4siRzgWun/yzvOgaJAsAFHO4X865BRGTYWDf4PQAA9dj+rHNusMcr+kgBYN3nvjP/XuDtedchIjJs4mw4AkCcutK/+uLZj+ddx6BQAFhnjfnlvGsQERlGUTIcAQCgnblfy7uGQaEAADz46OkKmB/Puw4RkWHUSoZgEsC6Zju7/ve/cHZv3nUMAgUAgKzwYaCSdxkiIsOoFQ9PD4B1kNnsH+RdxyBQAACc4SfyrkFEZBilmSPOhqcHACDO+Km8axgEIx8APuGcB/y5vOsQERlGa63havwBotTd6DrX/pE28m/A276zcBOwL+86RESG0VqU5l3ClqXWeb//0On7864jbyMfAJzv3513DSIiw8g6qLeHrwcAIE3Nj+VdQ95GPgDgrAKAiMhVWGtlDMEuwBuylnflXUPeRj4AOMxdedcgIjKMFurD1/1/TmbdyG/7PvIBwMC1edcgIjJsmomlGQ9n9z9A5txU3jXkbeQDADDy3wQiIlu1UBveu3+A1FLMu4a8KQAoAIiIbEmcOlaHcPnfhazDz7uGvCkAKACIiGzJ6bUENyQnAF6OdYz8qYAjHwAydQOJiGxaM7astrK8y9g2w3AHmG4Y+QAwbFtYiojk6dRakncJXeGbke8AUACIU6VAEZHNWGxkNIZ0459LeWr/FQCSTAFARORK4sxyejXOu4yucQoACgA7Jc2KiPSMg+PLydDu+rcRs4P+LVdr5APASmO417KKiPTafCMZ2j3/L6ed7qx/z9VQAGgO/2xWEZFeabQtZ9Z23nWy3t55/6atCvIuIG/LjZ0xo1VEpNvi1HFsqc2QL/nf0FJNAWDkewDqkaWVqCtIRORC1sGx5TY7sac88AzVpoZ/Rz4AOODkys6Z2Soism0Oji/HtOIdeOsP4Bw7MNds2cgHAIATywoAIiLnnFiLd8Ruf5ezrMnfgAIAAKdWYtKdtL5FROQqnV5NWKrv3MbfM3B8qZ13GQNBAQDILJxY0mRAERltZ6sJ8/WdfXfsG7Mj5zVcDQWAdc+eaeVdgohIbuaqCWerO7vxB3bUbobbpQCwbqGWsLjDk6+IyEZOrSWcGYHGv+AbTmnS93kKABd47kyUdwkiIn3jgBMrCQu1nd/4A6xp6d9FFAAucGyxTS3S4JCI7HzWwrHFmKURmREf+oajC5r8dyEFgAtY63j8tUbeZYiI9FSSOY4uRlSjnTvb/1IrjZRMp79eRAHgEq8utpmvakWAiOxMjbblhbmI5k7d5GcDYWB4ZU5DvJdSALiEAx55tcno/GiIyKhYamS8tBiP3DK4MyuJdv7bgALABhZqCUfnlRZFZGfInOO15ZgTKzE78mSfN+EbOLmssf+NKABcxndeaWhCoIgMvWZseXGuPZJHnwee4ZlT2uPlchQALiPNHA+/VENjASIyrBbrKS8txLTTEbyQGZivxkQ67fWyFADexFw14TntECgiQybOLEcX2pxcTXAj1uV/jgccX9KmP28myLuAQXfk1SYzYwH7p8K8SxERuaKlRsap1ZhRPt+s4MNjrzXzLmPgqQfgCpxzfO2FGo22upFEZHDFqePoQpsTK6Pd+Ic+PHOqpTX/m6AAsAmtxPLQ82s6MlhEBo5zjvlayvNzEfURv1HxDJxcSnTDtkkKAJu0XM/4xlFNChSRwVGLMp6fa3N6LRnpu34ADNRaljNrGvffLM0B2IJjCzG+V+c9N49j8i5GREZWO3WcWUtYbY3e0r7LSRLHS3OatL0VCgBbdHQuouAb3nl4LO9SRGTEWAtztYT5ejpq+/m8KZs5njmlSX9bpQBwFZ493aIUGu4+VMm7FBEZBc6x1LScrSYkmtx2EePgqZNq/K+GAsBVenx9iYlCgIj00nIz4+xaSpxpYttGvntcJ7heLQWAbXj8tSbN2PH9h8fQpAAR6aa1VsaZaqqd7DZiwKZOd/7bpACwTc+faZGklh+8ZRxjlAJEZBscrLUtc9WEZqyGfyMGiGLLc6c14W+7FAC64OWFNnHq+OHbJgh8hQAR2RoHrDQz5qsJ0Sju279JnoHVRsorCzrdrxu0D0CXnFiJ+ZOn1qi3tSxHRDbHOlhsZDx3ps3x5ViN/5sIfcPp1ViNfxepB6CLVpopDz6xxvu+b4IDOjtARC4jtY7lRsZCPdWs/k0oBIZnTja1w1+XKQB0WTu1fOmZKvddX+Gua8p5lyMiA6SZOJbqCSvNTDv3bVJg4NFXGlhtfNB1CgA9YJ3jsVcbrDVS3nXTOKHmBYiMLOccay3LQiPVHewWeMbQiFJeOBvlXcqOpQDQQ0cX2pytpvzwbePsmdCQgMgoaaeOpUbKciPTQWJbVPANRxcilmtp3qXsaAoAPVZvZ/x/T1e5+1CZe6+taL8AkR3MOViLMhYbKfVId/tXwzfw2GsNHefbBwoAfWCd44kTTeZrKe+5eZyxohZfiOwkzdiy3MxYaWZkutu/KqFnmKsmHF/SLP9+UQDoo9OrMf/x8RXuua7CXQfL6g0QGWJJ5lhpZiw3Ui3f26bAwNMnm9r1sM8UAPostZ0JgieWY95z0zhTFT/vkkRkk9IM1qKU5WamCX1dUPANZ1YTTizrrj8PCgA5ma8mfPbJFe67bow7D5a0jbDIgEozx2orY7WVUVej3xXGGHCWx19tkOotzY0CQI4yC4++2uCluYh33DDOoVmtFBAZBHHmqEWWtVZKLbKog797Cr7h2EKbhVqSdykjTwFgAKy1Mr783BrXzhZ45+FxJkqaJCjSb83EUm1lVCOrg3h6IPQMq82MJ+Z0iM+gUAAYICeWY06vLnPnwQp3HyrrYCGRHrIOalFGNeo0+tqStzc805n79MTxBomOShkoCgADJrPw1MkmL89H3HawzL6JkImyRyXwtGpAZJuixFKLLNW2pdHWdry9ZIzBN47nz0TUI7X8g0gBYEA14s4EmalywC37ijhjKBcMk0Wf8ZJHJdQwgciVpNZRb1tqUUYtssS6y+89AwUPjs61WG6o4R9kCgADbq2V8uirKXsnQ27YXeR0lMBa53Ss8aLPRNFjouQReOoeEEkzRz221NuWejsjStTg95Mm+A0XBYAhMV9NmK8m7JsMuXa2QJw6ltOU5Ubn86XAY6zgMVY0VIoepUA9BLLztVNHI86oR53f29qQp/9Mp+E/sRhzZi3OuxrZAgWAITNXTZirJuwa9zm8p0TqDDhHlFqi1LLU7HydbwxjRY9KwTBe8CkXDb72GpAhZh204oxGYmm2O3f6qbr0c2OA0Gf9jl+H9gwjBYAhtVTPWKo3mKn43LS3hIWLJjRlzq3Pbgbo/HCWwk4PwVjBZ6zgUfSNJhbKYHIQpZZGbGkmllbb0kqc1uMPAGM6M/tfmW+z0lDDP8wUAIbcSjPj0VcbjBU9bt5bIvANl7spihJLlMASnYk5ngflwKMcGsqhT7lgKIUemk4g/eSco5VAlGQ0E0e03uhrhv5gCTxD5hxHz0bUNKt/R1AA2CEabcuTJ5r4nuGmvUWmK8EVZzxb21lt0IiB9VCAgZLfCQLl0KNc8CiFhoL2JJAuSK0jShyt2NJK1n+ldM7RlYFU8A21KON7cy1Stfs7igLADpNZx4tnIwCu21Vg/1RIatn83ZSDKHVEaWfv83N8z1AJDYX1HoNCYCgFHoVAwUDeKM4c7cTSTh2txBKl0E4sqW7rh4IxhsBznF1NOLGsiX07lQLADnZ8Keb4Usx40eeGvUVKgXfVF+DMOmptB5cchmKMoehDMfAohobiejAohkZLE3e41EKcWqLU0U4dcWJpZ44odVg19EMp9A3txPLKfES9rdv9nU4BYATU2xnfO9FZHnBousC+mRDrutPr6pwjSiFKM4gu/pznvR4IQr9zcSkEpvO7r4Aw6DLriDNHknUa+jjt/DnOLO2kM9FUhl9nNr9hbi3hxFIbnYIwOhQARszJ1ZiTqzFjBY/De0pUSh5xj9ZOW+toxZ3x3o14pnPhORcICr5HGBhCz1AIIFBI6A3XGYuPLaSpI7GWxDqSFJLMEmeQpE4N/A5X8A2N2HJsvk0z1t3+KFIAGFGN2PK9U51egZnxgGtnChQC09ezua3rbOTy+uYtG1+EAs+sh4ELP770z5x/jBHb78A5R2YhsQ67/ntmO4+l678n2Xojn6G18yMs9A1Z5ji+1GaxriV8o04BQFipp6zUUwxwaLbA3qkCBgZmwlZq3ZZq8TxDsL5W2TMGz+t87HsennH4xsN44JvOhknnP28MxjjMBb0Ohs7fceGfff+CF3OdCZKXstbhNsghme0MvTjArn9gLTjc+eWbme38vZnr3IVntvM1ls77YG3n77cOUtf5s8jl+B7gDHPVhNPL6uKX1ykAyHmOzpHEJ5bj18PAZIjxzFDdNVrreH3e8oV1n7v0qbtTdjbfdILwUj3l1YV2J2yKXEIBQDZ0YRjAwLUzBXZPhHjrXYgiMlgC34B1LDczXluMydQ1JFegACBX5l4PAx5wYDpkz2SBMDQkOnxFJDcFv/MzOFeNObuaqHtftkQBQLbEAqdWE06tdo77HC96HJopMjnmdzYcGpB5AyI7kVlfOdNsW04stVlraThLrp4CgGxLvW15/mwLgMCHa2eLzI4FeJ4h0VCByLaFviGzjpVGyomldl9X6sjOpgAgXZNmnaNBjy20ARgrehycLjJV9sCYgVlVIDLIfM/gG0e9bTm1HOsuX3pGAUB6ptG2vDTXOv/nPeMBe6cKjBU9rHO6kxGhs3+FoXNmwtm1lMVakndJMiIUAKRvFuopC+ubjxhgquKzd6LAZNnHeGjIQEbCuZM16+2M+WrKUi1B3/mSBwUAyYUDVpsZq83XewgmSj77p0ImSj6Bb0is0ymxMtQ6G1B1xvBrLcvZtZhapC59GQwKADIwalF20cXR9wy7J0J2VXxKRQ9/fUMiZQIZSKZzd+8stBLLSiNlrpoM1SZaMloUAGRgZdYxtxYzt/b6Y8XAsGcyZLrsUw59jA9xRneONhTZJGMMoedwztCKLWuthIVaRpRoYosMDwUAGSrt1HFyOebkBY/5nmHvhM9UJWSs6BH45vxBOCLb1ZmV3wmk9dix1kiYr6baXleGngKADL3MOs6spZxZu/h0s1LBMFsOmKwElIve+aOFNdlQNuIZQ+B1DleKUkctyliqJ9Qj3dXLzqQAIDtWFDtOxwmn1y5eVlUKDbPjAeMFn0rRI/Q9jOfIbGeyluxcgddp6C2ONHU0Y0s9ylhupESJ/u9ltCgAyMiJEsfplQR443rrUsFjphwwXvYph4bA9zrHqdI5kjdTt+9A843B9ztTQjILaWaJEkc1ylhpJLTVyIucpwAgcoEotpyJY1jb+PPFwGOq4jNR9CgVPAqBR+ABxmCAzK2HBLUz3WUgMIb1URyc68zxiFNLK7bUIks1StXAi2yBAoDIFrRTy3zVMv8mX2OA8ZLHWMmnEngUCh4FzxD4Bs8zGNP5Grf+y1rHqI08GNOZWOcZzr8Z1rlOgMocSeZoJ5ZmbGm0LY0o00l3Il2mACDSZQ6oRZ270s0q+IZSwaPoGwqhIfQNhcDH99e7tT2D53U+BvA8wDkMBmc6r2ku6Xgw6zPXnTOvP0bnREe3wVCG55kNey48r/O8c88//4E796/tDI+4znH0naGSzJE5R5pBnFnSzBKnjjh1tJLOnbuI5EsBQGQAxJkj1qEvItJHXt4FiIiISP8pAIiIiIwgBQAREZERpDkAOWlbRyN1GBzlwKPkmSs/SUREpEsUAPrIAacaKa/UU9YuPDTEwFTgcdNEyMGKj6KAiIj0mgJAnyTO8dhSm4WNloY5WEssjy+3eaXucdd0gemCRmdERKR31Mr0gQMeWYw3bvwvsRpbHp6PeHIlJh613WFERKRv1APQBy/XEpbam1/j7YDjjZSzrZRbJwtcPxagKQIiMgjGbZO70hfYbZcBw6I3w1PhbTRMJe/SZIsUAHosc46Xa+mVv3ADsYXvrcYcqyfcPlngQMXvcnUiIpsz5Wp8pPkg98ffxncX39Bkxueh4g/wh6WfoOqN51ShbJUCQI8tx3bbXfmN1PHocpvZhsftkwVmixq5EZH+uTY7w2/U/iW77cqGn/ddxoeih7kvfpbfnPhFTvgH+lyhXA21JD1WS7q35/ly2/KNhYgji21WY+2lLiK9N+Vqb9r4X2iPXeYf1f4Vk7beh8pkuxQAeixz3R+8n4sy/mw9CKwpCIhID32k+eCmGv9z9thlfqb1uR5WJN2iANBj5V69w64TBL6+EHFkqc2KgoCIdNm4bXJ//O0tP+8D7W9Sca0eVCTdpADQY7tLF5yl2gsO5loZD89HfGM+Yi7KNjzSVURkq+5KX3jDhL/NCMi4O3mxBxVJNykA9FjJ99jbp019lmPLkcU2X52PONlIUZ+AiGzHXru0jecudrES6QUFAGj3+gXumC7gm/4t5K8llu+uxDx0usWL1YQoU5eAiGyd20b35Xae2ycjP0ahAIBZ7fUrTIQe980U+v5mR9bxQjXhoTMtHl9qsxJvvStPREbXvLfr6p/rz3axkp7o+bV/0CkA4Nb68SoHKj7v3ltiLOh/KrbAqVbGw/NtvjYX8WojJXHqFRCRN/d0eCuZ2foGZCk+Twe39aCiLjL05dqOIMqjAAAgAElEQVQ/yBQA6N83wUzB4337ytw5XSDI6Z2vJpanV2K+dCri0eU2C21NGhSRjTVMhYeKP7Dl5325+B6aptyDirqp972/g04BwLiT/Xw5z8CN4wHv31fmUCW/jRgzHGeaGd9eaPOVuYgXqwnNVNMGReRif1j6CRa8zXfnz3u7eKDy53tYUZdYdyrvEvKmAOB4Ko+XLfmG+2YLvGt3kYkw38ky9dTyQjXhT89GfGsh4kQzJdFJhCICVL1xfnPiFzcVAua9XfzmxMepmiE4D8DwZN4l5G3kzwJw8FSeze/eks+eYokTzYznqwntHGfsO2CxbVlsx/jGsLfscU0pYG/Zxx/4Cb0i0isn/AP8+tSv8zPNz/GB9jcJuHhCcYrPQ6V38+/LPz4cjT/gcrr5GyQjf1n/yd996SYvy47mXQdA5uBYPeGlWko6QHfgvjHsLnkcLPnsrwTkMI9RRAZExbW4O3mRPet7BCx4u3gqvHUIxvwvZnGH//jv3v5q3nXkSZdy58xf+p0Xz4Dbl3cp57Rt5wjhV+sJg7aEP/Bgd9FnX8lnXymgqBOKRbZkPIi4a/YYu4trYGAxmuKp5cM00lLepY2SM//h79x2DcYM2BW2v0Z+CABjHL/9/Ocw/HzepZxT9Ax3TIXcNB7wSj3lWD0lG5Ble6mFs62Ms60MiJkIvfUw4DFb8BUpRS5jqtDgozd+lfsPPIFvLp5wmzmPh87cy6dffh/VZCynCkfKZ0e98QcFAAAcPGgYnABwTtE33D4Vcng84Ggt4XgjG5ggcE4tsdQSy9FaZ2LjvrLPvqLP7pLX190PRQbZtWML/ON7/h27S9UNP+8by4cOPs59sy/zySc/yonGnj5XOFqMNZ/Nu4ZBoFUAQMDYF4Fm3nVcTsk3vGW6wAcOlLh1MiQc0P+1KHO8Vk85stTmC6c7pxS+Vk9ppIMVWkT6aarQeNPG/0J7Smv8xj2fZjJs9KGykdWYqBX+NO8iBoFGcIFnv/DP0tt/7JfuAvOWvGt5M4Ex7C763DAWUvQNtcSRDliPwDkOaKSOuSjjWD3leD1lJbEktjOpsKhlBTIifu6WL3HXzKub/vqxoE05iHls6ZbeFTXCnOOBP/yHt/xR3nUMAg0BrPMMv2cdH8m7js0IvM5mQjeMB5xuduYIrMaDvYlPZDsbD51pdpYPlfxOmNlV9Nhd9KjktTWiSA+NBxH3H3hiy8/7wIEn+L9evp+mJgZ2ncP8Xt41DApdddf9P3/79m8Cj+Rdx1Z4wKFKwHv3lnjPnhIHKwHekNxYR5njZDPlyZWYh85GfOlMxHeXY443Uu1IKDvGXbPH3jDhbzMCL+PuLfQayOYYeOyP/95tR/KuY1CoB+AC1vEpz/COvOu4GrNFj9ligSgLea2RcryRDtUxwFFmOdm0nFyfiVH0DVOhx0zBYyr0mC74WnIoQ2dv6eq3m99bHvmt6rsucU53/xdQALjAF083vB/aVx7q7uiSb7htMuTWiYDF2PJaI+Vsy+IGdK7A5bQzx3yWMR+9vuNYyTdMFTymQ4+pQiccFIaly0NGktvGutjh+okdfM3U8vUzkW4jLqAAcIEE8wvPVVPeNlvIu5RtM8awp+izp+jTSh3HmymvNdJctxrerihzRK2MudZ6KDAw7humiz5TocdUaJgIFQpkcMy3pnN5rrzRs9WEBH4J+N/yrmVQKACsC371sfdiefvpVsrhOGC2MLy9AJcqB+u9ApMhK+2Mk82MU62UoR9qd1BPHfU05cIjHUMPJgKPidBjPPSYWA8GJQUD6bOnV24gc96W5wGk1ufplRt6U9QIWoktZ1oZGN4a/r3Hvj/57bd9O++aBoECwDpjvV8GBw6eXY35wT2lHbernQFmiz6zRZ87p0PmW5YTrZT5aPiGCN5MYmE5tixfsjJCwUD6rZGWeOjMvXzo4ONbet6XT9+nFQDdsn5Nf31MxfwKoADAjmvirtInHq2EVW8BQ+XcQ/fMFLhubDTyUZRZTjUzTreygV9O2AuVwLCn5HN4LGBiUHdZkqE1GTb4rXf8G/aU1jb19fPRNL/+yM9TTSpX/mK5otcaKU+txK8/4Ggmk3YPn3j7wG7+1i+62gGFuvnwhY0/wDNr8cgsRyv5HjdNhLx3b4kP7C/zfVMhkyPUEDbTzg6GX5uLeKGa7KjeEMlfNRnjk09+lIVo6opfOx9N88knPqLGv0uaqevc/V/IUPGr5v58KhosmhEJeD/w8V8D7rvwMetgLXFcOxaMVDdJ6Bl2FX1uGA84VAko+QYLQ7WkcDuW2pbYwb6SfjSke6rJGF8/exflIOaG8Xm8S86hSa3Pl06/jd955qdYaGvyXzc44NGl9oZbkRto2G/9Lw/2v6rBMkpt28Y+4byw9t3TwIbHAd85XeDG8dEYCngzsXXMtzJORxkLUYbd4Xng7bNFDlQUAqT7KkHE3TOvsmd9nf9Ca5qnVm7QmH+XvVxLeHYt2fBzBs7G//N9B2G0TwQc+QBQ/NXv3mKte/Fyn/cMfP/uEruKo9MlfiWpcyxGlrmos05/J/YOjAWG+/eV9RMiMoSWY8u35iPebBDXt9lN0T97xyt9K2oAjfytrcvc3W92kbcOHluO+KG9JUq+QgB0DiXaX/bZX+7cIVeTThhYiCzL7WxHbGDSSB2riWV6By0HFRkFrczx6GL7TRt/AOsFdwMKACPNcPeVvqSdwZHFmPfsLaFD7N5oMvSYDD1umYDUwUqcsRhZFtoZa4kd2i3N1hQARIZK5hyPLrVpb2KM0jruAf6491UNrpEPANaZu8wmhoHWEssTyzFv3VVQr/CbCAzndyC8nZAocyxGGYvroaA1RMMFyWgsAhHZERzw3ZV480uZPXdXTwsaAiMfAIznrt3sHerpVkqwAvdMFzQ2vEkl33BoLODQ+p4Krcyx1M5YaluW25b6AC+11M2/yJBw8PRafP648c0wzhzqYUVDYeQDAI4rL869wPFGSmAMd06HvapoRyv7hkOVgEPry5zbGSzHGSuxZbVtWUsyNli1k4uZglYBiAyD56oJr9XTLT7Ljvx6SwUAthYAAF6pJ4Qe3DqpELBdRR8OlH0OrE8odM5RT2EtzlhNLGuxZS129Htq4WToMRGom0dk0L1QTTha23i535sxmC1f+3caBYCrCADQ+aYDhYBuM8YwEcJEGHCufy7DUY0dq7E9/6ue9XByoYHbNcwjMvBerCa8WN164w/gYKbL5QydkQ8AnqF4tZvavFBNiK3jzmlNDOwlH8NMwTBzwaB84hxrsWU1dtQTSy3tzCfoxpSC2yZC9mrfB5HB5eDZtZiXt9zt/zrfmOLVRYedY+QDQOh1xqGv1rF6Smwd984U0aFy/RMaw+6iz+7iBQ+6ziTD6rlAkFhqaScgbGZeQeAZ7pgMuV47P4oMLAc8uRJzonn1jT90rv1Rd0oaWiN/pQuMob3NvuRTzYzUtXnrbBENG+fIQDkwlAOffRcec+GgmTlq68GglnY+bmeAc4wFHnvKPteO+ToaWGSApRYeW24zH23jrm1dYPSzPvIBIPQM3RhMnmtlfGM+4h27ilSUAgaL6Rz5W7k0GIjI0Igyy5HFuLO5WBeM0IGnlzXyb0HJ695bUE0sfzYfsbidMQUREbnIUjvj63PtrjX+ACXdqCkATBW6+00QW8e3F9pXtSxFREQu9loj5duLm9vedysmg5Fv/jQEMNmDfiAHPLeWUEsdd02HGmsSEdmixDqeXok51epNj+qUtvpUAJgMe9c4n2ykLLUz3jpTZFbLykRENmU1tjy+3KbRw21B1QOgIQAqvkexh/PCWqnjmwsRL1STYT0UT0SkP1xnafU35qOeNv4l31DW0a4KABjYV+ptR4ijs2PVdxYjomxwD78REclLK3V8azHie6sxvb5K7iv72ukTBQAA9pf7szRsIbL86dmIozX1BoiIAOA6E/2+Otdisd2fG6R9vez2HSIjPwcAYHfRwzfQj6PqM9eZIDjXyrhntsC4xqFEZEQ1U8uTK3HfGn6AwMDusq67oB4AAHxjej4McKnl2PL1uc5ywS6vbhERGWgWeKmW8tWz7b42/gD7KwG++v8B9QCcd3g84HRre3tLb1XmHM+tJRxvpNw5VeiMS4mI7GALUcYzazG1JJ87n8NjavbO0TuxbrboMV3wWI37P0mvkTqOLLXZV/J5y3RIRcMCIrLDNFLHc9WYM838dkqdKnSu89KhAHCBG8ZDnlhu5/b6c1HG4lnLTZMBN02EOlhIRIZeauFoLeHlev7DnTeNh/kWMGAUAC5wTcXnxapHsxuHyl+lDMeL1YRX6yk3TQTcOB7qmGERGTrWwYlmyotrCVHeLT9QCTwOVDTMeiEFgAt4wO2TAY8tx3mXQmw78wNerafcMhlyXcXHaEthERlwDjjbzHi2muR6M3WpOyZDzXq/hALAJQ6WA44VUpZzmAuwkVbmeGol5ljd4/apkH0lJVgRGUAO5toZz+U4we9yZgoeBzTJ+g0UAC5l4I7pAg8vRAzSbj21xHJksc1k6HHTRMA1ZfUIiEj+HDDfynixluQyifqK1q/pWvn3RgoAG5gpeFxXCTje6O+ywM2oJpbvLse8EHjcPBFw3Vig72sR6btzXf3P1xLqyQA2/OuurwTMaub/hhQALuPOqQKLbTtQY1gXaqaWp1ZijtZSbp4IODTma3MLEem5DMfJRsbRWkKzhwf2dEMlMNwxrZn/l6MAcBmBB/fNhHxzoT1IIwFvcC4IvFA1XFsJODweUNIpVyLSZe0MTjQTXqmntPuxb/o2GeDemSKBhkovSwHgTcwWfQ6PB7xSH7yhgEu1M8fRWsIrtYR9FZ+bxkNm1O0lIttUTSyv1lNONjKygb4dutiNEyG7iroGvhkFgCu4farAWmJZ6vN+1VfLAmeaGWeaGbuKHofHOysHtJeAiGyWBeZaGcfqKUvt/Hbuu1qzBY/vm1LX/5UoAFyBZ+BtsyW+Ph8RZcMRAs5ZaluW2m2KPlxTDrhuLGQiVBIQkY01UsfxRsqJZsIQtvsAlH3D23cXteZ/ExQANqHowzt3F/jGfNSXI4O7rZ3BK/WUV+opUwWP68cCDlV8fI2NiYw86zp3+681UhbibKCWP2+Vbwxv31WkqC7PTVEA2KSp0OPe2QKPL8XD/PPBWmx5Ko55fs1wTcXnUCXQ4RgiI2glzjjV7PyKB2Cr3u0ywH0zBV3PtkABYAsOlgPSGXhyNR7qlAydrYaP1VOO1VPKvuGaSmdPgTGdQCSyY0WZ5WQz43gjpTHgS/i2xMBdUwXt9b9FCgBbdN1YQOocz6wmeZfSNa31FQRH6wmzBZ9DZZ8DFZ+CutFEhl47c5xpZZxqpiwnduhvXjZy+2TI9eNqzrZK79hVuHE8JLHwYnXnhAAAHCy3M5bbGU+vGWYKHgfLPgfLPkXtLSAyNGLrmI8yTjczFtpZ7sfw9tJtkyE3T2jG/9VQALhKt012vuF2XAhY55w7HwaeWYWZos++UicQVAKNsYkMmihzzEUZc62M+WiYVuxfvVsnQ26dVON/tRQAtuG2yZCCZ3hmdbgnBl6J4/WegeeqCdOhx76Sz76yz1Tg6ZANkTw4WEssZ6NOg7+6Q7v3N2TgjqkCN6nbf1v07m3T4fGAgmd4YqW9o7vZznOwGltWY8sL1YSib9hT8tlf9NlT9rTtpkgPZc6xHFvmWxmnWxnRMK5L3iYD3DNT4NqKmq/t0jvYBddUfAJT5PHlNjtpYu1mtDPHyUbKyUaKj2FXyWNPyWNPMdCmQyLb5aCWWhbaGQuRZSmyQ7Udb7cFHrxttsjekmb7d4MCQJfsK/u8Z2+JR5baA39CVq9kdCYezUcZkFD0DLMljz1Fn70ln7ImEopcUTvrDLkttDPmotG8y99Iyfd45+4CU6HmIHWLAkAXTYYe791b4rGlmMVh3Uezi9rWnT+XAGA89NhT9NhV8JkpeZS0zFCEKHMsxxlLbcdilFEf0CPI87Sr6PO2XQXt8NdlCgBdVvAM37+nyPNrCUdrO3OFwNWqJ5Z6YjlG53TFom+YLXZ6CGYLHhOaUCgjIMocK+1Ot/5ynFFL3ehM3rsK148FvGW6oAPNekABoAcMcPtUyERgeHo1Hrl5AZvVzi7uISj6ptM7UDRMF3ymQqPzCmSoZQ7W4oyV2LKSWFbaVl36mxR4hrtnClxT1nh/rygA9NChsYBdRZ/HV9osD8lxwnlqZ47TrZTTLYAEA4yHhqmCz3ToMVvwmCx46iSQgdVMLcuxZS22rCaO1Xhnb8LTK9MFj7fOFrU1eY8pAPRYOTC8e0+Jl6oJL1YT9fRtgQNqiaOWpJxcfyzwDFOhx2RomCp4TIYeE6Gnoz+lryxQSzoNfTWxVGPHWpKpt2+7DBweC7hjuqCf6T5QAOgDQ2fHqpmCzxMrMVGm3oCrlVrHUjtjqf36Y56B8cBjqmCYDP31UGA0YUi6op1BLc3WG3rLWuKop1Z39l1WDgz3zhTZXVTT3y8KAH20p+Rx//4SL1YTXq6pN6BbrKNzcU4AXl99EXqGSmCYCD0mAsNE0AkGFV+TDeWNEttZc19bn6za6X2yRGrpe8vA9ZWAO6ZDbSTWZwoAfeabzgTBfWWfJ5djLfnpocQ61mLHWnzxexwaw1hoGAsMY4F3/veKb3To0Q7Xto5G4mimlkbmaKSWRtp5LHFq6PutEnjcM1PQXX9OFAByMlvw+KF9RV6sprxST9Sd2EeJc6zGjtUYLuwxgE44qJwLBIGh7EPZ73xcCgyh7lAGWmIdrczRSh2tzNLKoJmuN/SZI9UP2kDwgJsmAm6ZCvHVHZcbBYAc+cZw+1TIdWMBz6zGzEXaPChviXOsJY61ZOOemcDrhIJK4FH2Oj0GZd+j4HXGMAt+Z+6BLmnd5eisEoltp3GPXef39vqfm+uNvRr4wben5HPnVEFbhQ8ABYABMBYY3rm7yFyU8b3VhKaGBQZWah01C7Xk8mHNGEPBg5JnKK0PKxS8zpyEgmco+J2ehoLnEXpQ8M3IzXi2QJw5EguxtSTOEWedc+xj+/rHUdZp5Nu2c0S1DK+xwHD7ZIEDFa3rHxQKAANkX8ln936Pl6spL9cSLSkaUs452lnnjnVtk5tBBgYCzyPwOh+Hxqx/bM4/FnidIQiz/nnoPIZxncfX/2xweOYymyitf+1GEufAvfFzmXNY53AYUutwF3ztuTvu2HV2s0tcp5s9dZA6R2ohteuPO9Y/13lcRkPgwc0TITeNh9rNb8AoAAwYH8OtkyE3jAe8XNP8gFGROkgze+mUBJGh5Rm4thJw61Socz8GlALAgCp4nfkBN4wHvFRNON7M1AUqIgPPAPsrPndMhlSCURvcGi4KAAOu7Hf2wz48bnluLdFEQREZTAb2FX1u1wS/oaEAMCQmQo937i5STSwv11JOtdQjICL5M8Dess+tEyHTBd3xDxMFgCEzGXrcN1vgttRytJZyvJFqR0ER6btzXf3fNxEyHqrhH0YKAEOqEnjcPVPg5omAo7WUk42MTFFARHrMx3BozOfmiZCKTusbagoAQ+5cELht0nGimXKsnuq8cRHpuqIP11ZCbhwPtGX2DqEAsEMUfcPNEyE3ToTMNTNeriesxFpsLSLbMxl63DAecGjM17a9O4wCwA7jAQcqPgcqPktty7F6Z+WA9hIQkc3ygH1ln8PjAbuK2rlvp1IA2MF2FT12FYu0MzjVSjneSKglSgIisrGxwHDdWMC1lRC1+zufAsAIKPpw43jAjeMBa7HltUbKyWZGpmWEIiPPM527/evHAvYUfNTLPzoUAEbMVMHj7kKB75tynGpmnGymrGqugMjImSn4XFPp/Cpoq96RpAAwogqe4fB4wOHxgFbmONXs7CnQ0AlEIjtWyfc4VPG5bixgTEv4Rp4CgFBeX0Fw83jIcpxxspVxppkRa+agyNAr+oYDZZ9rKgGzoacufjlPAUBeZ2C26DNb9LlryrESW063Mk63MtraW0BkaBQ8w96Sz8GKz56ir2N4ZUMKALIhY8z5MHDnNKy0M+aiTiBo6jB3kYFT8g37Sj77yj57S1qxL1emACBXZHi9Z+D2yZDVxDIXZcy1MtZSi3YgFsmBganQY3+p0+BPq3tftkgBQLbGwHTBY7rgcdtkSDtzLEQZZ9sZC60MzSEU6R3fGGYLHnvLPgfLPiVtySvboAAg21L0DYfGAg6NBWQ4liLLQmRZaKfadEhkuwxMBB57ij57Sh67Sp6245WuUQCQrvHpTDzaW/KBkLZ1LEeWhXbGfJTR0kRCkSsq+p0htz1Fn30l3eVL7ygASM8UPXP+XAKAemJZaFuW4oyVyBJpmaEIJd8wW/DZVTTsLvmMB17eJcmIUACQvhkPPcZDj8Pr33btzLHc7vQQLMeWmiYUyggo+YaZYqdbf7bgMxEYTd6TXCgASG6K/sU9BO3MdXoH2o7VOGMtcTqvQIaab2Cq4DNT8JgJPWaKnrr0ZWAoAMjAKPqGg+WAg2WAEAfUE8danLGaWJZjSzW26iSQgVUJPGYLHlMFj+nQMF3QJjwyuBQAZGAZYCI0TIQBh9YfS6yjmliqiWMttlQTSy2xaGsi6ScPmAg7Df1k6DFZMEyFHoFRay/DQwFAhkroGXYVfXYVX3/MOqinlrXYUU2y9VDgaGuSoXRB0YeJwF9v6D2mQsN44OnOXoaeAoAMPc/QuTiHAP75xxPraKaOWmKppY5a2gkGzUyTDeWNQq+z5n5ifbJqp/fJo6SWXnYoBQDZsULPMFUwTBUuXlaVOEcjcTRSRyO1539vZk6HHu1wRc8wFhoqgceYbxgLPMaCzmOhuu9lxCgAyMgJjWG6YJguwIU9BtAJB81zgSB1tDJoZZ2Po9SRaFXCQAs9Q9k3lAND2fco+1AJOg19xTeEupsXOU8BQOQCoTFMhZ0JXRtJrCPKoJlaWrbTY9DKLHEGrcwRZ525B4oJ3WXorBIprDfwBa/TyBfXf6/4HiUfNfAiW6AAILIFoWc6Y8Whf9mvcc4RW4isI1ofVohtJzzE1hFnnZ6G2FoSC3HmRm4VgwcU/M57WfA8QmMo+J1z7Ave6x+X/E4jX/Q6R1SLSPcoAIh0mTGGot+5Y50KN/ec1DlS60gtpK4TEDofv/5YajtDEG7989B5DGc6j6//2WGw7jKbKK1/7UZCY8C88XO+MXjGYHAEnsFc8LXB+h13wXR2swuNIfAMgYHAGAIPAm/9ccP65zqPi0i+FABEBkBgDIFvLp2SICLSM8rhIiIiI0gBQEREZAQpAIiIiIwgzQHISdt2NqIxOMqBdhsTEZH+UgDoIwecaqS8Uk9ZSy5Y+GVgKvC4aSLkYMXX0eAiItJzCgB9kjjHY0ttFqINVnw7WEssjy+3eaXucdd0gemCRmdERKR31Mr0gQMeWYw3bvwvsRpbHp6PeHIlJtZpdiIi0iPqAeiDl2sJS+1s01/vgOONlLOtlFsnC1w/FujoUREZCONBxF2zx9hdXAMDi9EUTy0fppGW8i5NtkgBoMcy53i5ll7Vc2ML31uNOVZPuH2ywIGKdokRkXxMFRp89Mavcv+BJ/DNxb2ZmfN46My9fPrl91FNxnKqULZKAaDHlmO77a78Rup4dLnNbMPj9skCs0WN3IhI/1w7tsA/vuffsbtU3fDzvrF86ODj3Df7Mp988qOcaOzpc4VyNdSS9Fgt6d4xL8ttyzcWIo4stlmNR+34GBHJw1Sh8aaN/4X2lNb4jXs+zWTY6ENlsl0KAD2Wue4P3s9FGX+2HgTWFAREpIc+euNXN9X4n7OntMZHbvxaDyuSblEA6LFyr95h1wkCX1+IOLLUZkVBQES6bDyIuP/AE1t+3gcOPEEliHpQkXSTAkCP7S559HRnHwdzrYyH5yO+MR8xF2WdZQQiItt01+yxN0z424zAy7h75tXuFyRdpQDQYyXfY2+fNvVZji1HFtt8dT7iZCNFfQIish17S6tX/9zy1T9X+kMBANq9foE7pgv4pn8L+WuJ5bsrMQ+dbvFiNSHK1CUgIlvnttF9OQRXnVbeBeRNAQDT85g6EXrcN1Po+5sdWccL1YSHzrR4fKnNSrz5zYhEROZb07k8t09GvotCAQC31o9XOVDxeffeEmNB/7f0s8CpVsbD822+NhfxaiMlcUOQz0UkV0+v3EDmtt5MpNbn6ZUbul9QNxn6cu0fZAoA9O+bYKbg8b59Ze6cLhDk9M5XE8vTKzFfOhXx6HKbhbYmDYrIxhppiYfO3Lvl53359H00B35r4N73/g46BQDjTvbz5TwDN44HvH9fmUOV/DZizHCcaWZ8e6HNV+YiXqwmNFNNGxSRi3365fexEE1t+uvno2n+/bEf7mFFXWLdqbxLyJsCgOOpPF625Bvumy3wrt1FJsJ8T/qpp5YXqgl/ejbiWwsRJ5opiU4iFBGgmozxySc/uqkQMB9N88knPkI1qfShsm0yPJl3CXkb+bMAHDyVZ/O7t+Szp1jiRDPj+WpCO8cZ+w5YbFsW2zG+Mewte1xTCthb9vF1GqHIyDrR2MOvPfJf8pEbv8oHDjxB4F08oTi1Pg+duY8/fOWHh6PxB1xON3+DZOQv6z/5uy/d5GXZ0bzrAMgcHKsnvFRLSQfoDtw3ht0lj4Mln/2VgBzmMYrIgKgEEXfPvMqe9XX+C61pnlq5YQjG/C9mcYf/+O/e/mredeRJl3LnzF/6nRfP8P+3d+dRkl7lnee/975LLJmRkWulSiotpZJqpbSwtUEstuTBzTRgBE237J7uY+Nu5mBjkMRmzJy2pruhG49RCWj3jDleOHPaNoMsiSMYMzYIg5CwWkhCEki1qEollWrLPTMiY3uXe+ePN6tUKtWSWRkRb0TG8zmnTmXFonxOKPO9v/eu2PG0SzmhYZIjhF9YDOm0JfyuhtGMw3jWYTzrkpETioVYkX5TZWe0l1EzC4aeUCQAACAASURBVCim9RBPe1uoqO64c14jjt1765ZLUKrDrrDt1fNDAChluXPPt1H8VtqlnJDRiu1Fj039Ls8vRhxcjIg7ZNleZOB4LeZ4LQYCCp5eCgOaYd+RSCnEWRRtmVuq3+LG4BEc+8ou9Fg5PJB5E1/PvpuS7k+pwp5yf683/iABAAAL31J0TgA4IeMothU9Nva77C+HHKrEHRMETiiHhnJo2F9OJjaO5xzGMw6jWd3W3Q+F6GSXxsf4bPmPGTVzZ3zesTHvqD/E9cGzfL7w27zkrG9zhb1FGXV/2jV0AlkFALj0/T1QTbuOs8k6itcM+ty0PsvmAQ+vQ/+v1WPLi4sRj840+LujySmFLy5GVKLOCi1CtFPRls/Z+J9qzMzy++X/xoBZbENlPatSKPvfT7uITiAjuMCzf7cr2vbO39kJ6jVp13IurlKMZhyu6PPIOIpyaIk6rEfgBAtUIstEPebgYsShxYi50BCaZFJhRpYViB7xG9V72BntW/br+2yNrG3whN/Rl6OuZS3f+Ppnrr477To6gQwBLNGKrxjLLWnXsRyuTjYTuqLf5Wg1mSMwH3T2Jj51k2w8dKyajH1mnSTMjGQ0oxlNPq2tEYVooX5T5cbgkRW/76bGj/nL/K9SVbkWVNXbLOoradfQKeQ27BTv27XnUeANaddxIWYbhoOViOO1iA5aQbhsWScJAhIIxFrypuCnfHzxTy/ovX/U/yEe8a9tckW9TcHj99y29fVp19EppAfgFMbyJ1p1ZwAYzmiGMz712OPFSsShStRVxwDXY8PhquHw0kyMjKMoepohX1P0NIO+I0sORddZZ2ZW8d7pJlYiAEJr5e7/FBIATvH3Ryv6beO5rr77zDqKLQMemwsu04HhxUrE8ZrBduhcgbNpxJbJOGay/vJyqayjKPqaQU9T9JNw4GvpxBKdy66ik3U17xWvVo0MDx6ry23EKSQAnCJEfWh3KeJ1w37apayaUoqxjMNYxqEWWQ5VI16sRKluNbxa9dhSr8VM1JZCgYJ+RzGYcSh6mqKnKHgSCkTnmNQjF/5eZ7iJlYhnSyEh/A7w52nX0inkSrnE/eTjb1VGPYiCG8ayDPvd2wtwNhaYa8QcrsYcqUWs1cP/PA0FV1PwNP2eprAUDLISDESb9dkqfz7/e6/a+Od8Ihw+OPQFmQTYJHOB4aGpenIRtPZN4Z2vW/nMzDVIegCWKKM/AhYsPDsf8Jax7JqLRwoYzjgMZxx2DHpM1gwv1SIm6903RHAuoYHZwDB72soICQai3SoqzwOZN/GO+kMret/3MjdI498sS9d0Tl7i1O8CEgBYc03cBbrjsbxX0lMoTm7Gfe2Qz2V9vZGP6rHhSDXmaC3u+OWErZB3FWNZh419LoVO3WVJdK0Bs8gXSl9gzMwu6/WTeoTfK36KkpItgZvhxUrE03PByw9YquGAGeOO13fs5m/tIlc7wF9Uv3Jq4w/wzEJAda32kZ8m62g2FTzeui7LTRfl2Fr0GOihhrAaJTsY/nCizt5SuKZ6Q0T6Srqfzxd+myl9/jH9ST3C5wsflsa/SaqRTe7+T6XIOyV1YzoVdRaZEQnoN334U8D1pz5mLCyElkv73J7qJvG0YiTjcEW/y4a8S9ZRGOiqJYWrMdMwBBbGs/KrIZqnpAv8KPNGsrbBFfERNK/8fYpw+G72LXyp/zeZWsXEQfEyCzw20zjjVuQKKuYfv/qt9lfVWXqpbTuzO6z2yj89CpzxOOAdgz5X9vfGUMC5BMYyWYs5Wo+ZqsddudnQSrx+OMP6vIQA0Xx5W+OacB9jS3sETOkRnvY2y5h/kx0ohzy7EJ7xOQXHgy9efzH09omAPR8AMp/86dXG2LNu1K0V/MJolpFM73SJn09kLdN1w0Q9Wae/FnsH+lzFjeM5+Q0RogvNBoZ/nKxzrkFcx8Sb6rve8HzbiupAPX9ra2N7zbku8sbC47N13rYuS9aREADJoUQX5RwuyiV3yKUwCQNTdcNsI2YtxIFKZJkPDYNrcDmoEGtZLbY8Nt04Z+MPYLR7DSABoKcprjnfSxoxPDodcMO6LHKI3asNeJoBT3N1ASILc0HMdN0w1YhZCA3dmggWJAAI0VVia3lspkFjGWOUxnIt8M3WV9W5ej4AGKt2qmUMAy2EhidnA1474kuv8Dm4ipM7EG7Dox5bpusx00uhoNZFwwVhbywCEWJNsMBP54LlL2XWdmdLC+oCPR8AlLaXLvcO9Wgtwp2Dawd9GRtepqyj2NDnsmFpT4VabJlpxMw0DLMNw2IHL7WUm38huoSFny0EJ48bXw5l1YYWVtQVej4AYCmu5OWHKhGuUuwY9FpV0ZqWcxQb8i4blnZdaMQwG8TMBYb5hmEhjDnDqp1UDPmyCkCIbrC7FPLiYrTCd5nBlhTTRSQAsLIAAPD8YoinYfOAhIDVyjiwPuewfmlCobWWxQgWgpj50LAQGBYCS7unFg54moIr3TxCdLq9pZD95TMv9zsXhVrxtX+tkQBwAQEAkh86kBDQbEopCh4UPJcT/XMxllJgmQ/MyT+LcQsnFyrYJsM8QnS8faWQfaWVN/4AFoaaXE7X6fkAoBWZC93UZm8pJDCWHYMyMbCVHBRDvmLolEH50FoWAsN8YFkMDeUomU/QjCkFWwoe62TfByE6l4VnFwIOrLjb/2WOUpkLiw5rR88HAE8n49AX6uBiRGAs1w1lkEPl2sdTitGMw2jmlAdtMsmwdCIQhIZylASE5cwrcLVi+4DH5bLzoxAdywJPzQW8VL3wxh+Sa3+9OSV1rZ6/0rlK0VhlX/KRakxkG7x2OIMMG6dIQc5V5FyH8VOPubBQjS3lpWBQjpKvGzFgLX2uZizncGmfI0cDC9HBIgOPzzaYrK/irm2Jq+R3vecDgKcVzRhMnqjFPDxZ5w0jGfKSAjqLSo78zZ8eDIQQXaMeGx6dDpLNxZqghw48Paue/wiyunkfQSk0/GiyzvRqxhSEEEK8wkwj5sGJRtMaf4Cs3KhJACj6zf0hCIzlkanGBS1LEUII8UovViIemV7e9r4rMeD2fPMnQwADLegHssDuhZByZNk56MlYkxBCrFBoLD+bCzhSa02PalG2+pQAMOC1rnE+XImYacS8dijDsCwrE0KIZZkPDE/MNqi0cFtQ6QGQIQDyjibTwnlhtcjy46k6e0thtx6KJ4QQ7WGTpdUPT9Zb2vhnHUVOjnaVAICC8WxrO0IsyY5V/2O6Tj3u3MNvhBAiLbXI8o/TdX4+H9Dqq+R4zpGdPpEAAMBFufYsDZuqG75/vM7+svQGCCEEADaZ6PeDiRrTjfbcII23stu3i/T8HACA0YzGUdCOo+pjm0wQnKjFXDvs0y/jUEKIHlWNDE/NBW1r+AFcBaM5ue6C9AAA4CjV8mGA080GhgcnkuWCTV7dIoQQHc0Az5UjfnC80dbGH+CivIsj/f+A9ACctLHf5WhtdXtLr1RsLbsXQg5VInYU/WRcSggh1rCpeswzCwHlMJ07n4190uydIJ/EkuGMZtDXzAftn6RXiSyPzjQYzzq8ZtAjL8MCQog1phJZdpcCjlXT2ym16CfXeZGQAHCKK/o9npxtpPb9J+ox08cNmwZcNhU8OVhICNH1IgP7yyEHFtMf7tzU76VbQIeRAHCKS/IO+0qaajMOlb9AMZZ9pZAXFiM2FVyu7PfkmGEhRNcxFl6qRuxbCKmn3fIDeVezPi/DrKeSAHAKDWwbcHl8Nki7FAKTzA94YTHi6gGPy/IOSrYUFkJ0OAscr8Y8WwpTvZk63fYBT2a9n0YCwGkuzrkc9CNmU5gLcCa12PL0XMDBRc22osd4VhKsEKIDWZhoxOxOcYLf2Qz5mvUyyfpVJACcTsH2QZ+Hpup00m495dDw6HSDAU+zqeBySU56BIQQ6bPAZC1mXzlMZRL1eS1d02Xl36tJADiDIV9zWd7lUKW9ywKXoxQafjobsNfVXFVwuazPlZ9rIUTbnejq31MOWQw7sOFfcnneZVhm/p+RBICz2FH0mW6YjhrDOlU1Mjw9F7C/HHFVwWVDnyObWwghWi7GcrgSs78cUm3hgT3NkHcV2wdl5v/ZSAA4C1fD9UMeP55qdNJIwKucCAJ7S4pL8y4b+12ycsqVEKLJGjG8VA15fjGi0Y5901dJAdcNZXBlqPSsJACcw3DGYWO/y/OLnTcUcLpGbNlfDnm+HDKed9jU7zEk3V5CiFUqhYYXFiMOV2Lijr4deqUrCx4jGbkGnosEgPPYVvRZCA0zbd6v+kIZ4Fg15lg1ZiSj2difrByQvQSEEMtlgIlazMHFiJlGejv3XahhX7O1KF3/5yMB4Dy0gtcNZ3lwsk497o4QcMJMwzDTaJBx4JKcy2V9HgVPkoAQ4swqkeVQJeKlakgXtvsA5BzF60czsuZ/GSQALEPGgTeO+jw8WW/LkcHN1ojh+cWI5xcjir7m8j6XDXkHR8bGhOh5xiZ3+y9WIqaCuKOWP6+UoxSvH8mQkS7PZZEAsExFT3PdsM8TM0E3/36wEBieDgL2LCguyTtsyLtyOIYQPWguiDlSTf4EHbBV72op4PohX65nKyABYAUuzrlEQ/DUfNDVKRmSrYYPLkYcXIzIOYpL8smeAn1yApEQa1Y9NhyuxhyqRFQ6fAnfiijYWfRlr/8VkgCwQpf1uUTW8sx8mHYpTVNbWkGwfzFk2HfYkHNYn3fwpRtNiK7XiC3HajFHqhGzoen6m5cz2TbgcXm/NGcrJZ/YBbiy3yM0sK+0dkIAABZmGzGzjZifLSiGfM3FOYeLcw4Z2VtAiK4RGMtkPeZoNWaqEad+DG8rbRnwuKogM/4vhASAC7RlIPmBW3MhYIm19mQYeGYehjIO49kkEORdGWMTotPUY8tEPWaiFjNZ76YV+xdu84DH5gFp/C+UBIBV2DLg4WvFM/PdPTHwfCwv9wzsLoUMeprxrMN4zqHoajlkQ4g0WFgIDcfrSYM/v0a7989Iwfaizybp9l8V+fRWaWO/i68VT8411nQ320kW5gPDfGDYWwrJOIqxrMNFGYexnJZtN4VoodhaZgPDZC3maC2m3o3rkldJAdcO+Vyal+ZrteQTbIJL8g6uyvDEbIO1NLF2ORqx5XAl4nAlwkExktWMZTVjGVc2HRJitSyUI8NUI2aqbpipm67ajrfZXA2vG86wLiuz/ZtBAkCTjOccbliX5SczjY4/IatVYpKJR5P1GAjJaMVwVjOWcViXdcjJREIhzqsRJ0NuU42YiXpv3uWfSdbRvHHUp+jJHKRmkQDQRAOe5q3rsjw+EzDdrftoNlHD2JPnEgD0e5qxjGbEdxjKarKyzFAI6rFlNoiZaVim6zGLHXoEeZpGMg6vG/Flh78mkwDQZL5W/MJYhj0LIfvLa3OFwIVaDA2LoeEgyemKGUcxnEl6CIZ9TUEmFIoeUI8tc42kW382iClHtncm712Ay/tcXjPoy4FmLSABoAUUsK3oUXAVP5sPem5ewHI14lf2EGQclfQOZBSDvkPRU3JegehqsYWFIGYuMMyFhrmGkS79ZXK14pohn0tyMt7fKhIAWmhDn8tIxuGJuQazXXKccJoaseVoLeJoDSBEAf2eoug7DHqaYV8z4GvpJBAdqxoZZgPDQmCYDy3zwdrehKdVBn3Na4czsjV5i0kAaLGcq3jzWJbnSiH7SqH09K2ABcqhpRxGHF56zNWKoqcZ8BRFXzPgaQqelqM/RVsZoBwmDX0pNJQCy0IYS2/fainY2OeyfdCX3+k2kADQBopkx6oh3+HJuYB6LL0BFyoylplGzEzj5ce0gn5XU/QVA56zFAqUTBgSTdGIoRzFSw29YSG0LEZG7uybLOcqrhvKMJqRpr9dJAC00VhWc+NFWfaVQg6UpTegWYwluTiHAC+vvvC0Iu8qCp6m4CoKbhIM8o5MNhSvFppkzX15abJq0vtkqEtL31oKLs+7bB/0ZCOxNpMA0GaOSiYIjuccnpoNZMlPC4XGshBYFoJXfsaeUvR5ij5X0efqk3/nHSWHHq1xDWOphJZqZKjElkpkqETJY6GVhr7d8q7m2iFf7vpTIgEgJcO+5m3jGfaVIp5fDKU7sY1Ca5kPLPMBnNpjAEk4yJ8IBK4i50DOSb7OugpP7lA6WmgstdhSiyy12FCLoRotNfSxJZJftI6ggU0Fl6uLHo50x6VGAkCKHKXYVvS4rM/lmfmAibpsHpS20FoWQstCeOaeGVcnoSDvanI66THIORpfJ2OYvpPMPZBLWnNZklUigUka98AmfzeW/l1dauylge98Y1mHHUVftgrvABIAOkCfq3jjaIaJeszP50OqMizQsSJjKRsoh2cPa0opfA1ZrcguDSv4OpmT4GuF7yQ9Db7WeBp8R/XcjGcDBLElNBAYQ2gtQZycYx+Yl7+ux0kj3zDJEdWie/W5im0DPuvzsq6/U0gA6CDjWYfRizQHShEHyqEsKepS1loacXLHurDMzSBdBa7WuDr52lNq6Wt18jFXJ0MQaul5SB5D2eTxpX8rLFqdZROlpdeeSWgt2Fc/F1uLsRaLIjIWe8prT9xxBzbZzS60STd7ZCGylshAZJYetyw9lzwueoOr4aqCx6Z+T3bz6zASADqMg2LzgMcV/S4HyjI/oFdEFqLYnD4lQYiupRVcmnfZXPTk3I8OJQGgQ/k6mR9wRb/Lc6WQQ9VYukCFEB1PARflHbYPeOTdXhvc6i4SADpczkn2w97Yb9i9EMpEQSFEZ1IwnnHYJhP8uoYEgC5R8DRvHM1QCg0HyhFHatIjIIRInwLW5Rw2FzwGfbnj7yYSALrMgKe5fthnS2TYX444VIlkR0EhRNud6OrfWvDo96Th70YSALpU3tVcM+RzVcFlfznicCUmligghGgxB8WGPoerCh55Oa2vq0kA6HIngsCWActL1YiDi5GcNy6EaLqMA5fmPa7sd2XL7DVCAsAakXEUVxU8rix4TFRjDiyGzAWy2FoIsToDnuaKfpcNfY5s27vGSABYYzSwPu+wPu8w0zAcXExWDsheAkKI5dLAeM5hY7/LSEZ27lurJACsYSMZzUgmQyOGI7WIQ5WQcihJQAhxZn2u4rI+l0vzHtLur30SAHpAxoEr+12u7HdZCAwvViIOV2NiWUYoRM/TKrnbv7zPZcx3kF7+3iEBoMcUfc01vs/WouVINeZwNWJe5goI0XOGfIdL8skfX7bq7UkSAHqUrxUb+1029rvUYsuRarKnQEVOIBJizco6mg15h8v6XPpkCV/PkwAgyC2tILiq32M2iDlcizlWjQlk5qAQXS/jKNbnHC7Juwx7Wrr4xUkSAMTLFAxnHIYzDjuLlrnAcLQWc7QW05C9BYToGr5WrMs6XJx3GMs4cgyvOCMJAOKMlFInw8COQZhrxEzUk0BQlcPcheg4WUcxnnUYzzmsy8qKfXF+EgDEeSle7hnYNuAxHxom6jETtZiFyCA7EAuRAgVFT3NRNmnwB6V7X6yQBACxMgoGfc2gr9ky4NGILVP1mOONmKlajMwhFKJ1HKUY9jXrcg4X5xyysiWvWAUJAGJVMo5iQ5/Lhj6XGMtM3TBVN0w1Itl0SIjVUlBwNWMZh7GsZiSrZTte0TQSAETTOCQTj9ZlHcCjYSyzdcNUI2ayHlOTiYRCnFfGSYbcxjIO41m5yxetIwFAtExGq5PnEgAshoaphmEmiJmrG+qyzFAIso5i2HcYyShGsw79rk67JNEjJACItun3NP2eZuPSj10jtsw2kh6C2cBQlgmFogdkHcVQJunWH/YdCq6SyXsiFRIARGoyzit7CBqxTXoHGpb5IGYhtHJegehqjoKi7zDka4Y8zVBGS5e+6BgSAETHyDiKi3MuF+cAPCywGFoWgpj50DAbGEqBkU4C0bHyrmbY1xR9zaCnGPRlEx7RuSQAiI6lgIKnKHguG5YeC42lFBpKoWUhMJRCQzk0yNZEop00UPCShn7A0wz4iqKncZW09qJ7SAAQXcXTipGMw0jm5ceMhcXIsBBYSmG8FAosDZlkKJog40DBdZYaek3RU/S7Wu7sRdeTACC6nlYkF2cPwDn5eGgs1chSDg3lyFKOkmBQjWWyoXg1Tydr7gtLk1WT3idNVlp6sUZJABBrlqcVRV9R9F+5rCq0lkpoqUSWSmRO/l2NrRx6tMZltKLPU+RdTZ+j6HM1fW7ymCfd96LHSAAQPcdTikFfMejDqT0GkISD6olAEFlqMdTi5Ot6ZAllVUJH87Qi5yhyriLnaHIO5N2koc87Ck/u5oU4SQKAEKfwlKLoJRO6ziQ0lnoM1chQM0mPQS02BDHUYksQJ3MPJCY0lyJZJeIvNfC+Thr5zNLfeUeTdZAGXogVkAAgxAp4WiVjxZ5z1tdYawkM1I2lvjSsEJgkPATGEsRJT0NgDKGBILY9t4pBA76TfJa+1nhK4TvJOfa+fvnrrJM08hmdHFEthGgeCQBCNJlSioyT3LEWveW9J7KWyFgiA5FNAkLy9cuPRSYZgrBLz0PyGFYljy/926Iw9iybKC299kw8pUC9+jlHKbRSKCyuVqhTXusu3XH7KtnNzlMKVytcBa5SuBpcvfS4Yum55HEhRLokAAjRAVylcB11+pQEIYRoGcnhQgghRA+SACCEEEL0IAkAQgghRA+SOQApaZhkIxqFJefKbmNCCCHaSwJAG1ngSCXi+cWIhfCUhV8Kiq5mU8Hj4rwjR4MLIYRoOQkAbRJay+MzDabqZ1jxbWEhNDwx2+D5Rc3OQZ9BX0ZnhBBCtI60Mm1ggZ9MB2du/E8zHxgemqzz1FxAIKfZCSGEaBHpAWiDA+WQmUa87Ndb4FAl4ngtYvOAz+V9rhw9KoToCP2mys5oL6NmFlBM6yGe9rZQUfm0SxMrJAGgxWJrOVCOLui9gYGfzwccXAzZNuCzPi+7xAgh0lG0ZW6pfosbg0dw7CtvaGLl8EDmTXw9+25Kuj+lCsVKSQBosdnArLorvxJZHpttMFzRbBvwGc7IyI0Qon0ujY/x2fIfM2rmzvi8Y2PeUX+I64Nn+Xzht3nJWd/mCsWFkJakxcph8455mW0YHp6q8+h0g/mg146PEUKkoWjL52z8TzVmZvn98n9jwCy2oTKxWhIAWiy2zR+8n6jH/GgpCCxIEBBCtNAt1W8tq/E/YczM8i9r325hRaJZJAC0WK5Vn7BNgsCDU3UenWkwJ0FACNFk/abKjcEjK37fTY0fk7e1FlQkmkkCQIuNZjUt3dnHwkQt5qHJOg9P1pmox8kyAiGEWKWd0d5XTfhbDpeYa8J9LahINJMEgBbLOpp1bdrUZzYwPDrd4AeTdQ5XIqRPQAixGuvMzCreO93ESkQrSACARqu/wfZBH0e1byF/OTT8dC7ggaM19pVC6rF0CQghVs6uovtyNe9tk54fo5AAgJpv9XcoeJrrh/y2f9h1Y9lbCnngWI0nZhrMBSvvyhNC9K5JPXLh73WGm1hJS7T82t/pJABgF9rxXdbnHd68Lkuf2/5UbIAjtZiHJhv8cKLOC5WI0EqvgBDi3H7mbSZWK9+ALMLhZ+6WFlTURIq2XPs7mQQA2vdDMORrfnE8x45BHzelT74UGn42F/DdI3Uem20w1ZBJg0KIM6uoPA9k3rTi930vcwNVlWtBRc3U+t7fTicBQNnD7fx2WsGV/S6/NJ5jQz69jRhjLMeqMY9MNfiHiTr7SiHVSKYNCiFe6evZdzOll9+dP6lH+Eb+n7WwoiYx9kjaJaRNAoDl6TS+bdZRXD/s809GMxS8dCfLLEaGvaWQ7x+v849TdV6qRoRyEqEQAijpfj5f+O1lhYBJPcLnCx+mpLrgPADFU2mXkLaePwvAwtNpNr/rsg5jmSwvVWP2lEIaKc7Yt8B0wzDdCHCUYl1Oc0nWZV3Owen4Cb1CiFZ5yVnPp4uf5l9Wv81NjR/j8soJxREOD2TfzP+Te1d3NP6ATenmr5P0/GX9vV9+bpOO4/1p1wEQWzi4GPJcOSLqoDtwRylGs5qLsw4X5V1SmMcohOgQeVvjmnAfY0t7BEzpEZ72NnfBmP8rGezGb9627YW060iTXMqtVe+7a98xsONpl3JCwyRHCL+wGNJpS/hdDaMZh/Gsw3jWJSMnFAuxIv1unZ3DBxnNLICC6XqRp2c3UomyaZfWS47de+uWS1Cqw66w7dXzQwAoZblzz7dR/FbapZyQ0YrtRY9N/S7PL0YcXIyIO2TZXmTgeC3meC0GAgqeXgoDmmHfkUgpxFkU/Qq/duUPuHH9kzjqlRNuY6t54Nh1/PWBX6QU9qVUYU+5v9cbf5AAAICFbyk6JwCckHEU24oeG/td9pdDDlXijgkCJ5RDQzk07C8nExvHcw7jGYfRrG7r7odCdLJL+6b43679K0azpTM+7yjDOy5+guuHD/C5p36Nlypjba6wtyij7k+7hk4gqwAAl76/B6pp13E2WUfxmkGfm9Zn2Tzg4XXo/7V6bHlxMeLRmQZ/dzQ5pfDFxYhK1FmhRYh2KvqVczb+pxrLLvDZa/+aAa/Shsp6VqVQ9r+fdhGdQEZwgWf/ble07Z2/sxPUa9Ku5VxcpRjNOFzR55FxFOXQEnVYj8AJFqhElol6zMHFiEOLEXOhITTJpMKMLCsQPeI3r/4uO4deWPbr+9wGOTfg8ZmrW1dUD7OWb3z9M1ffnXYdnUCGAJZoxVeM5Za061gOVyebCV3R73K0mswRmA86exOfukk2HjpWTZYPZZ0kzIxkNKMZTT6trRGFaKF+t86N659c8ftuWv8k//3AjVRlYmDTWdRX0q6hU8hVd8nffGzbj4GfpF3HSmhgQ97lreuy3DCW5eK8i+6SG+t6bDlcjXhqLuCB43W+e6zOT2cDDlUi2ZFQrBk7hw++asLfcrg65poV9BqI5VHw+Ddv3/Jo2nV0CukBOIWy9o+tUl9Lu44LMZzRDGd86rHHi5WIQ5Wo1ZWLhAAADRtJREFUq44BrseGw1XD4aWZGBlHUfQ0Q76m6GkGfUeWHIqusy574dvNr8v1/Fb1TWdgV9o1dBIJAKfQJfPXcdH598CVaddyobKOYsuAx+aCy3RgeLEScbxmsB06V+BsGrFlMo6ZrL+841jWURR9zaCnKfpJOPC7pctD9CS7inWx3fUb2xUOuAuxjP2fQgLAKe6+Y0fwvrv2/j7Wfj3tWlZLKcVYxmEs41CLLIeqES9WolS3Gl6temyp12ImakuhQEG/oxjMOBQ9TdFTFDwJBaJzTNYGU3mveDWl7KfvvmNHkHYdnUSulKezVr3vrr0/Am5Iu5Rms8BcI+ZwNeZILWKtDrV7GgqupuBp+j1NYSkYZCUYiDbrc+v8xVu/uOJ5AJFx+M2HbpdJgM2i1CP3fmzzm2Xzn1eSHoDTKWX54rOfQOsfs8YCkgKGMw7DGYcdgx6TNcNLtYjJevcNEZxLaGA2MMyetjJCgoFot0qU5YFj1/GOi59Y0fu+d/R6afybx2LtJ6TxfzW58p3F++7c86edtD1wK9Vjw5FqzNFa3PHLCVsh7yrGsg4b+1wKnbrLkuhaA16FP3zDnzGWXVjW6yfrg3z6J79FKcy3uLLeoBT/1z23bv1w2nV0IrnanYWTiW8FDqRdRztkHc2mgsdb12W56aIcW4seAz3UEFajZAfDH07U2VsK11RviEhfKezjc0/9GlP14nlfO1kf5HNP3iKNf7NYDoYNPpV2GZ1KegDO4eYv7X2LMvaH9GhQqkSWY7WIiXrMXMP0zKzkK/pddg76aZch1pgBr8otV/6Am9Y/iavjVzwXGYcHjl3P159/uzT+zWOstTfed/u2H6ZdSKeSAHAeN+/ac5eCj6VdR9oCY5msxRytx0zVY8waTwOvH86wPi8bD4jmy7t1rhl6gbGldf5TtUGenrtCxvybzGLvvO+2bR9Pu45OJpMAz2Msv/jJ6Wr/dcDb064lTb5WbOhz2dDnElnLdN0wUU/W6XfThkPLtbsUsD6Xk4gsmq4aZXlkamvaZax1D7sL5jNpF9Hp5PK2DO+562fjrvV+Alyadi2dqBQmYWCqbphtxGtmqOCt67IM+j05+iNENztkI/cN933yqsm0C+l0EgCW6f1ffO56q+OHABmgO4fIwlwQM103TDViFkLTtVuaXTPkc3mfdJIJ0UVqyvK2e27f+ljahXQDCQArcPOde29Ryv4lPTop8ELUY8t0PWZ6KRTUumi4YFvR56qCBAAhuoSxilvuu3WrbPe7TBIAVuj9u/Z80MKfIp/dBanFlplGzEzDMNswLHbwdoTXDvlcJj0AQnQDi7IfvvfWbX+SdiHdRBqxC/C+XXtuRU6VaopGDLNBzFxgmG8YFsKYqEM6CX5xPEfBk18RIbrAp++9besfpl1Et5Gr2wW6edee/6Tgs2nXsdZYa1mMYCGImQ8NC4FhIbC0e2rhgKd5+7qs/IYI0eGstf/hvtu3/UHadXQjubytgoSA9oixlALLfGBO/lmMWzi5UME/Gc2yLiNTPYTocP/x3tu2/vu0i+hWEgBW6f137f6ItepLyMTAtgqtZSEwzAeWxdBQjpL5BM2YUrBlwGPzgLf6/5AQolUs1n7y3tu3fTHtQrqZBIAmuHnXnn+l4C8AaTXSZJNJhqUTgSA0lKMkICxnXoGrFdsHPC7vl4l/QnSwyFo+dN/tW/8i7UK6nQSAJrn5rt3vUlZ9HehLuxZxGgvV2FJeCgblKPm6EQPW0udqxnIOl/Y5cjSwEJ1t0aD+xTdv2/KdtAtZC+Rq10Tvv2vPNdbwTRQb065FCCHWmJfAvPfe27Y/kXYha4WMWzfRPbdufdr69g3A99OuRQgh1g77oI3c10vj31wSAJrsvo9sm5ldOPYrCr6Qdi1CCNH91FdH85Vflr39m0+GAFro5rv2/htl7X8FCmnXIoQQ3cRCSVn74Xtv3/ZXadeyVkkAaLH37tp9hbbqL1G8Oe1ahBCiS/zEsfGv3337jv1pF7KWyRBAi33ztm0vzJaOvR3s/w507sb3QgiRPqssX3YW4rdI49960gPQRjff9ez/pKz+M+DStGsRQogO8wKGD9778a3/kHYhvUJ6ANrovlu3fzfML25dmiAovQFCCAEW1FejgGuk8W8v6QFIyft27bkBxZ9i2Zp2LUIIkZIDGvtv/+a2bT9Iu5BeJD0AKbn3tq0PO6bvtcAfAmHa9QghRBsFoP7zwELmNdL4p0d6ADrAzV/cvVkptQvF/5x2LUII0UrW8oAm/tg9t+94Ju1aep0EgA7y/jt3v9sqdRdwZdq1CCFEc6n9Vtnfv+/WrXenXYlISADoML9xx8Fsudj4uIXPIAcLCSG636Ky6nNVV+/6zkevbqRdjHiZBIAO9e4/2jvqO/YTFm4FMmnXI4QQKxSC+gsnjP7g7k/tOJ52MeLVJAB0uA986ZnLYuN+FuxvAU7a9QghxHkYBffEjvOZb3706gNpFyPOTgJAl/jVO3fvdJT6HPDutGsRQogzsArux8aflQl+3UECQJd5/117rrGWTwC/jvQICCHSZ5RVf2s1/+HeW7f8JO1ixPJJAOhS7/3yc5t0bD4F9oOAm3Y9QoieYxTcY9B/cN9tm3enXYxYOQkAXe79u/ZdabGfRtl/gyWbdj1CiDVOUVfwNe3wh3f/7taDaZcjLpwEgDXiA19+biwy8QeV5SPAhrTrEUKsNWpCYb8Wunz5/t/dejTtasTqSQBYYz5wxzN+NOj8qkLdjrW/kHY9QojupuBJsP9nYSH7f3/tjo31tOsRzSMBYA27+c7db1dKfQT4VcBLux4hRNcIgPtR+iv33rr5wbSLEa0hAaAHvOeun417xrvFKvXvwO5Iux4hRMd6zir+LCb82v237pxIuxjRWhIAesx7v7T7ddroD4H910Au7XqEEKlrKLgf9FfvufXqB1DKpl2QaA8JAD3q3X+0d9R17a8ry78C3ph2PUKIdrP/Qyn+u3H56/s+sm0m7WpE+0kAELzvj5693Lr6FmXVvwV7Vdr1CCFa5iUFf2WM/fP7Pr5tX9rFiHRJABAvs1bd/OV9Nyhj/xfg/cBo2iUJIVZtCvgb4C/vvXXLj6WLX5wgAUCc0Qe+YZ3o2L436dh+wCr+OXBx2jUJIZZtGviOsvbukb7K//fV//X1YdoFic4jAUCc1x13WP3U0L43a2PfZeGfA5vSrkkI8SqHQf2tsubbM6Xj3/nBHb8UpV2Q6GwSAMTKWKveu2vfG7Sy7wL+GXA98nMkRBqsgieMtf+v0vrb935s82PSvS9WQi7cYlWSLYjNO7W177LwT4FC2jUJsYbVwD6srPq2dZ177v3o1YfTLkh0LwkAoml+446D2fli8Esa+w7gl4HXpF2TEF3OKvg5yn7PGPX3xVLmB7Idr2gWCQCiZW7+P/avw4verqz6ZbC/Alyedk1CdD41obAPgv2eddy/lbt80SoSAETb3Lxr3zat4puw6m1W8VYsF6VdkxAd4JiFH4F6UMc8cM8ntuxJuyDRGyQAiNS85yt7LnZiblBW/bK15i1KqW3Iz6RY+44peAjs97Dm4Xtu2/6sTN4TaZCLregY7/nKnou9kLeg7S9Yq94IvBY5r0B0tyrwhMU+ilKPKGseuve27cfSLkoIkAAgOtgv3vEP7sjAui1Gu6/Txr4OxQ02WXao065NiLN4HnhYWR43jnq8rvRPvvPRqxtpFyXEmUgAEF3lnV9+biBn7HUWc52C68Beh1U7AD/t2kRPCYCfW3hSYZ/UVj8ZhPbJ+z+9tZx2YUIslwQA0fU+9CePeZPVgR2a+DqLuk4prsGyA1iXdm1iLVATYJ8BnlbWPmmsfnKsv/ysbK8rup0EALFmvXfXwUF0fZOyeoe2djtW7bDKbgc2Ij/74jQK5iw8C+oZZe2zKP2MDsOf3/2pHcfTrk2IVpCLoOg5H/gvB4qhH21xlNlkUVcBVwNXLf0ZS7c60WKTWPaj7H5Q+xV2v1V6v1N39939e5sW0i5OiHaSACDEKT7wXw4U40xjk7L6KqPZqK29FKsvR9nLLVwGFNOuUZzTPHBIWXUIZV60qEPK8oJVZn/N8fZ/56NXl9IuUIhOIQFAiBV455efG8ja8DKsukIZfRnY9Si1AWvXobgExTiWdchKhWYzwISCCWs5imYCwxGlOGrRh5QNX6i6/kvSwAuxfBIAhGiyD3zDOo2JveNuZC4Cd73CjKMYwTJiLaNoO4xlBPQI2GFghN5bxRAAM8kfO4tiBqtmFMwY7DRWzSilJ5VRR60OjzuXbJu8+1+oOO2ihVhLJAAI0QHe84U9BeW6g1qbfmttwVFqwGIGraWglO3HUlBKDVgYVNZqlBoEsKhBMApUUYG2MAA4gK+g7/TvY5OeibMNYyyo5E779PdUSBrsSEHZggG7ANoq7PxSHXNgrYJ5a20JRRkog1pU6PnY2pJSqqwcVXacYP7u39mx2KSPTghxgf5/K70FWxt4/GAAAAAASUVORK5CYII=;" vertex="1" parent="bjE_prnjRbW4GjXfM1Jb-18">
          <mxGeometry width="60" height="60" as="geometry" />
        </mxCell>
        <mxCell id="bjE_prnjRbW4GjXfM1Jb-10" value="" style="shape=image;verticalLabelPosition=bottom;labelBackgroundColor=default;verticalAlign=top;aspect=fixed;imageAspect=0;image=data:image/png,iVBORw0KGgoAAAANSUhEUgAAAgAAAAIACAYAAAD0eNT6AAAACXBIWXMAAA7DAAAOwwHHb6hkAAAAGXRFWHRTb2Z0d2FyZQB3d3cuaW5rc2NhcGUub3Jnm+48GgAAIABJREFUeJzs3WmYXWd1J/r/2nufc2qUSqPxgPGkwZKBJAwJQwgmTQKdmzSGSDZIJTMkkOQmJP08N8Pt+wGT7vQT0t03t0nSSZzBRpKxpcIODSEJgQBJIIwmQLAtWZbwhGyppFINZz5773U/nCojZMk6VWd41373//cp3ZSlVTr7vO/a6x2WgIhyYdeR/auaqrcI8G4oXnLO//wgFHs1Kf3Z1PadM04CJKKBEtcBEFF/7XjorpcEQfpuBd4GYOwiP16HyMeB5PaDm/b8A0R0EDES0eAxASDy0Ju+c8dEoRXtFMUvAXjxCv+Yw1DcoWHrL6c2vXO6l/ERkXtMAIg88szbvmI3BCM9+mMbEPkYqwJEfmECQJRxOx6443kSRrdC8HMAruvv36ZPQOTDQRD90T3XvfWJ/v5dRNRPTACIMug2vS148MjVrwPCd0P1TQAKAw4hAeSzountJ556/l997sYb4wH//UTUJSYARBlyy6G7L0sRT0LwHgBXu45n0XEI9mmqfzq1dc93XAdDRJ1hAkBk3A49GMqR2o2Lb/s3AYhcx3QBKSCfEU1vX12uffT2l76n5TogIrowJgBERu14ZN91kmA3oO8E5Pmu41mmp6FyMAnj2+/d9PYHXAdDRM/GBIDIkDce+WBpVTLxMyrBuwH9cfjwHRXcr8Dt9bHq/o9f9p6q63CIqC37gwuRB3Yc2rdFArwDincC2OA6nj6ZFeAggP91YMvkN10HQ5R3TACIHHn7d+4YqjXCn/bqbb9Ti1UBtEofntq+s+w6HKI8ys+AQ2TEW47cuT3UcBKqPw/IWtfxODYvwD0pdN/Ulj2fdx0MUZ4wASAagIs04qE2NiQiGiAmAER9tMxGPNTGhkREA8AEgKjHetSIh9rYkIioT5gAEPVInxrxUBsbEhH1GBMAoi4MthEPtbEhEVEvMAEgWiYDjXiojQ2JiLrABICoQ0Yb8VAbGxIRLRMTAKLnkKFGPNTGhkREHWICQHQeGW/EQ21sSET0HJgAEC3yshEPtbEhEdGzcICj3MtJIx5qY0MiokVMACiXct2Ih9rYkIhyjoMe5Qob8dB5sCER5RITAPIeG/HQMrAhEeUGEwDyFhvxUBfYkIi8xwSAvMJGPNQHbEhEXmICQF5gIx4aADYkIq8wAaDMYiMecocNiSj7mABQprARDxnDhkSUWUwAKBPYiIcygA2JKFOYAJBZbMRDGcWGRJQJTADIHDbiIY+wIRGZxQSATGAjHvIeGxKRMRxkySk24qEcYkMiMoEJAA0cG/G4IRCMhUWMBSWUgvD7/reWJiinTZSTBhLl8faBYUMicogDLw0MG/G4UQpCjAUljAVFiDz3V16hqCUtzKdN1FPuXRsgNiSigWMCQH3FRjxuhBJgNCxgXEoonPO236lWmqKSNrCQNJCAVYEBYkMiGggmANQXbMTjxlBQwKqgiJGwgF5+vetpuypQS5vgCsHAsCER9RUTAOoZNuJxI5IAo2ER40ERkazsbb9TsaaoJE0spE3EmvT176Lvw4ZE1HNMAKhrbMQzeAJgeHHSHw7c3IbcSGOU0yYqSRMplwgGhQ2JqGeYANCKsBGPG0UJMBqUMBYVESJwHQ4AIIW2qwJJA01WBQaIDYmoO0wAqGNsxOPG0tv+qqCIIUdv+51qpAnKaYNVgcFiQyJaESYAdFFsxOPG0vG90bCIIGNfVR4ndIYNiahj2RpVaGDYiMeNANLe0BeWUOzzhr5BaWr7OGE5biJB6jqcvGBDIrooJgD0fdiIx42hIMJoUMRYWPL2S6kAakkT5bSJKqsCg8SGRHRevo41tAxsxONGKIKxsISxoISC2NjQNyg8TugIGxLRWTjQ5xgb8bixdFnPcFDERW7mzYWlS4aqSQvgxsFBYUMiYgKQN2zE40ZBAowGRYxHQwj5T35eCRSVpIFy2kQzZVVgYNiQKLc4EuUEG/EMnkAwHBYycXzPmqXjhOW0CeXdw4PChkQ5wwTAY2zE40ZBQowtbugLWePvikJRTpqopE3UUx5vHyA2JMoBjk4eYiOewRMIxsIixoISSivsvkfPraUJymkT5aSBhFWBQWFDIo8xAfAEG/G4sXRZz1hQhPBtfyB4yZAzbEjkGY5YGcdGPIMXSoDRsIBxKaHAt32nWmn7kqGFpIGEJwgGhQ2JPMEEIIPYiMeNpeN7I2EB/OrYs3ScsJY2wRWCQWFDoizjKJYRbMTjRiRB+2reoIjIk6t5fcdLhpxgQ6IMYgJgHBvxDN5S973xoIhhHt/LtEYao5w22Z1wsNiQKCOYABjERjxuFCXAaFDCWFREiHxdzeu7FNquCiQNNFkVGBQ2JDKOCYAhbMQzeEtv+7ysJz+WLhliVWCg2JDIICYAjrERjxtLx/dGwyIC/pPnEo8TOsKGRGZw5HOEjXgGL4C0N/SFJRS5oY/O0tT2ccJy3ESC1HU4ecGGRI4xARggNuJxYyiIMLp4NS//wem5KIBa0kQ5baLKqsDgsCGRExwPB4CNeAYvFMFYWMJYUEJBuKGPlo/HCZ1gQ6IBYgLQJ2zE48bSZT3DQRG8mZd6ZemSoWrSArhxcFDYkKjPOET2GBvxDF5BAowGRYxHQwj5SFMfJVBUknab4mbKqsCAsCFRn3C07AE24hk8gWA4LPD4HjmzdJywnDahvHt4UNiQqIeYAHSBjXgGryAhxhY39IWs8ZMBCkU5aaKSNlFPeQPugLAhUQ9wBF0mNuIZPIFgLCxiLCihxO57ZFhLE5TTJspJAwmrAgPChkQrxQSgA2zE48bSZT1jQRHCt33KEF4y5AQbEi0TR9XnwEY8gxdKgNGwgHEpocC3ffJAK21fMrSQNJDwBMGgsCFRB5gAnIONeNxYOr43EhbAx5J8tXScsJY2wRWCgWBDoufAkXYRG/EMXiRB+2reoIiIV/NSjvCSISfYkOgcuU4A2Ihn8Ja6740HRQzz+B4RGmmMctpkd8JBYkMiADmd8NiIZ/CKEmA0KGEsKiIEr+YlOlcKbVcFkgaarAoMSq4bEuUmAWAjnsFbetvnZT1Ey7N0yRCrAgOUw4ZE3k+CbMQzeEvH90bDIgL/HzGivuFxQidy05DI29H5zUf2XxGl+gcA3uQ6ljwIIO0NfWEJRW7oI+q5praPE5bjJhKkrsPJi4/GgfzKfZt2P+k6kH7wMgHYcWT/Nkn1UwAucx2L74aCCKOLV/N6+TARGaMAakkT5bSJKqsCg3BCgJ/0cY+Ad2P2Ww9/eH2C5AEAG13H4qtQBGNhCWNBCQXhhj4iV3iccGBOhgi3373lbadcB9JL3l1ykyL5XXDy74uly3qGgyJ4My+Re5EEWB0NYTWGnrlkqJq0AG4c7LWNi3PLz7kOpJe8SwBU8GY++71TkACjQRHj0RBC/wpGRN4YCgoYCgpIIkUlabcpbqasCvSKCt4MzxIAv+q3qgLFGtdhZJ1AMBIW8bzCGC4vrsZENMzJnygjQghWhUO4rLAKlxZWYTwssZlWL3g4t3hVAbgN75cHca3rMDKrICHGFjf0hRwwiDKvFIQoBSNYi2GUkyYqaRP1lE3yVkxVIOJNjdmrCsAD2MZZa5kEgvGwhEsLq3B5cRVWR0Oc/Ik8s/Q9f15hnN/zLtyG93v1j+ZVBWD6cxtk42VeHtfsuaXLesaCIsuDRDlSkBBrwmFMhEO8ZGiZfHvJ9CoB2Dz+sMxixHUYZoUSYDQsYFxKKAS8rIcoz5b2+oyERbTS9iVDC0kDCXdRX9D05zYwAbDqidWNYDxlAnCupeN7I2EBHl79QERdKgQBJoJhTETDzxwnrKVNKHOB77Nh47RXy+ZeJQCXRONSbbqOwoZIgvbVvEEREa/mJaIOLR0njHWYlwydo1x82qs3KK8SgEo0KtJsuA7DmaXue+NBEcPsvkdEXTj7kqFGGqOcNnPfnfCSaJwJgFX18IwM53APQFECjAYljEVFhH4d7CAiA0pBhFIQYU20WBVIGmjmsCpQiUaZAFg1MT0sjSHXUQzG0tv+qqCIIb7tE9EABIvHCcfDEhppgnLayFVVoB6eYQJg1VypFQyh6DqMvlo6vjcaFhFwQx8ROfLMJUPRcG6OEw6dWeNVidWrBGA8LEkr9S8TDSDtDX1hCUVu6CMiQ84+TtjU9nHCctxEgtR1aD3XCBe8euvyKgFoBkWR1J9NgENBhNHFq3m9euqIyEtFCVAMhzERDqOWNFFOm6h6VBUYD0teDcVeJQCtoCLFjP9KoQjGwhLGghIK4lW1iYhyQoBnqgKxpt4cJ2wGRSYAVo0sFCUuZbPstHRZz3BQBG/mJSJfnH2ccOmSoWrSAjK4cbAVVLwanb1KAGqFOChk6BhcQQKMBkWMR0Nst0tE3lu6ZCiJFJWkgXLaRDPNTlWgUB3NzgTTAa8SgKGgIAlsP0wCwXBY4PE9IsqtEIJV4RBWhUPPHCcsp02o8buH46Dm1ZuaVwlAHNRFUpuTakFCjC1u6GMbTiKitmeOE2IY5aSJStpEPY1dh3VeQ0HBq8HbrwRAIrE2/YciWBeNYoRv+0REFyRnXTJUTVs4HVeQGKsIxEHdqwTAq/WMoSAy9eFECHBpYZyTPxHRMowEBVxaWGXuJFQstuaYbtn61+1SXGuY+XBEBJcUx9mJj4hoBSIJsLEwDjG0ZGrtJbNbXiUAYThk5vdZFfIcPxFRNwoSYFVYch3GMxr1xKtB3atfJpGmmexsRPzuSUBENAiWxtIiKwB2JUFo5sMpBF790xIROWFpLLX0ktkLdv5le6AodhIAduojIuqepbHU0ktmL3iVACTSMvHhGNqzQkREPWLpJbMXvEoAwqaRDRq2jq4SEWWcjXm32UxtzDE94tUvk5jJzoyEQUTkASsjapF7AOxKjazPmAiCiMgbNsqqdl4ye8OrBCAysgcAYuNhJSLygpGNVVZeMnvFqwQgNZKdqZoIg4jIC1beqcy8ZPaIVwlA0LKxQcOrJ4SIiAAAcatgYo7pFa9+mVQCG3OvjSiIiPxgZEyNJDYSSW94lgDYWAIgIqLesTKwm3nJ7BGvEgAr2ZlwDwARUe8YGVN9e8n0KgEwk53ZiIKIyBM2dgFaecnsFa8SACubAK08rEREPhAjxwBjsTLH9IZfv0ygJn4fYQmAiKhnrLxSBXFkYo7pFa9+mTQMItcxALDztBIR+UBtDKphlNiYY3rEqwQAqYSuQwBg5tYqIiIfWFkCQGJkjukRrxKANLCRnQlLAERE3lErVeYe8SoBMFMBICKiHrJRAdAEXs0xXiUAYSpGsjMbDysRkQ+sVFU1TI3MMb3hVQKAwEYFwMrDSkTkAzOvVKwA2JWmNrIztbJhhYjIA2okBQi4B8CwwEZ2xquAiYh6x8yImtqYY3rFqwRA1cYeALHSvJqIyAdGqqoa2Kgy94pXCQDExh4AK40riIh8YOadyrOTZl4lAIHayM44/RMR9ZCRQdVKlblXvEoAIDbWZ8zcWkVE5AEzI6qROaZXvEoAVP3aoUlERDDTXyVQ9WqO8SoBsJKdmclWiYg8YKaqamSO6RWvEgA1sgeAiIh6x8j0zz0Aplm5CdDK00pE5AUjgyorAHYFVrIzHgMkIuoZKyOqcg+AYUayMzPrVUREHjAzpBqZY3rFqwTAzh4AI1tWiYh8YGRINVNl7hGvEgArNwGKmYIVEVH2WakAKCsAdlnZockEgIiol4yMqdwDYJiV7MzMxdVERNln5qXKyhzTI14lAGIlO+P8T0TUM2JkUFXYqDL3ilcJgJXsLLCSrRIR+cDIJoAAqYk5ple8ymagNhIAZQJAjogCUQUoVIGoLghrQFRXBLEgaAJRC4ACkgKStP8bDQENAAgQF4C0CKSRIh4SJMNAPKSIRwStUeUVF+SEmVVVI3NMr/iVAIhEUPdPipVyFflNFChUBKVZRWlOUFhQFCpynsHyuWdtSb6XDBSbACrn/jft/1ulnQS0xgX11UBzAkwKKFc08GsJwKtfBpqGFnaL8iIg6peoIRieVgydFgzNAEECfO+Z7+9zJwoUy4JiGRh9qv3/l0aC+lqgtg6orwfiEpNf6gMrY2rKCoBZIhIZKABwEyD1VNQQjJwARk4CxVlDO6IBBHE7rpGT7f93c1RQuwQoPw+IR/hFoN4wswQQGNlo3iNe/TJW1mesJKuUXZICIyeA8e/K4qSfDcUKUDwGrDoGNCaA8hWC6kZt7zEgWikrg6qROaZXvEoAVCWykCpaekOjbIkagvHHgbHjQNByHc3KCYChWcHQLJAWBOXLgIUruURAK2NlX5UI9wDYJTb2ABAtV6EMrH60Xeo3kMP2VNACVj0GjD8OVC8B5q8CmmOuo6JsMTKuswJgmEpk4TkxEAJlRFQDVj0mGPuufxP/uUSB0acFoyeAykZg7lpFa8R1VJQFVqqqKtwDYJaIRGqhVGRlvYrMClrAxCPA2PHzHdvznAKjJ4DRaUH5MsXsNUBSdB0UWSZGviSiQcF1DL3kVQKgUBMfjpFnlSxKgVVPAquPCYLYdTCOpcDYk4KRp4HZaxULl8O3u0mpV4xcNqFgBcAshRStbBYhOldxAVj3oKC40P+/Kx4C4lGgOQK0RoFkWJGGQBot3vwXtf9voH2UT+L2ZUBB3L5bIKwJChWgWG3fLBjV+xdrEANrDwvGngJOX69ojvfv76JsMnO3isKrWpVXCYCoFiwsFVl5VskGUWD1UWD14wKkvf/zNWgfuauvBeprFM1RgUadJ8JJAcCzamff/99LLChWFENn2hcQlWbbRxV7qTgPXPpVwdyVirlrzbz0kQFmXuyCZ39TssyrBACBFC1cBcxtgLSkUAXWf1tQnO/tnxsPA5VLgMZaRX0C55yz7/13QCNFYzXQWK2Yu6o9+Q/NAqWZ9qa+qNajvyhtn4YYngFO3cBNgrTISjbICoBhmhYtTL7uIyALxp4C1h6SZ+7Z71YaAtVLFOXL2vfwu0x1NQBqa4HaWsXcdUBpVjB6XDFyQhavJ+5OcR649MuC01sVlUu7//Mo2wxVVZkA2CUmyjN2nlVyQRRYc1gw/mRv/rzmKmD++Yrqxvb6vTUKoD7RrkTMbFGMnARWPdF91UMSYP0DgtI8cGYzmw6Re3qexbIs8ywBUBMVABsxkAtBC9j4TUFptvs/qzEBzF2tqK3r/s8aFA2ByqVA5VLF8Glg9Xe6/7cYf6K9gXL6RTwumFdW7gEAKwB2KaRg4TGxEAMNXlQFLvmGIKp29+c0JoC5FwC1DRb2s6xcbR1QW6cozQpWPwYMT6/8zyrNCp73VeDkD3JfALkjygqAYVK00IrP0HoVDUhpDtj4Denq/v54CJjZkv2J/1yNCcXJiXYCsPawrPhIYVQDnvdVwckfVDRW9TZGss3MmBr4VQHw6toNMXIREGsA+VKaBTZ+feWTv0q7Uc7xH/Fv8j9bbQNw/BWKuWvOPbXQuaAFXHK/YGiG37FcsbIBxLMKgFcJQLsC4J6RR5UGYHhGcMnXV77zvb4GeOqHgZnNuqyz+1mlITB7jeKpl7d/95WQBNj4zfa/PeWDmQqAZ3sAPEsArFQAKA9Ks8CGb67sQhwVYO4a4OQPKVpj/k/852qNKU6+RDF73cp290sCbPgGUDrT+9jIHjvzPysAlnmVnZFdpTlg47+u7Ix/UmpP/LPX5PtomwKYu6q9sW8lu/slbe+7KPX4kiWi5+DVHONbAmAkO8vxqJ4DUXVxw98KJv/GGuCpl+uKy98+qq9t7w2orV1+JSRI2olYtycvyDgrmbJYmWN6w68EwLNrGsmeoAVc8g2saMPfwpXA0z+kSEq9jyvr0gIw/YPA/POX/98GrXYSEDZ7HxfZYKUdsG9zjF8JgNj4cMw0rqCeEm1f8hNVl/c2ogBmr2tv9GNx6MJUgDNbFLPX6rK/QYUasOFbbMXtLzNfHBNzTK/4kwCoCqzca2Boyyr1ztrDWPatdirAzPWKuas4M3Vq7mpgZrsue3QqzQrWPNyfmIgWRYtzjRe8SQB2PDhlZ22GY713xp4Cxp5c5pt/AJx6kaJ8eZ+C8lj5UmD6hbrs+wLGnxCMPtWfmMgdsfNSJe++/3YbL5o94E0CAEOlGUP3VlMPRFXB2sPL+29UgFPbgeqG/sSUB9UNwKkXLr8SsO6QoMBNgX4x0ea9rVYYNjPXdMubBKCQtOxUAFgC8IYosP7bgMSdJ3UKYGaronoJn4NuVTcAp65f3jdKEmD9t4X7ATxi6aNcWJUYmmu6400CoGM2bgEEYGi/CnVr9VEs+5z53HVg2b+HKpcq5q5d3hRQnAdWH+MX0Rd2VgAASUI7c02XvEkAGklqJyvzZ49IrhUXgNWPL++zXLgS3PDXB3NXL/+I4OrH2p8hZZ8YGlOjxJ8bZ71JAETtVADsPKq0Yimw7iEBlnHNb30NcGYTJ/9+ObNZUV+3jP8gBdY9uLzPkOiiDM013fImAQhSQxUAZgCZt+rJdhm5U0lpcdc6P/v+EeDU9uVdG1xcAMaf7F9INCCGvleBsgJgj0dZGbkVtJa5fizA6e2KlE9g3yXF5SdaE9/hLYFZZ2j+92qu8ScBMNIKGOBtZFm35hFBEHf+87NXA7W1/YuHvl9jDTB3dedfsmUndGSOqbt3Cnbmmm55kwAEkaGyjKUtq7QshSowerzzn68vczKi3pi7GmhMdP7vPn4cbBiUZYbeqoRLAPaoqbKMnYeVlmfi6DLOjwfAmS0wVp/MCQFOb5XOlwJSYOJYXyOiPjL1FTM113THmwTA0sYMUw8rdaxQBkZOdv7zc1cCzTEme660xhQLL+j833/0hKBY6WNA1EeWRlUmAOakSA01WbX0sFKnVj8qHRdv4iGW/i2Yvbr9WXREgVWP8ruZSYa+amro2vlueZMAKAJDCQBlTVgHRk50/vNntig07F881BkNF5dhOjTyNBDV+xcP9YelbVUK9Wau8SYBCMxUAAw9qdSxVU90vvbfWMMmP5ZUNygaE539rGi7YyBlj5UkQCFG5prueZMAWKkAePMPmiOSLm/n/yxL/+bMXdP5ZzL23fZnThlj5ChgwAqAPSo2PhRDfaupQyMngLDV2c82VgN1nvk3p7YWHVcBgnh5mz3JBiuTFSsABgm0061AfeXNP2iOjH+386RtOW+aNFjL2ZS5nM+cbLDyciUCE3NNL3gzX5nJyow8pNSZqA4UZzv72eY4lteMhgaqtg5oru4sCSie4WbArBEj+6u4CdAgMfKhePMPmhMjT3c+rMxfqZZOI9F5zF/R2acpAEZO2JhQqDNWKgBmXjZ7wJ/5KrWxCdBS32q6uNEOj/5ppKhu4GdrXXWjIu3weOboSaZzWRIY+bisvGz2gjcJgJUPxUqWShcXNQTFhc5+trKxnQSQbRoC1Us6+5wKc4Ko0eeAqGfsjK2sAJhjpSxjZZ2KLm54uvMJvXxZHwOhnipf2tnPCYCh030NhXrIyshq5WWzF7xJAGDkQwmsPKV0UZ0O/vEQ0OzwiBm511wDxMOd/ewwE4DMsFIB0NTGy2YveJMAiNj4UFgByAZRYGims8+q8jxTV5HTRSg6XwYYOt15/wdyy85kZeNlsxfs/Jt2SY3cA2AkSaWLKJSBIOnsZ3nxT/bU1nT2c0EMFNghMBPEynTFewBMMpGV8RRANpTmOvs5DYDGBF8Rs6axpv3ZdWJojt/ZLLAyWVnZb9YLVv5Ne8HEh8IlgGwodTjoNyY6n0jIDg3a1zZ3ojjLBC8bbIyt3ARokBpJAAKuAWRCp8f/WP7Prvrazib20gK/s1lgZ2hlBcAcMZIAmHlG6YJEgajDdd/6Gr4dZlWnyVtURcetoMkdK2MrrwK2ycSHYidLpQspVKSjAV8BNEf5gWZVa6yzDf6SAlGFn7N1gdiYrrgEYJCVJQAzO1XpgqJqZ697yRBv/8uyNATSDvdrRzV+ztbZSdG4BGCOwMbRDDsPKV1IVOvsU2qNcFLIuuZIZz/HzoD2GTphZWKu6QWfEgATWVnAFMC8qN7ZxB6P8bPMuni0w74AHSaF5I6dW1ZZATDHzhIAWRfWWQHIi1aHFYCQFQDz7Byx5h4Ae8RIAsBdgOaFrc5+rtP75MmuuMMEIGgy2bPOztDKBMCe1EgC4DoAuqigwwSg077yZFdS6Oznwri/cVD37FQAuARgj5EKgJWjKnRhnSYAGlkZcGil0mJnPxe0+FlbZ6i6amKu6QUvZqt3f+1PCwBsvK+xkmiepJ39XBryw8y6Tqs4nT4T5E5g5xRA9NrPfjZyHUQveJEAVFaPmlmt5VXA9nWcAHjxFc+3Tvs4MAHIAEND66pLj5mZc7rhRQLQbHa617f/DD2jdCEdvtgrE4Ds63SEYwJgnqUj1qPFYTNzTje8SAAQhiayMUsPKF1Yp/e+26k40kp1+hmyF0A2WPlKaqNhYs7plicJQGDiw2D1n4iof6xsBFQjL53d8iIBCJPURjmGbxFERH1jpcqaJqGNOadLXiQAEDGRjfEIIBFR/9iY/gEEiYk5p1tezFhpqiayMTMPJxGRh6xcBhQEgYk5p1teJAAIbFQArKxPERH5yEoCgIQVADsEJj4MI48mEZGXzNyzYmTZuVteJABqZAnAygYVIiLqH1UuAdhhJBvj9E9E1D92KgCpiTmnW14kAKI2KgBm1qeIiDxk5cImFTEx53TLiwTATgWACQARUb+Y2WitNuacbnmSANjYBMj5n4iof6wMsQG4BGBHaiMbs/JwEhH5yMwYa6Tq3C0/EgDhHgAiIv/ZGGPVyL6zbnmSANhYArDxaBIR+cnMHgCwAmCHwkQ2ZufhJCLyj5URVuHHKYDIdQA9YiIb4xKAW6NpHdsaj2Fb/XFsSGaxOq2gmMbP/sEbOvwDn+5peORKF593M4gwF4xiOpzAg0NX4sHSC1AJhnoaHmWRmphzuuVHAqAYtjD3Ggghl0bSBl5b+SZeWX0QBT3PhE+0QsU0xoaRqzQ1AAAgAElEQVR0DhviOWxrPIaWfBH/MrINnxt9MapByXV4uWNmjDWy7NwtPxIAsbEEQIN3VfMEds/+A8bTqutQKAcKGuPHKt/CS2sP466J1+Fo8TLXIeWKlWVWK5fPdcuPPQBGsjEjz2Zu/ED9Ebx75hOc/GngRtM63jXzd/iB+iOuQ8kVO8us3ARoh9pIAAwVqLx3TfNp7Jj7Z4RIXYdCORUixc7Zf8Kmxnddh5IbVq4ChpF9Z93yIwGAjSUAX/4xrRtJG5ic/RQiTVyHQjkXIsXb5j6DkbThOpScMPOSZWLO6ZYvc5aRbMzMw+m1nyjfzwGXzBhJG/iJ8v2uw8gFMyOskWXnbvmSAJjIxsw8nB4bS2v44doh12EQfZ8frh3CWFpzHYb3zOyzMnL3TLeynwCoCoCi6zAASxtU/HVD/VEEynV/siXQFDc0HnMdhvcMjbGlxbkn0zKfALz90TvNHMbN/NOQAdc3HncdAtF5XV9nAtBvlsbYNz7yByZePLuR+QSgFRfMfAiWHk5frUvmXYdAdF5rkwXXIeSAnVG2kIyamXtWKvMJQBNNOxUAMwtU/lqV8Mw/2bQ6qbgOwXuBoSF2VIbNzD0rlfkEAGmY+SyMOlfSlusQiM6Lz2b/2bkGAFCVzM892U8APPgQiIioE4ZKAFrP/NyT+QQglchOGSb7m0KJiMwSQzWAxNLcs0KZTwCK2rKThXH+JyLqG1NDrAfV58wnAKmEZrIwS9kpEZF/7KQAoaRm5p6VynwCoGrjEiAAhq6pIiKivmIFwAI7H4KhTlVERNRfZuaelcp8AqCwU4bh/E9E1D+GrgJGCjUz96xU5hMAGMrCuAJARNRHlsbYyM7cs1IeJACWlgAsPZ1ERL4xVGflHgD3Ag/KMEREdHGWXrIUkvm5J/MJAAJDZRg7zyYRkX9MjbGpnblnhTKfAGjKCgARUR5Ymv8DVgAMsFQBICKi/jG0BcDS/rOVyn4CYOhDsJSdEhF5x9BRK1OX0K1Q5hMASxsx7DyaRETUX9lffs58AhCopY0YTAGIiPrG1BIAKwAWZP5DICKiizO0AgBLy88r5UECkP0PgYiIssZS9XllMp8AWNkDYCszJSLyk5WxVozMPd2IXAfQNdXIwtK7pRuqiM6mCkzXN+DJ8mU4WduAucZqlONRtNICAKAQtDAWVTAxNIsNQ6dwxdhxbBiaNjPQEp1NYGMrgCoKrmPoVvYTANHAwuY7S12qiACg2hrBv81sx+HZ61BujV3w5xpJCY2khNONtTg6dw1wAhgrlrFl9SN44doHMFKoDjBqoucmGgBIXYcB8WDQz3wCIJDAQjbItyWyopGU8NWTL8EDM1uRaLiiP6PcHMP90z+Ab5x6IbavPYSXbfwaSmGzx5ESLZ+VoVY9WELPfAKgisDCE5H5J4G8cGz+Kvzj8VejFg/35M9LNMS3Tm/HI3PX4DWXfR7XrHq0J38u0UqJiI01gHYpItMy/wtArPwORsKgXFIIPv/UK/F3j7++Z5P/2arxMP7u8dfj80+9Amoh46bcsvL0iQaZH/QzXwFoLwG4Twe5BECuJBriU0+8Dsfmr+r73/Wt0zeg3BrD65//GYSS9P3vIzqXlaV3BSsAzqmRMoyNR5LyRiH49JOvHcjkv+TY/FX45OM/jtTGV49yxtDLVua/AJn/BaA2fgcrWSnlyxeeekV75/6APbrwAnzx6ZcP/O8lsjLWimY/A878LyBGyjA2HknKk2PzV+Fbp7c7+/u/efqGgVYeiAA7Y62KmJh7upH5X0DFxkYMQ2UpyoFmUsQ/PfUqx1EI/un4q9FIMn8hGmWKmcHWxNzTjcz/AmYWIt3vQ6Qc+fKJl6LaGnEdBqrxML568iWuw6AcMfOyZeYE2spl/hdQsfE4WFmXIv9V42E8dGar6zCe8cDMVlRi98kI5QRftnom8wmACGycRbKRh1AO/NvpGxCv8Ia/fkg0xLcd7kWgfLEy1IqqjbmnC9lPADR1fyk0wKyUBkIVODx3neswnuXh2eug/A7QIBh5zhRiY+7pQuYTAKiNCoCVrJT8Nl3fgHLzwo19XFlojWG6vsF1GJQHVsZaMdCRqEuZTwBUsp+FEXXqyfLlrkO4oO+WL3MdAuWAlfnfystnNzKfAAA2PgQzDyV57WRtvesQLugkKwA0CGpjtBUuARigVsowNh5K8ttsc8J1CBc0W1/tOgTKASMHv6BiZP9ZFzKfAIiRdRjlDigagIqBs/8XUknsxkb+MDPWcgnABBsfgo2klDzXSguuQ7igVmI3NvKHipUEgEsAzqmRDyG1cjaFiMhrNt62JLBRfe5G5hMASNpyHQIAM2dTyW+FwMbjfj6F0G5s5A8rSwCqGruOoVvZTwBUGq5DAABYKUuR10YLVdchXNBoaDc28oeVkVZU6q5j6Fb2EwDY+BCMJKXkuYnirOsQLmhiaM51CJQHRl62NICJuacb2U8AgtRGBYBoADYOn3IdwgVtHJp2HQLlgJWXLYWR6nMXsp8AGKkApFaeSvLaFWPfdR3CBV0+dtx1CJQDVkZaUVYAnFMrH4KNjankuQ1D0xgrll2H8SzjhTI2sAJAg2DmZSu1Mfd0IfMJQAAbCYCVR5L8JgJsWf2I6zCeZcvEETbEooEwchOwnZfPLmQ+AUihJtZhuARAg/LCdd9GJDbuvwKAUBJsX/eg6zAoJ6zcuRIYWX7uRuYTgMBIFqZGHkry30hUw7a1h1yH8Yztax/CaMQjgDQYqZEr+HkKwIIgqLkOAWAFgAbr5Zd8DSMG7gQYiWp42cb7XYdBOWJj+gfUyPJzNzKfAEiiJnZEWSlLUT4UgyZec+kX4Hb3ieLHLvs8SmHTYQyUN1aqrYJgwXUM3cp8AoAoNXP7iJUHk/LhmlWP4kXrHnD29794/bdx9apHnf39lD+WXrRE7cw9K5X5BKClkZkPwUppivLjVZd+CdeuPjbwv/eq8cfwyud9eeB/L+WbpaVWSWMzc89KZT4BSBM7H4KVzSmUHwLFv7vic7hmgG/i16x6FD955T9ADL2NUT5YqrIGraKZuWelMp8AnHn6yjkYOYaf2AiDciaUBD955afx4nX/hv5+FRQvXv9v+MkrP43Q0DFEyg9DFQA9fvoy7gFw7XM33hgDcL8dGrbWpyhfBIpXXfolvOHKT2Mk6v3BmJGohjdc+Wm86nlf4ps/OWNojK0szj2ZFrkOoEfmAIy6DsLQw0k5dc2qR3H56HF89eRL8cDMViQadvXnhZJg+9qH8LKN93O3PzlnqMqa+fI/4FcCcJnrIBI75SnKsVLYxKsv/Rf80Ppv4Nsz23BobhPKzbFl/RnjhTK2TBzBDWsfNHHfABFgagmACYAhJj6MVLkuSnaMFKp4+SVfw8s2fg3TtQ34yLE3dfTf/ey1H8WGoWne7U/mJFbOWqmYmHO6lfk9AACgUBNN0mM75SmiZ4gAG0c679S3cZiTP9kUq5EEwMic0y0vEoAAcsJ1DIClh5OIyD9mlgAEJuacbnmRAED1adchAEDCewCIiPomtrMEYGLO6ZYfCUAQmMjGEjHycBIReSgxUmVVURNzTre8SAA0tfFhqPIkABFRPyjUzhIAKwCGBIGZDyMBTwIQEfVay8jbPwBAUjNzTje8SAAkic18GNwISETUe7GhY9ZpEpqoOnfLiwQgLQ6b+TDi1EiJiojII5bG1lZQN/PS2Q0vEoCpa3fOQW30A4jZJIWIqOdadpZXKx/b+q7MNwICPEkAAACCx1yHAAAtHgUkIuo5K8urCnnUdQy94k8CABxzHQAAtAytUxER+aKZ2mi+J6om5ppe8CgBsPGhxJrC0FIVEVHmqaqZToAS2HjZ7AWPEgB8x3UAS2LYyFSJiHzQNFL+B4A0tTPXdMubBMBSWcbSw0pElHWGNgBCQjtzTbe8SQBSDc18KE1lBYCIqFcaRtb/ASBBamau6ZY3CcBQMz0G2FgkaqR2slUioqxr2tlcrSPV4FHXQfSKNwnAvhfvqQA2WjS2WAEgIuqZlp2XqhOLc40XvEkA2uTbriMAgFR5HJCIqBdamiC1UdwFgH9zHUAveZUACPRbrmNYwmUAIqLuNUxVVO3MMb3gVQKQiprJzuqmHloiomyqG9oAKBAmAFYFYufDsbRrlYgoqyyNpakEZuaYXvAqAZjHmQcAtFzHAbTXrRLwPgAiopVKoGjZuVclLsvph1wH0UteJQB/u+m9DYU87DqOJZYyVyKirKknhsZQwaG/3fTehuswesmrBACwtRGwZunhJSLKmJqaKOgu+abrAHrNuwRABf/qOoYlxh5eyrkouHhCWgj4zJIdtaTpOoRnKBMA+8IEX3Adw5JYU0sXWFDOrR06c9GfWVOaHUAkRBfX1MRMB0AAgKSfdx1Cr3mXACRp6WtQVF3HsaSa8o2KbNg6cfHtMdevOTyASIguztjYWUNz+H7XQfSadwnA1PadTQi+5jqOJVwGICu2r30IV6969IL/+zWrHsW2NV5tcqYMqxlKAFTw5antO+2sR/RI5DqAPvk8gNe4DgJoX2IRa4pIvMu1KGMEijdc+Wk8OLMVD81uwUx9DQBgbekMrl9zGNvWHoI4jpEIaB//s3SKSlLxrvwPeJoACOTzamjtqJI2sTocch0GEQSK7Wsfwva1fNMnu8qxsdN26t/6P+DhEgAARAG+AMDM7rtq6l3liIiobyqGyv8AEi0Ofcl1EP3gZQJw16bd8wqYuQ+gkSbsDkhE1IGWJmga6qWiwLemrt055zqOfvAyAQCAQPVvXMdwtrKh86xERFYtJLbK/6LyCdcx9Iu3CQDC4K9dh3C2hbRhqac1EZE5ivaeKUuCIDU1l/SStwnA9dc98hUAJ1zHsSRV5V4AIqLnUEmaSNTUi9LJrZuOfdV1EP3ibQJwm9yWCuRvXcdxtvmYCQAR0YXMp7bK/xD969vkNjPtCHvN2wQAAFTUVOmmqTHqtna3EhGZUEtbaBo6+w8AqraWknvN7wSgVfokAFMp5Zmk5joEIiJzZu2NjY2GNj7tOoh+8joBmNq+swyRz7mO42yNNEGVJwKIiJ5RSVto2Guc9tmPbX3Xgusg+snrBAAAVNO7XMdwrjNJHeCJACIiAIrZ2Ez/tmeIYr/rGPrN+wRgqI77AJjK4lqaYM7YWVciIhfm4gZaam6fXTlNSv/bdRD95n0CsO/FeyoCudd1HOeai+tI7D30REQDk2iK2aTuOoxnU0xNbd9Zdh1Gv3mfAACAqux1HcO5UihmYnObXoiIBmYmrsJS47YlGuqHXMcwCLlIAA5uedvnAHzHdRznqqRNHgskolyqpS1rTX8AAAI8tv26Y//sOo5ByEUCABGFirnNgABwKq7yimAiyhVVxYzBjX8AoIK9Pl/+c7Z8JAAAkkDugKEWwUtiTTHLpQAiypGZuGZx4x8AJAmCO10HMSi5SQDu3bzrmEJM7uqcTxqoG2p/SUTUL7W0hQVrV/4uUXz03s27jrkOY1BykwAAgCj+X9cxXMipVgWprSYYREQ9lUJx2mjpHwA0TP+H6xgGKVcJwMGtu78A4Euu4zifWFOcMvzFICLq1ulWBbHN0j8AfHVq061fdB3EIOUqAQAAKH7fdQgXUk2bWOA1wc+pIQXXIRCdV12KrkMwbSFtmNz1v0RVfs91DIOWuwRAt5TuFcDsGs+ZuIqmmturaMZcOOo6BKLz4rN5YU1NcKZlebOzPDr91OUfdR3FoOUuAZiSnQlU/sB1HBeSQjHdqvBo4AXMhOOuQyA6rzPhmOsQTMrCmKaq/9/nbrwxdzuxc5cAAMBwqfUngD7hOo4LaWmCU3HFdRgmPTT0AtchEJ3Xg0NXug7BpFOtKlq2q5rH66uqf+Y6CBdymQDcefU76kDwn13H8VyqScvmHdmOfbv0AqSSy8eWDEslwAOlq1yHYc5sUkc1tb2vSYD3ffyy9+RyB3ZuR1LdXPxLAA+5juO5zMY11AxvmnGhHAzjy8NbXYdB9H2+NLwV5WDYdRimVNNWFi45e/jE8SvudB2EK7lNAKZkZyKq73Mdx8VMtyrWy2cD9/djL0E1KLkOgwgAUA1K+NTYS1yHYUpLE5xqZWAZU/Cf8rj2vyS3CQAAHNgy+REYvRdgSQrFiVYZieENNINWDUrYN/F6xBK6DoVyLkGAD69+HRPSs6SqOGF80x8AKPC1g5t23+c6DpdynQBARDXQ33IdxsXEmuJkq2z86zRYx4rPw9TqH0WS80eY3EkQ4ODEa3CkdLnrUMxQACdaZcQZqFqGkN+CSK6HVXEdgAU7Du/9uED+D9dxXMxwUMDGaAzCT+0ZVzVPYNfcP2BVkss9PORIORjGhyduxNHiZa5DMeVkq2J+0x8AQPHxg1snf8Z1GK7x9QlAkoS/DIX5GaSWtnAqycC62gA9WrwEv7/uLfjH0RehJZHrcMhzLYnwj6Mvwv9Y/7Oc/M9xKiuTP1BLguDXXAdhAd8lF+08vO82AOY3BQLAqrCEtdGI6zDMGU3r2NZ4DNfXH8eGZA4TaRnFNLf7e6gHmkGE2WAM0+FqPDR0JR4svQCVYMh1WObMxFXMJ0Y7/J1DIe+b2rL7t13HYQETgEVvPPLB0ni65lsANruOpRNromGsDjkQEZFbs0k9C8f9lhwdKcY3tO+CIS4BLPrbTe9tINX3uo6jU2fiGuZ5URARObSQNrI0+UMFv8rJ/3uYAJzl4PV7PgnBx1zH0amZuIYKuwcSkQPVtIXTLfNbp8720anNk59wHYQlTADOEcfBewHMu46jU6fiKm8LJKKBqqUtTGfhop/vmY8Tbvw7FxOAc9y3bddjUPmPruPolEJxslVGlUkAEQ1ALW3hZKsCzdDNJCr6q/dt2/WY6zis4SbAC9h5aN9HIHiL6zg6JQA2FMYwEhRch0JEnqouvvlnafKH4GMHN0/+B9dhWMQKwAVo2PpFACdcx9EpBXCyVUY5G+dwiShjKkn23vwBTIdR+G7XQVjFBOACpja9c1o0fY/rOJbrVKuCMjcGElEPVZImTiVlIFuTPyD4xbuveVtmXuQGjQnAcziw9db/DeBDruNYrlNxhZUAIuqJStrEqaQCzdjcD8UdBzdP3us6DMuYAFyERqVfFeCY6ziW61SLSQARdaecNtpr/hmb/AU4VgiFu/4vggnARUxdu3Mu0PSmLPQKONepVgVzvCyIiFZgPqnjVLbO+S+pI8COuzbtzsxxbleYAHTg7q23fguQzO0HANo3Bs6wUx4RLcNsXMNMhm74O5sIfunApsmvu44jC5gAdOjg1t37BbjddRwrMR83cCquInMbeIho4E7FVcxmtXKo8icHNk/e4TqMrGACsAzzwZn3Aviq6zhWopw0cKJVQcokgIjOI128VKycka5+z6ZfWQhnuO6/DLwIaJlueeTu56dJ/HUA613HshIlCbGxOIaQuR8RLUpVcSIuo5HZ9tk6E6TJS+65/h2Puo4kSzgLLNM91731CQlkF4BMflMamuDpZhkxUtehEJEBiSqejhcyPPkjhujNnPyXjwnAChzYtPvvBfhF13GsVEsTPNVcQFMz+4Unoh5oaozjrXk008R1KCsmkF89uPnWT7uOI4uYAKzQgS2Tfy6K/+Y6jpVKNMVTbCJElFu1tIWnmmUkmt1qoEB/98CW3f/LdRxZxQSgCwe27P5NCO5yHcdKqbY3/cxm9LgPEa3MfFLHiVY5a/f6fz+Rqes3H/t/XIeRZUwAuiGiI4X45wB8wXUo3ZhN6jjNY4JE3lMFZjJ8xv979Cu1scrbb5Pbslu+MICnAHrgpoc+tK4QBP8CYLPrWLoxFETYGI0hED4WRL5JVTEdV1DL+LKfAMeaob7ir67bc9J1LFnHkb5H3vLgXZvCMP0CgA2uY+lGQQJsLIyhIKHrUIioR1qa4mSrjJZmd7PfoukkCV5177ZdR1wH4gMmAD108+F9L1boZwBZ6zqWbgQi2BiNYSiIXIdCRF2qpS2ciitIstbR59nmNA1+fOr6Xfe7DsQXTAB67OYj+39EU/17AOOuY+nWmnAYq6Mh12EQ0QotJA2cjmvI/P4eRTUQvOGeLZP/7DoUnzAB6IOdh/a/CqKfBDDqOpZujQVFrCuM8kEhyhCF4nRcRTnxoiV4DRr81MGtuz7rOhDfcFzvk5uP7P8JTfVjAEquY+lWUSJsLIwiEh4aIbIu0RQnWhVfLvpqqeCmqc2Tn3AdiI+YAPTRjsP7bxLoQQCZX0znvgAi+xppjJNxJdOX+5wlUciuqS27D7gOxFdMAPrs5sP79ihwBzy4c0EEmAi4L4DIooWkgZm4mvXV/iUpVG49uHX3fteB+IwJwADcfHjvLQrZBw8qAQAwGhaxPhyB8L4AIucUwExcxUJm2/g+SwLIuw5u2f0h14H4jiP4gOw4tO9nRHAQHuwJAICiBNjA+wKInGpqilNxOdPNfM7RUpW3TW3d/RHXgeQBE4AB2nl4778H5F4AXtTQBYI10RBWhV78OkSZUk4aOJ3UoNk/37+kCeDmg1smP+o6kLxgAjBgtzy077VpgI8DGHMdS6+MhgWsi0YR8HEi6rtUgZmk4ssRvzZFVUK56cCm3X/vOpQ84YjtwC2H9/1oCnwCHlwWtKQgITYURlHkkgBR37Q0wcm4gpY/JX8AqKjqz0xt3fMZ14HkDRMAR245tPelqeCTWb82+GxcEiDqn3LSwExcQ+rLPv+2OQ3SN05tuvWLrgPJIyYADu14+K4fEE3/BsClrmPppZGgiPWFES4JEPVACsVMq4py6lHJv+0pleDfT23e9Q3XgeQVR2jHbnnojqvSIPo7AFtcx9JL0eKSQIlLAkQr1tQY060KWn5c7HO2oxriDVPXTT7iOpA8YwJgwI4HDq5F1Pi4AK90HUsvcUmAaOU8LfkDwFc1aP3U1KZ3TrsOJO+YABgx+c29o40hOQDgp1zH0msjQQHro1EEvDiI6KJSKE63qqj4V/IHgE/VtfmWj21914LrQIgJgCk79GAoD9f/GJCfdx1Lr0USLC4JeHEZIlFfNDXBdKvsY8kfAPZOLFR/7vaXvqflOhBqYwJgjarsfHj/+wC8z3UovSdYEw6xlwDReSwslvzVv5I/oPLBg1t2/RpEPPzlsosJgFE3H97/Swr9n/Ckf8DZuCRA9D0KxalWBZXUyxfjWBXvndo6+ceuA6Fn4whs2I6H971eFFMAVruOpdciBNhQ5JIA5VsjTTAdVxCrVxf7LFkQkbcd2Lz7r10HQufHBMC4txy5c3uYhh8HcLXrWHpNBFgdDGEiGnYdCtHAzSd1nIlrPhb8AeBJleCnecbfNiYAGXDTQx9aVwiC+wC8xnUs/cAlAcqTFIpTcRVVn+7y/35fCgvhm+6+5m0nXAdCz40jbka88cgHS+Ppmj8HsNt1LP3AUwKUB43Fi31iP3f5AyJTOly8der5O2uuQ6GLYwKQJaqy8/D+34DgvwIIXIfTa1wSIJ/NJ3XMxHXAz6K/QvB7Bzft/r+50z87mABk0M6H970Vir8E4OV5uqEgwoZoFKF4l+NQDiWLu/xrfu7yB4A6BO88uHnybteB0PIwAcioW4586Ac1Df5KgRe4jqUfAhGsD0cxEhZch0K0YnWNMd0sI/HzrR8AvhuIvuWezXu+7DoQWj4mABn21sMfXp8gPgjIja5j6ZfRsIh1ETsLUrYoFGeSGubjhutQ+ukLGsc/O7X9HU+7DoRWhqNqxr32s5+NNl7+5H+B4jddx9IvBQmxIRpFMWBnQbKvqSlOtcpo+nm2HwAgwO1pXPqVqe07vT3KkAdMADyx4/DeSYHcDk/3BQiANdEwOwuSaeWkgdNJDarelvybgPzywS27/8x1INQ9JgAeueWhfa9MA3wEwKWuY+mXkaCI9dEI7wwgU9rX+XrbwW/JtAa6Y2rTnn90HQj1BkdRz9xy6O7LUonvBfAjrmPplwiLdwYEvDOA3GtoglP+dvBrU3xdC3rT1LV7HncdCvUOz1l55p6tbz2+EJx5LUT/0nUs/RIjxdPxAmZj3jVCbs0ndTzVXPB68hfgLxbCM6/k5O8fVgA8dvPhfXtU8ccQjLiOpV+Gggjro1FEvDOABiiBYrpZRl1j16H0U0MVvzm1dfJ/ug6E+oMJgOcW7wv4iALXuI6lXwII1kUjGA2LrkOhHKgmLZxOKkj83egHKB5XCXZMbdn1FdehUP8wAciBXUf2r2qleieAm1zH0k+8M4D6KSdn+wHgbzQuTU5t3znjOhDqL46UefG9PgK/A8DbA/UFCbGxMIqCePsrkgN5ONuPxfv8t206+p9uk9v83dRAz2ACkDO3PLTvtWmAewBc4jqWfhEI1kRDvDOAeiIHZ/sB4BRS3X3w+j2fdB0IDQ4TgBx685H9V0QJDkL0Fa5j6aeRoID10SjvDKAVycnZfkBwf5DEP3vP9e941HUoNFjcOp1D923a/aQmxdcK8IeuY+mnatrC8dY8GqnXO7WpDxppjO82572f/AX4Q22VXsnJP5/4apRzOw/vexMEfwnFGtex9NPqaAhrwiHwkafnoto+238mqQP+dvADgHmFvHtqy+4DrgMhdzgaEt784F0viML0Hnh8eyAAlCTE+sIYCrwzgM4j1hTTccX/ipHi6xrh5qnrJh9xHQq5xZGQcN+2XY8tBGdeC5UPwuPXnoYmeKo5j4XE+2NctEzVpJmL5SIBbl8Iz7ySkz8BrADQOW4+9KH/oEFwh+9LAqNhAetCbhDMO4XidFxFOfF7rR8s+dN5cPSjZ9lxdO+VEssBeL4kECHA+uIohoRNhfKooTGmW1XEfp/tBwT3iyQ3H9j09qOuQyFbmADQeb32s5+NNl7+5H+B4jfg+XOyKiphTTji9y9Jz1AF5pIaZpO661D6ToDb07j0K1Pbd3pf4qDl45hHz+nmh/e+WVX+AsCE61j6qRSEWB+OoRBwW4zPYk0wHVe9X+uH4Kcnp+oAAAz8SURBVAwU7zy4ZfKjrkMhu5gA0EUtLgncBeDVrmPppwCCNdEwxsOS61CoD6pJE6fiKlJ/97ku0q8kEr713s27jrmOhGzj6w5d1NS1ex4/efyKGwG8H4C3C6bp4oawk60KUr+vfc2VFIrpuIKTccX3yV+h8sGJhdqrOflTJ1gBoGXZeeiuGyHpfgCXuY6ln0IINhTGMBRwg2CWNTTGqVYFLfW+t81JpLqHd/nTcjABoGV76+EPr0+Q3Angp1zH0m/cIJhNedroB8inNW5NTm1/x9OuI6Fs4bhGK6MqOw7vf68IPgDA60XzYhBhQzTCFsMZkZsb/YAYwO9s23z0t9m+l1aCCQB15eYj+34IintUscl1LP0kANZEw2wxbFw5aWAmqSL1eqkfAORRCfDWA5t2f8l1JJRdTACoaz9z6C/Gh6X0RwqddB1Lv40ERayLRhDyBkFTUihO56F1LwCITDULrXd/9Op3zLoOhbKNoxj1zM2H9+3Rdovhcdex9FMoAdZHIxgOCq5DIQD1NMapuILY/41+CwL88oEtk3tdB0J+YAJAPXXLQ3dclQbRPnh+ZwDADYKu5WujH76aJMGue7ftOuI6EPIH7wGgnrrn+nc8evL4FTdC8VsAWq7j6af5uIGnW/No+v/maU5TUzwdz+dh8k8g+MDEQvVVnPyp1/jyQn1zy8N7fzhVuQvAta5j6SeBYE00xA2CA1JOGjid1KC+X9akeBxBMHlw865/ch0K+YkJAPXVriP7V8Up/jAPGwSHJMKGwhg3CPZJghSnW1VUU68LS20iU1Fd3vPhF+064zoU8hdHKhqImw/t3aGB/CkUa1zH0k8hAqwrDGMkKLoOxSu1tIXTcTUPG/3mVfDrU5snb3cdCPmPCQANzGJToX0AXuM6ln4bDYtYF44i4DesKwrgTFLFfNxwHUrfKfDlIEh2Hdj09qOuY6F84CZAGpipa/c8rptLr8vDBsFK0sTx1lwebqPrm0aa4HhzPg+TfwzBB9YsVH+Ukz8NEt9PyIkdh+96uSC9C8B1rmPpJxFgVTiENeEQ+HXr3Fxcx2xS87t3HwBAHlWkk1Nb9nzedSSUPxyRyJn2DYLF/67Au13H0m8lCbE+GkMhYNHtucSaYDqu5qNywhv9yDEmAOTczof3vQWqtwOy1nUs/RRAMMHjghdUThqYiWtI/X/vnxPF/3lg6+RdrgOhfGMCQCbc8sjdz0/jeB8EP+Y6ln4bCQpYH40i4HFBADm7x1/li0kgu+/dvOuY61CIOAKRHd9rMfx7ALw+RxdCsK4wipGc9xOopy1Mx1Uk/h/viwH8jm4u/ecp2Zm4DoYIYAJABt1yaO9LU5G7AGx2HUu/jYclrImGEeTsq6hQzCZ1zMXeX+ULAN8JUuy+5/rJf3EdCNHZ8jXqUGbseOLgsFSavwvR97qOpd8KEmJDYRRFCV2HMhCtNMF0XEFT/X8RFsi+NC7+0tT2nWXXsRCdiwkAmbbj8P6bBPpnANa5jqW/BBNhCRPRsOtA+mo+qeNMXIf6v9FvFoJfOrh58m7XgRBdCBMAMu+txz58SdJK7gTwBtex9FspiLA+GkVB/DoumEAx3SqjnofjfcBn4kBuvW/T7iddB0L0XPwaZchLd1/zthPbNh/9KRX8BgCvr4VrpDGON+dRTvz5NatJE99tzuVh8m9A8OvbNh99PSd/ygJWAChT3nLkzu1hGu4H8AOuY+m3kbCI9eFIZo8LKhSn4ioqSQ6O9wEPBkG6+55Nt/6r60CIOsUKAGXKvZve/sBIMX4FBB8A4PXZsWrSxPHmfCbfnJcqGTmY/FWA22vj1Zdx8qesyearBRGAHYf2vk5EPgTgCtex9NuqqIQ14UgGvrCK2biO2SQXx/ueFsg7D2zZ/beuAyFaCfvjCdFz2HH04GqJG38IYLfrWPqtGIRYH46iGNg8LtjSBNOtKpqavYrFsolMaav4C1Pbd864DoVopZgAkBduPrR3hwr+xPd+AgJgTTRsrp/AQtLAmXzc4z+vgl+f2jx5u+tAiLrFBIC8sePo3islxp2A3Og6ln4bkgjrC6OIHB8XTKA43aqgmracxjEICvxLKsEk7/EnXzABIL98r5/ABwCUXIfTTyECrItGMBK66SdQTZs4HVeRqPdv/S0A/3Xb5qO/fZvc5vXGU8oXJgDkpTwdFxwPSlgbDUMGdFwwVcXphMf7iLKOCQB5641HPlga1zXvh+LX4fmR10hCrI9GMBREff17amkLp+MqYv+796kAf1Ydr/7Hj1/2nqrrYIj6gQkAea99XBB3AvJ817H023hYwtqw99WAVBVnkhoWPLqh8DnweB/lAhMAyoUdRw+uDuLmHyh00nUs/dbuLjiCovSmGlBJmpiJa0j8vnepjcf7KEeYAFCu5OW4IACsDocwEQ2v+EveSlPMJFXUcrDDH8CcCn6Dx/soT5gAUO7c8sjdz0+T1ofycFywIO2TAkNB5ycFFMBcXMNc0shD214e76PcYgJA+ZSj44IAMBoWsTYcQXiRvQE52uQH8Hgf5RwTAMq1PB0XjCTA2mgYI0HxWf9bCsWZVg0LaS42+UEhD4RBMsnjfZRnTAAo9/J0XBBoJwJjQRFjYQkCoJq2MBfXEedhkx+P9xE9gwkA0aI8HRfMKR7vIzqL9287RJ2a2rrnMxoNvVAg+1zHQj0mMqVxaTsnf6LvYQWA6DxuPrxvjwJ/BGDMdSzUlZoKfo3H+4iejQkA0QXsOLRviwjuQQ42CHrqQUn05gPb9nzbdSBEFnEJgOgCprZOHh4pxq+Aygddx0LLI5B9tfHqyzj5E10YKwBEHdhxeP9NIvoXUKxxHQs9p3kIfuHg5sm7XQdCZB0TAKIOvfnBu14QBXo3RF/hOhY6D8H9GuCWqesmH3EdClEWcAmAqEP3bdv12MmnLn8NgPcD+Tg0nxEKlQ9qq/RKTv5EnWMFgGgFdh7Z+9NI5Q4A61zHknNzqvJzU1t3f8R1IERZwwSAaIXefGT/FVGqdwN4tetY8km/oopbprbu+Y7rSIiyiEsARCt036bdT548fsWN4JLAoClUPjixUHs1J3+ilWMFgKgHdjy87/Wi2Avgea5j8dzTKtgztXnyU64DIco6VgCIemBq8+SnNGi9SKF/7ToWj30qTvBDnPyJeoMVAKJeUpUdR/b/vKT4fQhGXIfjiQYU79u25eh/u01u41ILUY8wASDqg7ccuXN7mIZ3A3ih61iyTKCHJNC33bPp1n91HQuRb7gEQNQH9256+wMjxfjlvEZ45QSyr1jHSzn5E/UHKwBEfbbj8P6bBOmfA7LWdSwZMSfQXziwZc89rgMh8hkTAKIBuOWRu5+fxvE+CH7MdSzGfUlV38bjfUT9xyUAogG457q3PrFty9HXqeLXALRcx2NQDOD9urnEs/1EA8IKANGA7Th818sF6YcBXOs6FhMUjweC3fdsmfxn16EQ5QkrAEQDNrVl11eaxfilAj3gOhbXBHqgWYpfzMmfaPBYASBy6OZDe3doIH8KxRrXsQzYvAp+fWrz5O2uAyHKKyYARI7tOLr3SiTyIVG81nUsA6HyRQnjyQOb3n7UdShEecYEgMgCVdlxeP97RfABACXX4fRJDOB3dHPpP0/JzsR1MER5xwSAyJCbH9x7QxrKXQK8yHUsPfaQBNh9YNPk110HQkRt3ARIZMiBbXu+PVqMfxjtSoAP996rALeX6voyTv5EtrACQGTUzoc/9O+gwZ0ALncdywqdUMG7pjZPfsJ1IET0bKwAEBl1cPOtn24W4xtE9cOuY1kuhdwXIryBkz+RXawAEGXAzYf27lCR2wFMuI7lIhZU8H/xeB/9/+3dv04UURTH8d+ZkSV0voCBQhg1awjEEGjsLGxJFgp3WGyMT6B21vgIGovhT+LuNBQmFjYUJBBrQrKoCZ2xspCYSJY9FmKpBLPscGe/nwe493Tn5jd3zsXlxwEACMT8/sbolbi7Kulu0bX8xa7HSvPr6aeiCwFwNg4AQEBq3ort4OdTSc8lVYqu59Sxfs/xX+H3PiAcHACAAC3ur1Y9skym6UILMe2ZqcENfyA8XAIEAtS8tbR39ejHrFzPVMzrgh2ZVr7btzs0fyBMJABA4GrtjZlIJ5nLbvRpy88uX86Tpe0+7QfgApAAAIHLkwcfRionU6fDgy7yG/yfoT6TNH8gfCQAQInUPmZzkUeZu8Z7u7IdRl1/+OZmutXbdQEUhQQAKJF8vLHTHRme7OEoYTfppXcqt2n+QLmQAAAlVTtYu2furyW79p9LfDGzR82J+tueFgbgUiABAEoqn0jfD0VR1aTzT+Uzy70zXKX5A+VFAgAMgMX2+n2Xv9LZDwt9lfS4laSbfSgLQIFIAIAB0Ezq744rnX+nAWZ5rLhK8wcGAwkAMGAW2usNyZ/INSZJMh1K9qKV1LNCCwPQV78Ad88rhRVF8sIAAAAASUVORK5CYII=;" vertex="1" parent="bjE_prnjRbW4GjXfM1Jb-18">
          <mxGeometry x="30" y="30" width="40" height="40" as="geometry" />
        </mxCell>
        <mxCell id="bjE_prnjRbW4GjXfM1Jb-21" value="" style="endArrow=classic;html=1;rounded=0;" edge="1" parent="1">
          <mxGeometry relative="1" as="geometry">
            <mxPoint x="630" y="240" as="sourcePoint" />
            <mxPoint x="520" y="239.5" as="targetPoint" />
          </mxGeometry>
        </mxCell>
        <mxCell id="bjE_prnjRbW4GjXfM1Jb-11" value="" style="shape=image;verticalLabelPosition=bottom;labelBackgroundColor=default;verticalAlign=top;aspect=fixed;imageAspect=0;image=data:image/png,iVBORw0KGgoAAAANSUhEUgAAAgAAAAIACAYAAAD0eNT6AAAABHNCSVQICAgIfAhkiAAAAAlwSFlzAAALEwAACxMBAJqcGAAAABl0RVh0U29mdHdhcmUAd3d3Lmlua3NjYXBlLm9yZ5vuPBoAACAASURBVHic7N13eFTl9jbgZzLpPZBCQuiCVBWQItJ7ly4tBYiCKAg2VOzlQFTsBZUmvaQQElroXcTQewkQQiAhvSeTyXx/5Mf5PColmbWnPvd1eZ2jMs+8hJi9Zu/3XQsgIiIiIiIiIiIiIiIiIiIiIiIiIiIiIiIiIiIiIiIiIiIiIiIiIiIiIiIiIiIiIiIiIiIiIiIiIiIiIiIiIiIiIiIiIiIiIiIiIiIiIiIiIiIiIiIiIiIiIiIiIiIiIiIiIiIiIiIiIiIiIiIiIiIiIiIiIiIiIiIiIiIiIiIiIiIiIiIiIiIiIiIiIiIiIiIiIiIiIiIiIiIiIiIiIiIiIiIiIiIiIiIiIiIiIiIiIiIiIiIiIiIiIiIiIiIiIiIiIqKHojLgezkAaAegBYDGAB4FUBuAy//95WXAtRAREWkB5P7fX/kAEgGcB3ARwFEAxwGUG211ClO6AKgHYDSAHgA6AHBS+P2IiIikZAHYAyAewFoAGcZdjiwlCgAnAGMBhADoqNB7EBERGVIpgE0AlgCIhQXcGZC8OLsCmATgDQABgrlERESmJBFAOIDFADRGXkuVSRQAagAvAPgIfI5PRETW4wqAmai4I2B29C0A2gD4CUBrgbUQERGZoxgALwO4buyFVIZNFV+nQsVv9gB48SciIuv2DIBTqNj0bjbUVXiNL4AoAC9W8fVERESWxgHACFRcI3eg4oihSavsI4B6ALYCaKjAWoiIiCzBHlTcFcgx9kLupzIFQAsAW8Ad/kRERA9yGkBfADeNvZB7edgCoBWAXQDcFVwLERGRJbmMin44qcZeyL95mAKgAYD9AGoovBYiIiJLcxJAFwDZxl7I3z3oFIAvKlog8uJPRERUeY8BiABga+yF/N39dvHboGLRbQy0FiIiIktUH4A9Kk4HmIz7FQCzATxnqIUQERFZsKcBHANwwdgLueteewDaoqLJj/gtCwd7NTq1DkDHVgF4umUAAnxdUN3TEdU9HWGrrmpfIiIiMlsuDoCLo8HftqRUi4zMQmRkFeHq9WzsP5yE/Ydv4Pc/k6HTKfKWdwA0BZCuSHol/VsBYAPgECqKAHFqtQq/ftgDE4Y2VSKeiIjMjZEKgH/zfvgefPTFXiXfYiGAMCXf4GH92yOAl6Dg4nQ6YMOuRHi6OaD949xbSERk9extK/4yIp0OmPnOVnz23UGl36olgG0Abij9Rg/y9wLAHRVDDZyUfuMt+6/DydEWHVuxrxARkVUzcgFQVlaO0Gkx+HXZMUO8nQpAcwALDPFm9/P3AmAmgIGGevPth26guKQMPZ+qbai3JCIiU2PEAqC0VIuxk6OxOvqMId82EMBBAImGfNO/+2sB4AhgJQA3Qy7gwLFbSMssRL9OdaFS6TudmIiIzI6RCoDCIg2GBK9F7NaLBn9vALUBLDHGG9/11wIgBMA4Yyziz9NpuHE7HwO71IONDYsAIiKrYoQCICe3BAPGrMLO/dcM+r5/URdAHIBbxlrAXwuAbwDUMdZCjp+/gxMX0jG0ZwMeByQisiYGLgCysovR99mVOHgk2WDveQ9FqBiyZxR3P27XRcWzCKN//O7fuS4ivuoPJ0eT65pIRERKMOAxwNtp+egzciVOnjWJ+TxpqNgPoDHGm9/9qD0aJnDxB4BNe6+h/5QNyCsoNfZSiIjIgly7kY1OA38zlYs/UDFvp7ux3vxuAdBTn5Aavq4CS/n/dh9JRq+w9cjMKRbNJSIi63ThcgY6DfwNl69miub6et2vo/5D6SGxjqqwAeAAoENVAx5r6ofju5/HE81lm/ocPnkbnYIikJJWIJpLRETW5cz5O+g+dBmSU3JFc/u0dcGBH+rA3UWvfWvdpNZTWTYA2kGPxj+vvdgefj4u2BkdhHata8qtDMDZK5noNiESN27nieYSEZF1+P3Pm+g0aAlShK8jI7u5Yfk7/vD2UGNcT3d9oloC8BRaVqXYoGJWcZU42KsxpH9jAICXpyN2RAWhZ5d6UmsDAFy8lo2O4yNw6Xq2aC4REVm2PQevo/fI5cjKln2cHNrXA/NfrQFbdcXWueFd9Wqfo0bFgCCDswHQqKov7tmlPtxc7f/79y7OdtiwfDQG9Goosbb/SrqVh87BETh9KUM0l4iILFNc/CX0HbUSefmyG8qnDfPCly/54q8ta1o1dIR/db1OrjXWd11VYaPPG3f+lxa+To62WL90FIJGVfnGwr+6nV6IzsER+P3EbdFcIiKyLGtjzmJY6FoUl5SJ5s4Y4YWPJnnj701rVSrgqWZ6jdCp8gdxfdgAqFXVFz/WzO9f/7mtrQ0WfzsYE8c+UdXof5WVW4I+z6/H3j9viuYSEZFlWLTyOMZOjoJGUy6WqVIB/3nOB+9P8L7nr2lez/6e/+4hGGUgjg2AKp/ha9Sg2j3/nVqtwoKvB+Hl59tWNf5f5eaXot/kGGzZf100l4iIzNs3v/yBsBmx0Gp1YplqG+Cb6X54Ycj99+k9EqhXAWDQGTx32aBiBHCVeHnc/5aHSgV8/WkfzH1X9phjYXEZnnkpDhHxl0VziYjIPIV/exAzZm+FTu7aD1u1Ct/P8ENQ7wdfJj1d9eoHYLQCwKWqL/7rBsD7mTW9A8Lf6/GP5yb6KNVoMfq1zVgac04ulIiIzIpOB7zx4Xa8+fEO0VwHexWWzfbH6B4P9xlZz14ARisAqly22No+/G/4jWkd8NPnA0Sn/Wm1OoTO3oavlx4XyyQiIvOg0wEz39mKz78/JJrr7GiDVe8FoG+7h/98rOcMO73bCVaFQcfuTQ5phWU/DqlU4fAgOh0wM3wvPvzxsFgmERGZNq1Wh4nTN+CbX/4QzfVwsUH0JzXRraWzaK4pMvjc3bHDmyNqyUg4OshO+/vgh8N488sDoplERGR6Sku1eDYsEktWnxDN9fFUI3ZuINo2McxkQmMzeAEAAIP6NMKm1WPg6qLXrsl/CF+YgKkf70J5ueAuECIiMhmFRRoMHr8GkXGy+7/8qtki5j+BaFHfQTTXlBmlAACAbh3rYvOasfBwl/1i/7T6FELe3oYyrdwZUCIiMr78glIMGrcaW3ddEc2t7WeHzZ8Fokkd2Q+lps5oBQAAdGxXCzujg+BdTfZZy/LY8xgxYxNKSrWiuUREZBxZ2cXoOXw5du67JprbMNAeWz4PRD1/O9Fcc2DUAgAAWj3mj72xIajpL3sKImZnIoZOj0NRsWwrSCIiMqzbafnoMvg3HE6Q7QL7eAMHbPosUN8+/mbL6AUAADRp5I39G0PRoK6XaO7mfdfRd3IMcoWHQRARkWFcv5GDzoN+w6lzaaK57Zs5YcOcQHh7GOUEnkkwiQIAAOrW8sS+uFA0a+wjmrv3z5voMTEK6VlForlERKSsC5cz0GnQElxKzBTN7fSYEyI+DNC3eY/ZM6nfvb+fK3ZGB+GJ5jVEc/88k4YuIZFISSsQzSUiImWcOX8H3YYsxY2buaK5fdq6YO2HNeHiZFKXP6Mwua+Ar7cLdq0PQoc2gaK5Z69komPQOlxNlv1mIiIiWX8ev4Uuz/yGW6n5ornDu7hh2Wx/ONoL9qU3YyZXAACAp4cj4iPGo1fX+qK5V5Nz0TU0EpeuZ4vmEhGRjD0Hr6P70KXIyJR9bDuhnwd+eb0G7Gx58b/LJAsAAHBxtkPsitEY0v9R0dykW3noFBSBkxfTRXOJiEg/G7ddQr9nVyJPeOP284M8Me9FXwiOorEIJlsAAICDvRrrFo5A0KjHRHNTMwrRNSQSv5+4LZpLRERVs2b9GQwNWSt+dHvGCC+ET/ERnUZrKUy6AAAqJg4u/nYwwsa3FM3Nyi1Br7Bo7Pj9hmguERFVzvLosxj/wnpoNHIdXFUq4JMwb7w/wVss09KYfAEAAGq1Cr98ORCvvNBeNDe/UIPBL8Ziy/7rorlERPRwflx1EiGvbkJZmdzFX20DfD3NFy8Ole0tY2nMogAAKqq5eR/1wtx3e4jmFhaX4ZmX4hARf1k0l4iI7i98YQJe/GS36AA3W7UK38/wQ3AfD7FMS2U2BcBds6Z3QPh7PUSf55RqtBj92mYsijorF0pERP9KpwPemLdffIS7g50Ki9+qgdE93EVzLZXZFQAA8Ma0Dvjp8wGwEdzSqdXqEPbedny99LhYJhER/S+dDpgxdw8+X3RUNNfZ0Qar3g/AwKdcRXMtmVkWAAAwOaQVlv80BHZ2cr8FnQ6YGb4XH/54WCyTiIgqaLU6THxnG75dfkI018PFBtGf1ES3lrKTZS2d2RYAADBmWHNELh4JRwfZSU4f/HBY/NYUEZE1K9Vo8eyrm7Fk/TnRXB9PNWLnBqJtE0fRXGtg1gUAAAzq0wibVo+Bq4u9aG74wgRM/XiX6OYUIiJrVFhchsEvxiFym+xma79qtoj5TyBa1HcQzbUWZl8AAEC3jnWxec1YeLjLfhP8tPoUgt+KR5lW7ngKEZE1yS/UYNDUDdh6QPa4dW0/O2z+LBBN6sh++LMmFlEAAEDHdrWwMzoIPtVlnwGtiLuAETM2oaRUK5pLRGTpsnJL0HNSNHYeThbNbVTLHls+D0Q9fzvRXGtjMQUAALR6zB97NoSgpr+baG7MzkQMnR4n3qKSiMhS3U4vRJeQCBw+Kdty/fEGDtgYHgj/6rJ7v6yRRRUAANCkkTf2bwxFg7qyHaA277uOvpNjkCs8pIKIyNJcT6kYunbqYoZobvtmTtgwJxDeHmrRXGtlcQUAANSt5Yl9caFo3sRXNHfvnzfRfWIU0rNkx1QSEVmKC1ez0CkoApeTZMeud3rMCREfBsDdxSIvW0ZhsV9Jfz9X7Igajyea1xDNTTiThi4hkUhJKxDNJSIyd2cuZ6DbhCjcuJ0nmtu3nQvWflgTLk4We8kyCov+avp6u2DX+iB0aBMomnv2SiY6Bq1DYnKOaC4Rkbk6cjoVXUIiceuO7Iej4V3csPRtfzjac56vNIsuAADA08MR8RHj0atrfdHcq8m56BYahUvXZW9zERGZmz1HbqLHxGhkZBeL5k7o54FfXq8BO1te/JVg8QUAALg42yF2xWgMHdBYNDfpVsVGl5MX00VziYjMxcY919BvSgzyCmQ3SD8/yBPzXvSF4MgX+hurKAAAwMFejbULhiP42cdEc1MzCtE1JBK/n5A96kJEZOrWbL6oyBHpGSO8ED7FR3TqK/2T1RQAAGBra4NF3wxG2PiWorlZuSXoFRaNHb/fEM0lIjJVyzacx/hZ8dCUyXVKVamAT8K88f4Eb7FMujerKgAAQK1W4ZcvB+KVF9qL5uYXajDghQ2I2ZkomktEZGp+WHUSobO3ibZJV9sAX0/zxYtDZXu40L1ZXQEAVFSZ8z7qhbnv9hDNLSnVYtQrmxERLzvwgojIVIQvTMBLn+wWHZRmq1bh+xl+CO7jIZZJD2aVBcBds6Z3wLdz+oo+ZyrVaDH6tc1YFHVWLpSIyMh0OuCNefvFR6U72Kux8ounMLqHu2guPZhVFwAAMC2sDX76fABsBLeaarU6hL23HV8vPS6WSURkLDodMGPuHny+6Kho7t0TWoO7B4jm0sOx+gIAACaHtMLyn4bAzk7uy6HTATPD9+LDHw+LZRIRGZpWq8PEd7bh2+UnRHOV6tFCD48FwP8ZM6w5opaMgqOD7ISpD344LH7LjIjIEEo1Wjz76mYsWX9ONFepLq1UOSwA/mJg74bYtHoMXF3sRXPDFyZg6se7RDfNEBEpqbC4DINfjEPkNtlNzf5+rtgZHSQ+p4UqjwXA33TrWBeb14yFh7uDaO5Pq08h+K140WMzRERKyMkrRZ/n1mPrgeuiuXcntTZr7COaS1XDAuBfdGxXCzujg+BT3Vk0d0XcBQx/eRNKSrWiuUREUrJyS9Dn+fXYfzRFNLdJI2/s3xiKBnV5zt9UsAC4h1aP+WNvbAhq+ruJ5m7YlahI60wiIn3dTi9El5AIHD4p29q81WP+2LNB/ucp6YcFwH00bqhMxbp533X0nRyD3HzZ4RlERFV1PaViuNmpixmiuUrdUSX9sQB4gLvPrJo38RXN3fvnTXSfGIX0rCLRXCKiyrpwNQudgiJwOUl2vLlSe6pIBguAh+Dv54odUePFd60mnElDl5BIpKQViOYSET2sM5cz0G1CFG7czhPNHdSnkSKnqkgOC4CHpNS51bNXMtExaB0Sk3NEc4mIHuTI6VR0CYnErTuyH0LGDm+OyMUjxfuqkCwWAJWgVOeqq8m56BYahUvXZW+/ERHdy54jN9FjYjQysotFcyeHtMKyH2U7q5Iy+CdUSXd7Vw8d0Fg0N+lWxQacExfSRXOJiP5u455r6DclBnkFshuR35jWQXy2CimHBUAVONirsXbBcAQ/+5hobmpGIbqFRuL3E7JHcIiI7lqz+aIiR5FnTe+A8Pd6iE5XJWWxAKgiW1sbLPpmMMLGtxTNzcotQc9J0djx+w3RXCKiZRvOY/yseGjK5DqSqlTAvI96Ye67PcQyyTBYAOhBrVbhly8H4pUX2ovmFhRpMOCFDYjZmSiaS0TW64dVJxE6e5toO3K1WoVfv5L/GUiGwQJAT0pVvyWlWox6ZTPWbb0kmktE1id8YQJe+mS36EAyW1sbLP52MCaNk70LSobDMxpCZk3vAGdnO7z89hbohP4bK9VoMeb1Lcgr0GDisKYyoURkNXQ64I15+/HF4qOiuQ72aqz+dTiG9H9UNJcMi3cABE0La4P5X8jugNVqdQh7bzu+XnpcLJOILJ9OB8yYu0f84n/3JBQv/uaPBYCw54NbYflPsmdgdTpgZvhefPjjYbFMIrJcWq0OE9/Zhm+XnxDN9fRwxDYFeqGQcbAAUMCYYc0RtWSUeBesD344jDe/PCCaSUSWpVSjxbOvbsaS9edEc+92Q31KuBsqGQ8LAIUM7N0Qm1aPgZurbB/s8IUJeOGjXaKbeYjIMhQWl2HQ1FhEbrssmuvv54qd0UHi81DIuFgAKKhbx7rYHhmEal5Oornz15xC8Fvxosd5iMi85eSVondYNOIPJonm1qtdMRG1WWMf0VwyPhYACmvbKgDbIsaJz8JeEXcBw1/ehJJSrWguEZmfrNwS9Hl+PQ4cuyWa26SRN/bFhaJBXS/RXDINLAAMoNVj/tgbG4LAAHfR3A27EhVp6UlE5uN2eiG6hETg8EnZFuJ3f27V9HcTzSXTwQLAQBo39Ma+uBDxSnrzvuvo8/x65ObLDvUgItN3PaViiNipixmiuR3b1cLO6CB4V5O9c0mmhQWAAdWtVfEsrXkTX9HcfQkp6D4xCulZRaK5RGS6LlzNQsfx63A5SXaMeLeOdbF5zVh4uDuI5pLpYQFgYP5+rtgRNV58N23CmTR0CYlESlqBaC4RmZ4zlzPQbUIUklPzRXMH9WmETavHwNVF9vQSmSYWAEZw9zxtB+HztGevZKJj0DokJueI5hKR6ThyOhVdQiJx645ssT92eHNELRkp3r+ETBcLACPx9HBEvAIdta4m56JbaBQuXpO9LUhExrfnyE30mBiNjOxi0dzJIa2w7MchsLXlJcGa8E/biO721B46oLFobtKtPHQOjsCJC+miuURkPBv3XEO/KTHIK5Dd8PvGtA746XPZGSZkHlgAGJmDvRrrFo5A8LOPieamZhSiW2gkfj8hezSIiAxvzeaLihz5nTW9A8Lf6wEVr/1WiQWACVCrVVj0zWA8F9RKNDcrtwQ9J0Vj+6EborlEZDjLNpzH+Fnx0JTJdf5UqYAvP+6Nue/2EMsk88MCwESo1Sr8PG8AXp3aXjS3oEiDgVM3IGZnomguESnvh1UnEfK2bNtvtVqFX78aiJlT2ollknliAWBCVCrgiw97iVflJaVajHplM9ZtvSSaS0TKCV+YgJc+2Q2d4NwvOzsbrPx5GCaNaykXSmaLBYAJmjW9A76b01f0uVypRosxr2/BoqizcqFEJE6nA17/Yr/46G8HezXWLhiBUc80Fc0l88UCwES9FNYG87+Q3Zmr1eoQ9t52fL30uFgmEcnR6YAZc/fgi8VHRXNdnO0Qt3IMhvR/VDSXzBsLABP2fHArrJg/FHZ2cn9MOh0wM3yv+KcLItKPVqvDhNnb8O3yE6K5nh6O2BYxHj271BPNJfPHlk8mbvTQZnB1scfIiREoLpE7AhS+MAEAMPeVp8UyiahqSjVajHltC6K2XxHN9fV2wdZ1Y8Vbj5Nl4B0AMzCwd0NsXjMWbq6y/bnDFybghY92obxccJcREVVKYXEZBk2NFb/4+/u5Ymd0EC/+dE8sAMxE16frYHtkEKp5OYnmzl9zCsFvyR4zIqKHk5NXit5h0Yg/mCSaW692xeTRZo19RHPJsrAAMCNtWwVge+R4+FSXndG9Iu4Chr+8CcUlWtFcIrq3zJxi9H4uGgeO3RLNbdLIG/viQtGgrpdoLlkeFgBmpmWLGtgbG4LAAHfR3A27EjHsZflWo0T0T7fTC9E1NBJ/nEoVzW39uD/2xoagpr+baC5ZJhYAZqhxQ2/siwsRr/A377uOPs+vR26+7LARIvr/rqfkoVNQBE5dzBDN7dS+NnZGB8G7muwdQrJcLADMVN1aFc/4mjfxFc3dl5CC7hOjkJ5VJJpLRMD5q1noOH4dLifJjuvu1rEuNq0eA3c3B9FcsmwsAMyYv58r9sQEo22rANHchDNp6BwciZS0AtFcImt27NwddA6OQHJqvmjuoD6NsGn1GLi6yJ4SIsvHAsDMVfNywta149ChTaBo7rnETHQMWofE5BzRXCJrdOR0KnqFReNOpuydtbHDmyNqyUg4OrClC1UeCwAL4OnhiPiI8ejVtb5o7tXkXHQLjcLFa7K3K4msyZ4jN9FjYjQysotFc6eEtsayH4fA1pY/xqlq+J1jIVyc7RC7YjSGDWwsmpt0Kw+dgyNw4kK6aC6RNdi45xr6TYlBXoHsxto3pnXAj5/1F50VQtaHBYAFuTvtK2T046K5qRmF6BoSiUPHZc8rE1my1ZsuYuh0+aO1s6Z3QPh7PUSnhZJ1YgFgYdRqFRZ9MwjPBbUSzc3OK0GvsPXYfuiGaC6RJVq24TyC3oyHpkyuw6ZKBXz5cW/MfbeHWCZZNxYAFsjGRoWf5w3Aq1Pbi+YWFGkwcOoGxOxMFM0lsiQ/rDqJkLdl22ur1Sr8+tVAzJzSTiyTiAWAhVKpgC8+7CX+aaGkVItRr2zGuq2XRHOJLEH4wgS89Mlu6ATna9nZ2WDlz8MwaVxLuVAisACweLOmd8B3c/qKPi8s1Wgx5vUtWBR1Vi6UyIzpdMDrX+zHm18eEM29u69n1DNNRXOJABYAVuGlsDaY/8UA0R3DWq0OYe9tx9dLj4tlEpkjnQ54ec4efLH4qGiui7Md4laOwZD+j4rmEt3FAsBKPB/cCivmD4WdndwfuU4HzAzfK/6ph8hcaLU6TJi9Dd+tOCGa6+nhiG0R49GzSz3RXKK/YvsoKzJ6aDO4uthj5MQIFJfIHU0KX5gAAJj7ytNimUSmrlSjxZjXtiBq+xXRXF9vF8RHjMPjzfxEc4n+jncArMzA3g2xec1YuLnK9g0PX5iAFz7ahfJywd1PRCaqsLgMg6bGil/8/f1csTM6iBd/MggWAFao69N1sCMqCNW8nERz5685haA3ZY8/EZmanLxS9A6LRvzBJNHcerUrJnw2a+wjmkt0LywArFSblgHYHjkePtVlZ4ev3HgBw1/ehOISrWgukSnIzClG7+eiceCYbFfMJo28sS8uFA3qeonmEt0PCwAr1rJFDeyNDUFggLto7oZdiRjwQgzyCzWiuUTGdDu9EF1DI/HHqVTR3NaP+2NvbAhq+ruJ5hI9CAsAK9e4oTf2xYXgkXrVRHN3Hk5G/ykxyM2XHYJCZAzXU/LQKSgCpy5miOZ2al8bO6OD4F1N9k4c0cNgAUCoW8sT++JC0LyJr2juvoQUdJ8YhfQs2RnoRIZ0/moWOo5fh8tJsmOxu3eqi02rx8DdzUE0l+hhsQAgAEANX1fsiQlG21YBorkJZ9LQOTgSKWkForlEhnDs3B10Do5Acmq+aO6gPo2wcdUYuLrInsYhqgwWAPRf1bycEL9uPJ5uW0s091xiJjoGrUNico5oLpGSjpxORa+waNzJlL2DNXZ4c0QtGQlHB7ZhIeNiAUD/w8PdAfER49C7W33R3KvJuegWGoWL12RvoxIpYfeRZPSYGI2M7GLR3CmhrbHsxyGwteWPXjI+fhfSPzg72SF2+WgMG9hYNDfpVh46B0fgxIV00VwiSRv3XEO/yTHIK5DdwDpregf8+Fl/0ZkcRPpgAUD/yv7/ppCFjH5cNDc1oxBdQyJx6LjsOWoiCas3XcTQ6XHifSxmTe+Aue/2EJ3KSaQvFgB0T2q1Cou/HYxpYW1Ec7PzStArbD22H7ohmkukj6Ux5xD0Zjw0ZXKdLFUq4MuPe2Puuz3EMomksACg+1KpgG/+0xevTm0vmltQpMHAqRuwfodsL3Wiqvhh1UmEzt4m2sZarVbh168GYuaUdmKZRJJYANADqVTAFx/2Ev8UU1KqxbOvbsG6rZdEc4kqI3xhAl76ZDd0gnOs7O3VWPnzMEwa11IulEgYCwB6aLOmd8B3c/qKPscs1Wgx5vUtWBR1Vi6U6CHodMDrX+zHm18eEM11sFdjza/DMeqZpqK5RNJYAFClvBTWBj/PGyC6k1mr1SHsve34aukxsUyi+9HpgJfn7MEXi4+K5ro42yFu5RgM6f+oaC6RElgAUKU9F9QKK+YPhZ2d3LePTge8Er5P/NMY0d9ptTpMmL0N3604IZrr6eGIbRHj0bNLPdFcIqWwFRVVyeihzeDqYo+REyNQXFImlhu+MAEAMPeVp8Uyie4q1Wgx5rUtiNouu/nUz8cFW9eNw+PN/ERziZTEOwBUZQN7N8TmNWPh5irbzzx8YQJe+GgXyssFd2WR1SssLsOgqbHiF//agR7YGxvCiz+ZHRYApJeuAruUHgAAIABJREFUT9fBjqggVPNyEs2dv+YUgt6MFz2WRdYrJ68UvcOiEX8wSTS3Xm1P7FofhEYNqovmEhkCCwDSW5uWAdgeOR4+1WVnmq/ceAHDpm8U78pG1iUzpxi9n4vGgWOy3SebNPLGvrhQ1K/jJZpLZCgsAEhEyxY1sDc2BIEB7qK5sbuvYsALMcgv1IjmknW4nV6IrqGR+ONUqmhu68f9sTc2BDX93URziQyJBQCJadzQG/viQvBIvWqiuTsPJ6P/lBjk5ssOZyHLdj0lD52CInDqYoZobqf2tbEzOgje1WTveBEZGgsAElW3lif2xYWgRRNf0dx9CSnoPjEK6Vmys9nJMp2/moWO49fhcpLs+Onunepi0+oxcHdzEM0lMgYWACSuhq8rdscEo22rANHchDNp6BwciZup+aK5ZFmOnbuDzsERSBb+PhnUpxE2rhoDVxfZUy9ExsICgBRRzcsJ8evG4+m2tURzzyVmolNwBBKTc0RzyTIcOZ2KnpOicSdT9k7R2OHNEbVkJBwd2DqFLAcLAFKMh7sD4iPGoXe3+qK5V5Nz0S00Chevyd7eJfO2+0gyekyMRmZOsWjulNDWWPbjENja8sclWRZ+R5OinJ3sELt8NIYNbCyam3QrD52DI3DiQrpoLpmnuD1X0W9yDPIKZDeKzpreAT993l909gWRqWABQIqzt1dj7YIRCBn9uGhuakYhuoZE4tBx2fPdZF5Wb7qoSL+IWdM7iI/AJjIlLADIINRqFRZ/OxjTwtqI5mbnlaBX2HpsP3RDNJfMw68RpzFu1lZoyuQ6RqpUwJcf9+bFnyweCwAyGJUK+OY/ffHai0+J5hYUaTBw6gas3yHb451M2w+rTmLyBztFZ0ao1Sos+HoQZk5pJ5ZJZKpYAJBBqVTA5x/0FP90VVKqxbOvbsHaLZdEc8k0hS9MwEuf7IZOcF6Uvb0aq34Zholjn5ALJTJhLADIKGZN74Dv5/aDSnBvValGi7FvbMHCyDNyoWRSdDrgtc/3480vD4jmOtirsebX4Rg5uKloLpEpYwFARvPipCfx87wBojustVodnnt/B75aekwsk0yDTge8PGcP5i05Kprr4myHuJVjMKT/o6K5RKaOBQAZ1XNBrbBi/lDY2cl9K+p0wCvh+8Q/JZLxaLU6TJi9Dd+tOCGa6+nhiG0R49GzSz3RXCJzwLZWZHSjhzaDm6s9RkyIQHFJmVhu+MIEAMCcmU+LPmogwyrVaDHmtS2I2i67ydPPxwVb143D4838RHOJzAXvAJBJGNCrITavGQs3V9k+6+ELEzD1412iO8XJcAqLyzBoaqz4xb92oAf2xobw4k9WjQUAmYyuT9fBjqggVPNyEs2dv+YUgt6MR5lW7qw4KS8nrxS9w6IRfzBJNLdebU/sWh+ERg2qi+YSmRsWAGRS2rQMwPbI8fCpLjtrfeXGC4p0iyNlZOYUo/dz0ThwTLbLY5NG3ti/MRT163iJ5hKZIxYAZHJatqiBvbEhCAxwF82N3X0VA16IQX6hRjSXZN1OL0TX0Ej8cSpVNLf14/7YGxuCgBpuorlE5ooFAJmkxg29sT8uFI/Uqyaau/NwMvpPiUFuvuzQGJJx7WYuOgVF4NTFDNHcTu1rY2d0ELyryd5ZIjJnLADIZNWp5YF9cSFo0cRXNHdfQgq6T4xCepbszHjSz/mrWegUFIHLSbJjnrt3qotNq8fA3c1BNJfI3LEAIJNWw9cVu2OC0bZVgGhuwpk0dA6OxM3UfNFcqppj5+6gc3AEkoX/PAb3bYSNq8bA1UX2dAmRJWABQCavmpcT4teNx9Nta4nmnkvMRKfgCFy5kSOaS5Vz5HQqek6Kxp1M2TsyY4c3R+TikXB0YLsTon/DAoDMgoe7A+IjxqF3t/qiuVeTK545n7ks+8yZHs7uI8noMTEamTnForlTQltj2Y9DYGvLH3FE98L/OshsODvZIXb5aAwb2Fg099adAnSfEIUTF9JFc+n+4vZcRb/JMcgrkN2QOWt6B/z0eX/RGRNElogFAJkVe3s11i4YgZDRj4vmpmUWoWtIJA4dlz13Tv9u9aaLivRlmDW9g/ioaSJLxQKAzI5arcLibwdjWlgb0dzsvBL0CluP7YduiObS//pl3WmMm7UVmjK5zowqFfDVJ7158SeqBBYAZJZUKuCb//TFay8+JZpbUKTBwKkbsH6HbO95qvD9yhOY8uFO0dkMarUKC74ehBmT24llElkDFgBktlQq4PMPeop/6isp1WLUK5uxdssl0VxrF74wAdM+3QOd4Fwme3s1Vv0yDBPHPiEXSmQlWACQ2Zs1vQO+n9tPdOSvpqwcY9/YgoWRZ+RCrZROB7z2+X68+eUB0VwHezXWLhiOkYObiuYSWQsWAGQRXpz0JH77/hnRY19arQ7Pvb8DXy09JpZpbcrLdZj8wU7MW3JUNNfF2Q5xK8fgmX6PiuYSWRMWAGQxgkY9hmU/DoGdndy3tU4HvBK+T/zTqzXQanWY+M52/BpxWjTX08MR2yLGo2eXeqK5RNaGLbLIoowe2gxurvYYOTECRcVlYrnhCxOgAzB35tOijxosValGizGvbUHUdtnNlH4+Lti6bhweb+YnmktkjXgHgCzOgF4NsXnNWLi5yvZ//2xhAqZ+vEt0B7slKiwuw6CpseIX/9qBHtgbG8KLP5EQFgBkkbp0qIMdUUGoXs1JNHf+mlMIejMeZVq5M+yWJDuvBL3DohF/MEk0t15tT+xaH4RGDaqL5hJZMxYAZLHatAzAtojx8KkuOwN+5cYLinSxM3eZOcXo89x6HDgm202xSSNv7N8Yivp1vERziawdCwCyaC1b1MDe2BAEBriL5sbuvor+U2KQX6gRzTVXt9ML0SUkEn+cShXNbf24P/bGhiCghptoLhGxACAr0LihN/bHheKRetVEc3f9kYz+U2KQmy87zMbcXLtZMVHx9CXZiYqd2tfGzuggeFeTvYNDRBVYAJBVqFPLA/viQtCiia9o7r6EFHSfGIX0LNlZ9ubi/NUsdAqKwOWkbNHcfj0ewdZ14+Du5iCaS0T/HwsAsho1fF2xOyYYbVsFiOYmnElD5+BI3EzNF801dcfO3UHn4AgkC/++B/dthKjfRsLJkaeUiZTEAoCsSjUvJ8SvG4+n29YSzT2XmIlOwRG4ciNHNNdUHTmdip6TonEnU/bOx7gRLRC5eCQcHXjxJ1IaCwCyOh7uDoiPGIfe3eqL5l5NrngWfuay7LNwU7P7SDJ6TIxGZk6xaO6U0NZY+oNsO2ciujf+l0ZWydnJDmsXjICvt4to7q07BegxMRonLqSL5pqKmJ2J6Pt8DPIKZDc+tn+yJn78rD9sbNhmkchQWACQVbpxMxe9RixHWnqBeHZqRiG6hUbi8Mnb4tnGtHLjBYyYsQklpfL9D37/8yZGTYpAvnBhQWQotvoVr3J9yyuBBQBZnX2/J6Ft74U4cixFsffIyi1Bj4nR2H7ohmLvYUi/rDuteAfEiNhzeLLnApy7aJl3T8iy+Xip9Xm5UT4tsAAgq/LL0qPoMWwZbqcpv2O/oEiDgVM3YP0O2Z74hvb9yhOY8uFOg8xAuHA5A+36LET0xvOKvxeRpOruatStYVfVl/8huZaHxQKArEJhkQbjpkRj8qsbodEYro9/SakWo17ZjLVbLhnsPSV98MNhTPt0D3QGnH+Ul1+KERMj8OHnezl4iczKiK5V6lipBbBGeCkPhQUAWbzE61no0G8xVkbKzqV/WJqycox9YwsWRZ01yvtXhU4HvBK+Dx/+eNgo719ersMHn+3BkOC1yMktMcoaiCrrpWFe8PWs9KOABQAuKLCcB2IBQBZt664raNNrIU6cke1RX1larQ5h723Ht8tPGHUdD0Or1eH5D3bgq6XHjL0UxG69iLa9F+LM+TvGXgrRA3m42GDpbH842j/0hsDDAGYquKT7YgFAFkmnA+Z8fQADxqxCpom06dXpgJfn7MEn848Yeyn3pCkrx/g3t2JBxBljL+W/Ll7JQPu+ixARe87YSyF6oHZNnbDps0DUD7jvfgAdgBUAegAw2g8oNYAPqvriD97oIrcSIiF5+aUYOyUK3y88YtBn1w9r1x/JKCopQ8/2taEyoWPvxSVajJy5CVHbTG/TYqlGi4gNZ1FUXIZuHeuxX4CF0ealoyzXuHfpJPlXt8WE/h6o42cHbTlQWqZDmVZVpCnTXQQQDeAlAN8BMOo4URUqKpEq0d15V3ApRPq7lJiJoSFrzeKW8eRRzfHju91M4mJWUKTB0Okbse1gkrGX8kBdOtTB2oXDxZs4kfGUpJxDUbLpPx7Th4PvI+HObTa/aex1/BUfAZDF2LDlItr0WqDYxV/60/rPa08jdPY2Rc/WP4zsvBL0ClsvfvFX6u7GnoPX0b7PIhw/bVmNlogMjQUAmT2dDgj/9iCGhii3Yzy0rwd2f1MbftVkh9Qs23Aew6ZvRHGJfHe9h5GZU4w+z63HoeO3RHMb1bLH/u9ro3srZ9Hcu64mZeOpvouxeNVxRfKJrAELADJruXklGBa6Fm9+vEORM+MOdip8Pc0XX03zxWMNHBA7pyZq+sgWAbG7r6L/lBjkFxr2ceCtOwXoEhKJP07JPnt94hEHbPosEE3rOmDthzUxa2w1Re4GFJeUYeL0WIP3diCyFCwAyGydv5SO9n0XYf0mZY7Q+le3RdzcQIT09fjvP2sYaI/ND97hW2m7/khGv8kxyMkzTC/8azcrJheeviQ7ufCpZk7YMCcQ1d0rzkKrbYA3x1XHincD4O6izI+bX5YeRfehSw3S3ZHIkrAAILMUs/kC2vVZpFjf+KeaOWH3N7XxZGPHf/y7Wr522PxZLTSt6yD6nvuPpqD7xCikK3xs8fzVLHQKisCVGzmiuT2fdEHUJzXh5vzPHyv92rlg+5e10KiWveh73rX/8A082XMBfv/zpiL5RJaIBQCZFa1Whzc+3I6hIWuRm6fM8/4pz3hiw5ya8L3PcA9fLzU2zKmJJx6RLQKOnk3DU2PXYa9CF7Llsefx9Lh1SE6V/bT8TEdXrHj3/g1QGgbaI35eLfRpq8zu/Zu38tD1md+wYLnxGxgRmQMWAGQ20jML0ffZFfj8+0OKnO93clDhl9dqYM7zPrBVP/ihdXV3NWL+E4j2zZxE13E5KRtdQyPxwke7xB4JXLuZi36TYxD0Zjwyc4pFMu8a08MdC2f5w972wV8zDxcbrHwvQLF9ASWlWjw3Mw6TX92oyNhiIkvCAoDMwvHTt9G210Js33NVkfyaPhXP+0d2q9wwD3cXG0R9XBM9hHe763TA/DWnUKvHIkz+YCfOJWZWKSfhTBomf7ATTQYtw5b910XXCAAT+nvg+5l+UFfiJ4mNqmJfwJr3A+Ch4L6ADv0W47rwYw4iS8JGQGTylq09icmvbkRRcZki+d1bOePXN2qgmlvV53mXaHSYFH4bGw8psxHNxkaFzq1romvbmujaJhBtWvjB2fGfpxGycktw4FgK9hy5iR2/38Cxc8o1RJox0gvvh3rrlXH5ZinGf3ILF5KU2fxYw9cVaxcOR6f2tRXJJxlsBGQcLADIZGk05Xj1vXh8t0CZ3vkqFfDyCC+8E+xdqU+w91Km1WHqV6lYtytP/7CH4OpsB59qTvB0c0B6VjHuZBUarJ/Au8HV8cqz1USy8ovK8eJXqdhwQJniyc7OBvM+6o1pYW0UySf9sQAwDtkDzURC7mQUYvRzkdi575oi+S5ONvh+hh+GdHQVy7RVq/DzqxV3En7ekC2Wey/5hRqD9w5QqYBPw3zwwhBPsUxXJxssecsfP2/IxrsL01Gmld3godGUY/pbW/D7n8n49auBcHaSPcJJZK64B4BMTsKJW3iy5wLFLv4NAuywbV4t0Yv/XSoVMOd5H0wb5iWebWxqG+Db6X6iF/+7VKqK0xfRn9aET+XnqT+UlZGn8XT/JbiapHxxRmQOeAeATMovS49i+ltbFNvB3bedC35+tYZiTWmAiovZR5O84epsgznLZRvtGIu9rQq/vF4DzyhQNP1VxxZO2PZlLQR9cgunEuWPed7dTLrql2Ho2aWeeP6/yc0rQXpmIYCKSZVlZexa+Held7JQkqbMsV4lOTuo4OJoAxcnG3i42JjUdM+HwT0AZBJKSrV4adZmxc5w26iAN8ZWxxtjlDl+di8/rc/G7AV3THIs8cNytFdh6dv+6NXGcNP3ikp0ePk75fZTqNUqzHmnB1578SmR74e8/FL8cfQmTpxJxflLGbhwOR3Xk3OQmlaA4hJlNq+S6XF2tEFNb1s0DLRDw0B7NKhpj0dr2ePxRxzgXrOhye0BYAFARpeckosREyNwOEGZ5jceLjb4+bUaijWgeZClW3PwyvdpMPLQvypxdbLBqvcD0LGFbK+DhzU/Rpl9AXeNeqYpFn4zCK4uletQWFKqxb5DSdi0/RJ27b+OU+dSoVVojWT+HO1VqFvT+dr5qwW/AtgJ4E8ARq8MWQCQUe09lIRRkyKQeqdAkfzGdeyx/J0ANBDu3V9ZUXvzMGVeKjRl5nOR8HJTY91HAWjd6J/tkA3pwKkiTJh7C3eylXks1LyJL6KWjETD+vc/1VBWVo743YlYvu4UYrdeRH6BYeY2kEVKA7AKwFIAR421CBYAZDTf/voHXnt/m2KT3IZ0dMX3M/zg4mQae123HSnApM9uI6/Q9G8F1PK1xZoPaqJJHWV691dWSnoZgj+9hYSLsl0M7/L0cMTyn4ZgQK+G/3zv23n4aXECfl12VLFClazaGQBLAPwKwKCdq1gAkMEVFZfh+VfisHzdKUXy1TbAOyHeeHm4l8ltyrl2W4PnPruNPy8ocyGT8ExHV3w9zQ+erqZRON1VotHh9R/TsCw+V5F8GxsV3n+9M959tTNUKuDilQx8PG8f1qw/w3HDZAg5AL4D8A0AZaac/Q0LADKoazeyMSxkHY6duq1IfjU3NRbMqoFuLWVb80rSlOnw2apMfBuRhVITeiTg5abGRxO9Mb63u7GXcl+LN+fgzfl3FPvaDe7bCF6eTlgRcYo79skYCgD8DOBTAFXrAf6QWACQwew+cB3PhkUiLV2Z26gt6jtg2Tv+qONnHo1eElM0eGN+GnYkFBp1HSoVMKqbGz6e5KPYGXxpxy+XIOiTFCTfMfo+KiKlZAL4CBV3BRSpRFkAkOJ0uv//vF+pT1Qjurrh2+l+cHIwsXv+D+H3M0WYsyITe08YthBQqYDebVwwa2w1tGxo3I1+VZGeo8Wk8NsG/7oRGdifAF74v/8VxQKAFJVfUIoJ0zYgIvacIvl2tip8PMkbkwfLd6cztH0ni7B4UzY2HipQ9NGAu4sNRnR1Q9gAT5PZ5FdVmjIdZi9Ix6+x7O5HFk0D4G0A86DHNfvvWACQYi4lZmJoyFqcOa/MRDpfTzUWv+WPDs2Nc0ZdKek5WkTvzcOWPwpw4FQRSjT6//fu5myDHq2c0a+9KwZ1cDXLOyX3s3pHLmZ8n4aSUtPZU0GkgDgAoQBEWoyyACBFxMVfQtDU9cjOUWa3+5OPOuK3t/0R4G3Z3azzi8px+Fwxjl4oxrFLxbh8U4OkNM19L3SuTjao7WeHxrXt0aqRA1o3ckSrRx1hb2tZF/2/O3GlYl/AjTTuCyCLlgTgWQC/6xvEAoBElZfr8PG8ffjoi70oL1fm01hIXw+ET/GBg51lX9DuJzWzDEWlOuQUlEOnA2zVFRd+DxcbeLmZx0Y+JWTkVuwL2HOc+wLIohUDGANgvT4hLABITF5+KUJeikH0xvOK5DvYqfDBBG9Mecb8n/eTcrTlwCe/peObyCyznsFA9ABaAFMB/FLVABYAJOLM+TsYFroOF68oM/3Ov7otlr7tjycbm99udTKOqL15mPZNGgqLeZafLJYOwLuo6BlQaSwASG8RsecwYdoGxXqjP9XMCUve8oevl/Xe2qaqOXutBEGf3kJiisZoa1CpbGDr4ABbByeo7exho7bsfSvmRKvToUxX9QJRV6ZBuaa04q8So3b3nAXgs8q+iN+JVGVarQ6z/7MTn313ULFbrc8P8sQnYd6ws/ANbKSMpnUd0KO1CxJTDHNM0M7JBdVqNYBHQB24VPeDi5cPHD28oFKZVltlqpBfVor0Ypn9Irrycmhys1CalQ5NdgaKbiehKCUJ5RqDDI2ai4oBQ0sq8yIWAFQlGZlFGDslCvG7EhXJd7RX4etpfni2u5si+WQdFm3MUbxHgJNHNfg3bQ3fRi3g5uOPihurZG1UNjaw96wOe8/qAAAvdICuvBwlaSnISzyLvEtnoC1SbJiUChXDhNJRcVTwoV/ERwBUKcdP38awkHW4mqTMD9bafnZYOtsfjzdwUCSfrMOOhEKM/jAFZVr521MqlQq+DVugVqtO8AqsC170zZPkHYAH0ZWXo/DGFWSfPIzCm9eUeptCAE8DOP4wv5gFAFXK8nWnMPnVjSgsUuaZatcnnLFgVg1Ud+fzfqq6S8ml6DHzhvjoZZVKhRpNWqFeu+5wqe4nmk2GZ8gC4K+Kbycj8+g+FCRdUSL+EoDWAPIe9AtZANBDKSsrxztzdiH824OKvUdoXw98PtUHtmp+mqKqK9Pq0Pe1ZCRclN2U5eZbE016DYOHfx3RXDIeYxUAdxXevIo7+7agNFv89NRaVDQLui/uAaAHSr1TgGfDIrHn4HVF8l2cbPD9DD8M6eiqSD5Zl/8szxS9+NvY2qJR54EIbPk0VCoWpyTHuWY91B7xHDIS9iLr+CEI7qYeBWAnKsYK3xPvANB9HT15C8NC1+H6jRxF8usH2GHZbH80rcvn/aS/w2eLMGBWMrRCd/6dvXzw2KAguPkGyASSSTH2HYC/Krp5Dbd3rEdZYb5YJIBmAK7e6xfwbArd04Llx9Ch32LFLv6927hg59e1efEnEaVlOrz4VarYxd+nQTO0C5rBiz8ZhFPNuqg1IgyOPv5ikQC+ut8vYAFA/1BSqsXLb2/FczPjUFKqFc9XqYAZI7yw6v0AeLjwW5BkzI/JxhWhhj/+TVvj8WeCYWvP4pQMx9bZFTWfCYZzrQZSkc8AGHivf8lHAPQ/bt7Kw4iJ6/D7nzcVyXd3scH8V2ugXzsXRfLJOt3J1uLJ568ht0D/j/+1W3fCo90Gg0f7LJ8pPQL4K125Fre3RSH/6gWJuEQAzVHxSOB/8OMX/de+35PwZM8Fil38H61tjx1f1eLFn8R9uixD5OIf0LwNL/5kdCobNWr0HAanmnUl4uoDmPJv/4IFAAEAvl9wBD2GLcPtNLENKP9j8NOu2P5lLTxS016RfLJeSakarNiWq3eOT4OmaNp7JHjxJ1OgUqsR0GckHLxF+k28BuAfk9RYAFi54pIyTHo5FtPe2gKNRn5q2t3n/Yvf8oerE7/dSN4P0dl6d/tz9vRG8wFjobLh9yiZDht7BwT0HQW1g5O+UQEAQv+Rr28qma/klFx0HvQbFq18qK6Rleblpsa6j2ri/QnesOGHKlJAdn45VmzX79O/jdoWLQYFwdaeo6bJ9Ni6esCv+2CJqLcA/M8tWBYAVmrH3qto2e1XHDmWokh+i/oO2Pl1LfRo5axIPhEALNqYjYIi/e5cPdK5P9z9agqtiEieS52G8GjaWt+Y2gCG/PUfsACwQr8sPYp+o1ciPVOZ3a/Du7hhy+eBqFvDTpF8IqCiadpvW/X79O/q7Y/aLTsKrYhIOd7tu8PWWe9uqUF//RsWAFYkv6AUz4ZFYvKrGxV53m+rVuH9Cd5Y8EYNODvyW4uUdfhsEZJSq37uX6VSoWnvEXzuT2bBxt4B1dt31zemL4Aa/83UN43Mw+WrmXiq32KsjTmrSL6PpxrRn9bEjBFeiuQT/V3kXv1OrPg9+jg8AjjYh8yHe6PH4OBd48G/8N5sAYy++zcsAKzApu2X0abXQpw+l6ZIfqtGjtj1dW10bKH3TlWih1Km1SFm/wOnnd6HCnXb6f1pisjgqrXS+5HVuLv/hwWABdPpgI/n7cOgcauRnSM7GvWu8b3dsTE8EDV9OFiSDOfw2WLcya56m2qfBk3g5sMe/2R+XOs9Cnsvb30iWgHwBlgAWKy8/FKMmLgO783djfJysRGT/3X3ef93L/vB0Z5n/MiwDpz+R1fTSqml/6coIuNQqeDRTK8TATYAut79P2RhLl7JQPu+ixAVd16R/BrVbLHps0A+7yejOahHAeDg6o5qtR8RXA2RYbk1bA6VWq1PRDeABYDFid16EW17L8TZC3cUyW/X1Am7v6mFNo3ZNIWMQ1Omw5HzVX+k5d+0NVQq/ugj86V2cNJ3YmB3gAWAxdBqdXj70514JmgNcnJLFHmPsIGeiJ1TE37V+LyfjOfElRIUFlf9GKtvw+aCqyEyDtd6jfV5eWMA/EluCTKzijB2cjS27rqiSL6DnQqfT/VFUG93RfKJKuP89dIqv9bW3gHufoGCqzGespIipF48hfTEc8hPv42S/BxoNVX/2lgqWwdHOLh6wN0vEN71m8D3keawsTX/S5+z/pMCG5n/V8HKnTybiqHB65B4PUuR/ABvWyyd7Y/WjXjLn0zDlZSqX+Q8A+tDZaPXs1OjK9dqcf3ILlz/cw80xfpthrQGZSXFKCspRkFGKm6dTYCjmwfqPdULgY+1M/bS9GLr6g47j2rQ5GRWNeJRFgBmbGXkaTw3Mw6FRVXvhnY/nR93xsJZNeDtYd4/MMmyJKZU/fvd3Bv/lOTn4MSGpchJuW7spZit4rwcnIuPQPqVs6jbe4Sxl6MXJ79AvQoA7gEwQ2Vl5Xjl3XiMmxKt2MX/pWFeiPw4gBd/MjlX9CgAXLx8BFdiWKWF+fhzzU+8+Au5c+UszkUtQnmZMj9DDcHOq7o+L+cdAHOTll6AZ8MisfuAMj8EnB1t8N3LvhjW2U2RfCJ9paSXVfm1LtV8BVdiOLrychyLWojCrHRjL8Wi5KcmA7ti4d8eDN40AAAgAElEQVRrmLGXUiX2nnoVAP68A2BGjhxLwZM9Fyh28a/nb4dt8wJ58SeTps/4XydPvTqoGU3Ssf3IvX3D2MuwSPlXzqLg+mVjL6NK7Nz16sXixgLATCxfdwpdBv+GGzf1G396Lz2fdMHOr2ujaV0HRfKJJJRodCgtq1pnS5WNGmo78xtRXV5WhquHthl7GRYt4/BOYy+hSmzs9dqczQLA1JWVlePNj3cgaOp6FBVX/dbnvahUwIwRXljzQQA8XfntQKatQI/z/7b25lnc3rlyhrv9FVaSmYaS9FRjL6PSbOzt9Xm5G/cAmLCU23kYOTECB48kK5Lv5myDn17xw4CnXBXJJ5Kmz+1/tX4/LI0mPfGcsZdgFQqSLsHB28/Yy6gUGzu9iloWAKbqwB83MHJiBG6l6jfz/F4eqWmPZbP90biOef5QJOtUVvUBgGZ7/r8gU5kx3vS/SrMzjL2ESlPZ6HXX1o73fE3QL0uPovvQZYpd/Pu0dcGOr2rx4k9kBgrN8MJkjjTZVT5Pb7Z4B8CElJRq8eIbm7FwxTFF8lUq4OXhXng31Bs2nOBLZPLKy8qgKSo09jKsQllBnrGXYHAsAExEckouhk9Yhz+OpiiS7+Zsg/mv1kD/9i6K5BORvJL8HABVO/VAlaMtygd0uopPSlaCBYAJ2HsoCaMmRSD1ToEi+c3qOWDZbH/U8ze/I1BE1qwoV5kZH/RPuvJylBXmwdbFeoaecQ+Akf2y9Ch6Dl+m2MV/WGc3xH8RyIs/kRli8x/DKk67ZewlGBTvABhJcUkZpry2Cb+tPqFIvtoGeCfEGy8P97KmO1pEFiXnVlKVX9t8RFf0+mii4GrMQ8SEObhxuGpHJ4vTbsK13qPCKzJdLACM4Mq1LAwNXotT55Q53lPdXY0Fs2qg6xPOiuQTkfJ0Oh2yU65V+fW+jWvLLcaM+DSuU+UCoEiPgsscsQAwsC07r2Ds5ChkZRcrkv9Yg4rn/bX9eMufyJxl3biMUj12pvs0Me/Rx1Xl82jVC5/i28nQ5GXDzs1TcEWmi3sADESnA8K/PYiBY1cpdvEf1c0NWz6vxYs/kQW4dfZolV+rslHB59FagqsxH756Fj75l88KrcT08Q6AAeTll2LCtA2IjFOmpaetWoXZwdUxY4Rek6GIyESUFOQi9ULV9wdVfyQQds56DYoxW9UaBMDe1Qml+VWbn5B9NgGej7WDSm2enSMrg3cAFHbxSgae6rdIsYu/t4ca0Z/W5MWfyIJcPbQdWk1plV/foFtLwdWYFxtbNeo+3aLKry/Ly0HO2QTBFZkuFgAKiou/hHZ9FuHM+TuK5Ldt4oh939dGxxZOiuQTkeHlp9/GzVOH9cqo1/UJodWYp/p6FkCZR/dDW6TM0WxTwgJAAXef9z8TtAbZOco87w/t64HYuYGoUY1PcYgshVZTipOxy1CurfrUI+dq7qjRooHgqsxPvS5PwEaPW/jaokLc2h5d8cPcgrEAEJabV4KhIWvx5sc7UF4u/83jYKfCN9N98dU0X9jb8oA/kaXQ6cpxZssaFGToN5e+Yd+2UFn5sA9HDxfUat9Er4yim9eQ/scuoRWZJhYAgk6eTUWr7r8iZvMFRfIDvG0RFx6I4D4eiuQTkXGUa7U4Fbtcr41/AACVCk+M7SmzKDP3xLjeemdkHTuIO/u3CqzGNLEAELJm/Rl06LcYV64p07u7Q3Mn7PqmNp581Dp39hJZquK8HByL/BWpF0/qnVW3YwtUqx8gsCrzV6/z4/CsU0PvnOzTR3B7x3qUl5YIrMq0sADQk1arw5sf78CY56NQUKhR5D1C+3pg/ac14etp+cdSiKyHDrfOJuD3375AZtJlkcRWQX1EciyBykaFluN7iWTlXTqN62t/QeGNRJE8U8EdZHrIyCzC6OcjsX3PVUXyHexV+PJFX4ztaT3TqYgsnw53rpxD4sF45KYmi6UGtGqIOk83F8uzBM2Hd8HR37YgJ1n/k1hl+Tm4uXElnGrUglfLDnCp01BghcbFAqCKjp26jWEh63DtRrYi+YE+tlg62x8tG/KWP5GlSLt0GlcObEV+uuzUOZXaBt3fDbGqWfYPw9bRHp3fGIvY6d+IZRbdvoGizWvg5F8b1dt1g1MN8+24yEcAVbAi4hQ6Dlii2MW/R2tn7P2uNi/+RBZCqynFqY0rcOL/tXff4VFV6R/Av9OTTCa9AyGQ0CHSQUUliBRpKoKKiqJYEEXQXXVd/alrxXUVsKFrRxQVpQso0hVBqpQQAoE0kpBeJmVK5vdHzC6LEJJ7z83Mnfl+nuc+Ksl57yGJue895T0rPhH+8AeA5JuGyaqB782ShvdTZGSkJi8LOSs+Q9HOjardLsgEoAUcjno88fxPuG3GclTXiJ/v12iA2TeG4qtn2yDUwvl+Im/gsNVh37f/Rn7qPkXiW2LCcNlDExWJ7S2GPTUVRrMCL1QuF0r3/YL8jStUmQQwAWimwuJqjJi0GHMX/KJIfLO/Fh8/EYtnpkVAx+8KkddI/XEpSnOUWSek1etw7Wsz4RdsViS+twhpH4NRr9yn2BRJZfohFO/eqkhsJfFR0wy79+eh//APsGn7KUXiJ8YZsOFf7TBhSKAi8YnIPfKP7lPszR8AUp6airi+6l+M1hoSr+6HfneOUix+yd7tqC0UP72jJCYAF/H+Z3tx+ZiPkZVTrkj8EQPM+GlePLq2NyoSn4jcw1Vfj+Pb1ioW/5Kbr0by5BTF4nujIY9MRsKQZGWCu1wo3qmuyoFMAC6gzubEPXNW475H18Bmk16X+0Ia5/u/fCYOwWZ+G4i8TfGpNNSUlygSu9ekoUh5aqoisb2ZVqfD+LdnIzGlryLxq3MyYK9QphicEvjkOY/cvEpcNf5TfPC5Qot2ArRY9PeG+X4fL9lN5LUKM5Q5AvySKcMx/NlpPl/vXyqdQY8xbzyIjgqdmGg9la5IXCWwDsA5tv2ahcl3f4v8M1WKxO/U1ojFT8eiU1sO+RN5s4r8bKHxNDotLn3wBgy6d5xP7ve3WWtxZPk2HN+wG8Xpuah3OBEQEYQ2/bqg16QURPfs0OxYOqMeY+fPwuYXF+H3r8UO29cWnhYaT0lMAM7y/md78eATa2G31ysS/4YrLXjz4SgE+HHghcjb2ayVwmL5h1kweu4Mn630l/nLIfzw93+jquB/h9drK6woycjDwaVb0HPiVUh58jbo/Zr3cqUz6HH1s9PQpn8XbHj2E9irxRzd7qyxConTGpgAAKitc2DGX77HJ0tknsR1ATot8NQdEXh4YqgvJu5EPqneKWbtUPshvTDyxXtgjgwREk9tTmzaizWz34LT7rjwJ7lcOLR0MypyCzHhnUegNxmaHb/r2MsQ1T0B6x5fiILDp2T31+Voop8exudfRbNyynHF2E8Ue/iHWXT45h9tMPtGPvyJfInOIG+azxIThpEv34sb3v+rzz78z6RmYu1f3m364X+WrB2H8evby1p8n7COcZjy9XMY+fK9CAiXd9y6Rub3vTX5dAKw+edM9B/+AXbvV2bvZq+OJmyc3w4pfQIUiU9EnktvMklu2/+ua3Hn2n+i+4QhAnukLtbCMqx44A3Ya1p2DO+eT9bCWiRh27ZGg+4ThuDO7+ei69hLW97+D1ojEwCP5nIBcxf8guETF6GwuFqRe0xKsWD9a+3QPrr5Q1FE5D30RukJQPylPVs0jO1tHHV2rHxoPqoKWr6Nst7hRNr3v0q+t8kSgLi+nSW31xnVc4aLz60BqLLaMO2hlVi6SpktOnqdBn+fGo7ZN4YqEp+I1EHOg6CmtEJgT1TG5cKPT3+I/N9PSA5RcChDVhdqiqV//dU0BeBTCUB6Rgmuv+NrHD4q/2zo84kI1uGjJ2JxRbK/IvGJSD2MAdJLe1uLfDcB2PXvVTi6Wt6ZK3UV8kZ2q2UkAHp/9ZzL4DMJwJof03HbjOUoKxez1eNcvZNMWPRUHNpG+syXlIiaYDIHSW5bXaxM6XFPd2LjXvyy4FvZceSe/Gctkn7Uu86snjNdvH4NQON8//jbvlLs4X/nqGCs/1c7PvyJ6D9MFumryStylBml9GRFadlY+9hCuOrlH6vbkqJA51OeLf3rr5eR+LU2r35iVVTW4Y4HV2D592mKxDcZNJh7fyTuGCVv2wgReR9ToPQHQVn2GYE98Xy1ZVVYNWu+kGI8Wp0OXUYPlhWjPFdOAmCRde/W5LUJwNH0Itxw5zdIPVakSPzYcD0+ezIW/buqZ8UnEbUeP4v0vfvlPpQAOO0OrHxwnrCkp/etwxEYEya5fXVJBWxVNZLbqykB8MopgBVr0zBo5EeKPfwv7eGPzfPj+fAnogsKCI2Q3LauslraXnYV+unZT5C795iQWJFd4nH57EmyYpSeypfcVm+2QOsruwDqTiuzlU4qZ70Lz7x5CP/6OA0u+dNI53X7iCC8dE84DDqgrk78McFEdGFKHM2tFL3RDyZzEOqs0laUF6Vlwxzh3dOLez5ei8PLtgqJ5R9qwbgFs5p9FsCFFKZmSm5rDAmXde/WJisBqMlRpnyuFCWVTkyfm49N+5Qp7GMyaPDS3WGYdKUZLrsTNrsityGiJthVlnSbw6MkJwCFaVleffhP5vaD2Pb6V0JiafU6jJ33EILbRcmOVXg0S3Jbgy8lAJ7iYEYdbn8hD5kFyjyV48J1eG92JC5JVM/QDhG5X0BoJEqyjktqK+dB5OlKMvKw5tG34XKKOXl12NN3oO2ArkJiFaZJP8bZp0YAPMHSzZWYtaAANXXKjPlf2t0Pb88KR0SQTpH4ROS9LJGxktvKqYTnyWrLrVjxwOuoqxQzWttv2rXoNWmokFiOWhuK0qQnXqbwaCH9aC2qTQAcThde/KwY85aWXvyTJdBogPvHBuGxm0Kg88qlkkSktKCYdpLblmUVwFpY5lUnAdY7nFg9+02UZRUIidd+SC9c8chkIbEAoODQyWafPHg+pogYYX1pDapMAIrKnbh7bj62HlBmvt/sp8Fr94VjzCCe4kdE0gVGxkGr06PeKe2hcnpfOjqNGCC4V+6z+aXPkb3ziJBYYR1jMeZfM6ER+IYmZzeCMSQcWhkHQLmD6t5t9x+vQ8rDWYo9/DvE6LH8uRg+/IlINq1Oh0AZ0wC5e8Rsj/ME+xf/iANLfhISyy/YjAnvPAKTRezv6dMyEgCTjO+zu6hqBGDJTxWY89YZ1NqUme8f1tsfCx4MR1CA6vIiIvJQwTHtUJEvbWFZ5s8HBffmv8qyCnBs3S4Upmaivr4efsGBiOudhE4jB8qupX+urB2HseWVL4TE0up1GDd/FkLixc63O20O5Px2VHJ7v6g4gb1pHapIAOrsLjy+sBCfrlOmMEbjfP/jN4dAq1HkFkTko0LbJSJ7v7TT7UoyTqPidBGC4qQXFTpXbbkVm1/+HKmrfsG5BVMOLd2Mza8sxuUP34jeU4Y3/HKUqSwzH2vmvIV6p5gtnClPTUXbgd2ExDpb7p402GvqJLf3j2svsDetw+NfdfOKHRj7RI5iD/9Afy3emx2Bv93Chz8RiRfaLhGA9F8umT8fEtYXa1E5vr79BaSu/PlPD/9GtqoabHpxEX546kPZB/PYqmqw8qH5qK2wyorTqPet1yB5coqQWOc6tV36aIvOLwCmMPk1CFqbRycAvx6uwdCHs7D7qDKn+CXGGrDyH9EYNYDz/USkDGNAIAIjpA9XZ2zaK6QfLmc9Vj00H8XHc5v1+YeXbcWON6UfzVvvdGL1I281+34X0/6ynrjqiSlCYp1PxuZ9ktv6x8ULGS1pbR6bAHyyrhzjn8zFmVJlKn9d088fK5+PRlIbgyLxiYgahcYnSW6b+cshIXvmj6zYjrwDLStKtPP9VTj+425J99v66hJkynirPltoQgyufX0mtDpl6rEUpWWj9GSe5Pb+cQniOtOKPC4BqLW58OC8Asx58wzsDvGL/XRaYM7EYHzwSCQsXOxHRK0gIqGL5LZOmwMnt8gvu35gycaWN3K5sP7J91v8Fn/wm83Yt2h9y+93HiZLACa8PQd+QWYh8c4n/cffZLU3t+soqCety6OegLmFDox5PAeLf5RWO/tiQgO1+PSxKMyZGKzG0RoiUqmw+E7QGaTvET+2dqes+9tr6nAm9ZSktjZrLVY+NL/ZoxA5vx3Fphc+k3Svc2l1Oox5/UGEdlB2i92xddK/vsawSBiCpR8/7E4ekwBsP1iDlNlZ2HtMmfn+Hu2NWP1iDK5M5hG+RNS6tHo9whM6S25/cusBVJ2RXvW0uqhcVt39ssx8rHnkrYvGqMgtwuo5b8qqpne2Kx+/RfEDkXL3HkNJhvTh/0AZ31d3c3sC4HIBC1eU4fq/56KwTJn5/usuN+O7Z6PRLlIVux6JyAtFJnaX3Lbe6cSR5dskt9ca5P/uy/z5EHa8veyCH7dZa7H8gddRU1Ip+14A0GvSUPS5bYSQWE059M1mWe3N7ZkASGKtqcddr+Thb+8XwuEUP9+v1wF/uyUEC2aGw9/EMX8icp/IxO7QaKX/yj20dIvkbXmW6FAhVfN2vrcSxzfs+dOfu+pdWPvXd1CcniP7HgDQdkBXDHv6DiGxmlJXWY1j63dJbq8PCFRlAaBGbksAMk7bcc2j2Vi+vUqR+GEWLT5/IgozxgUpEp+IqCUM/maEy1gMWJ5TKL2OvkaDpOH9Jd/7P1wurHvivT8tCtz++lfI2LxffnwAQW0iMPaNh6DVK38C69HVO+CotUlub0nqocrtf420ACS/ekutEbF+lxUps7OQmin9C9+UPklGrH05Fpf14Hw/EXmO2G59ZbU/KGO4ut9do6Ezyp8KsFfXYtWs/y4KPLJiO3Z/9L3suABgDPTHde8+Cv8wi5B4F3No6WZZ7S2de4npiJtoAUjeYFpV3bJFJS4XMG9pKab84zQqrNIXpDTlhivM+OqpaMSGKZ89EhG1RGRSD1m7AU78tEfyHHt4YhsMfuB6yfc+W+mpfKx7fCFO703Hhmc+EhJTo9Ni9KszEJ7URki8iyk4dBJnUjMltzeGRqju+N9zaQFIXrFRbm3+or2qmnpMfTEPz31cJHnkoClGgwbPTg3FvBnh8DOqd0iGiLyXzmBEVCfpq9qddgf2f/Gj5PYD7xmLxKv7SW5/tozN+7F02stw2sSs+B8yZzI6Du0tJFZz7Pl0naz2FhnfR08hKwHIKWzeN/5opg0pD2dj9Q5l5vtjwnT4+uko3DWqdYaNiIikatNroKz2+xb9IL0yoEaD0XPvE/aWLWq7X/cJQ9D/rmuFxGqOhpMQZdRW0GgQpPLhf6AhAciX2vjA8YufnLRiexWGP5qN47nKzPcP7GrCmhdi0DdJ+rAaEVFrCW2XiEAZQ8d1ldX4XUpVvz8YAvwwbsHDQnYFiBDXpxOGP3dXq95z13srZdVFCEzoDH1gsMAeuYcWQJrUxnvTL1y0x1kPPPdxEaa9kgdrjTLz/dNGWrDk71GIDOF8PxGpR5vkQbLa7/lkLezV0oumhSbEYMy/ZkKjc28pGEtsOMYtmCVkcWJzVeYV4+jqHbJiBHeXt5jTU2gBHJPa+IddVtjOU6+/tNKJyc/kYt7S0gudOCmLyaDBP+8Nw3N3hEKv43w/EalLXI/+0BmMktvXlFbi4NItsvrQfkgvDJ5xnawYcuj9jBg3fxYCwlv3TXrX+6tkTV0YLCEIaKvO2v/n0gI4LLVxubUeW/b971zUwYw6pDycjY175Z9edT5tI/VY9mw0bhoaqEh8IiKl6U3+srcE7vn4e9kL8AbPmIBOIwbIiiGJRoORL92D6J4dWvW2VQWlOLxsq6wYwT37q3rv/9m0AH4GILkG74ffl//n37/dUomRf8lGZoFdQNf+bHA3E1Y+H42eHaRnzkREniC+/1XQyHiQVBWU4sCSn+R1QqPBiBfvabWtd40umzURnUfJmwaRYue7y2UlTVqjCcHd+gjskXtpAZQD2Cs1wPpdVuxOq8VzHxdh+qv5qKlTYMwfwJRhgfjiyWhEBHG+n4jUzxwWicikHrJi/Pr2MtSUyqu9bzS37qLATiMGYNC941rlXmcrPp6LQ9/KfPvv0Q9ao/csOG9cASJ9SSmAcU/kYN5S6SdVNcXsp8E7syLwyvQwtEJlSCKiVpMwcJis9nWV1djx1ney+xGaEINRr9wHjVbZoe2o7gkY9cp9bhlC3/LKYtQ7pR84p9HpENLTDdMlCmpMAL6VE6TWpsxbf0K0Hsuei8HYwZ6xXYWISKTg2HiEtpU3D37w680oEnAIT8eUPoouCjRHhmDCW7Oh92v9KdwTG/ci85dDsmIEdU6G3uxdtWYaE4DfIGMxoBKG9fbHqhdi0LWdwd1dISJSTMfLRspqX+90YvNLnwvpy+AHrlNkUaDeZMD4t2YjMCZMeOyLcdod2PrPJbJiaLRahPa5TFCPPMfZm0C/cFsvzqLRADPGBeGjv0Yi2OzePapEREoLi09CWHySrBjZO48gY9M++Z1pXBSYKHBRoEaDa56fjphe7tk6t//zH1CWKbneHQAgqGsfGIJCBfXIc5z9hP0QQI27OgIAlgAtPngkEn+7JQQKT0UREXmMxCGjZMfY9OIi2KzSiwM1Mpr9MO5NcYsCB8+YgK5jLxUSq6UqThfh13eWy4qh0ekR1u9yQT3yLGcnAAUAPnBXRxJjDVj+XDSu6efvri4QEblFSFwCwjt0lRWj4nQRfp73jZD+hCbEYOQr98peFJg0vJ+wEwhbzOXChmc/lp0UBXfvC705SFCnPMu5Y+yvAlCmaH8Thvf1x8rno9GpDef7icg3dbryWmg08qY9D3y5Abm7JVd3/x+JKX0xSMaiwMiu8Rg1937FdxZcyKFvtyBz+0FZMbRGE8L6eufbP/DnBCAHwFutdXOdFnj8phB8+GgkLAGc7yci32WJjEOczG1mrnoX1j/5Puw1Fz+orTkulbgoMCA8GBPengODv3v2zFedKcW2176SHSes3xXQ+ZsF9Mgzne+p+yyAXKVvHBKoxSePRWHmhCBvqapIRCRL0hWjoTf6yYpRnlMopDYAgD8W8N2NsI5xzW6iNxkw/s2HYYkNF9MHCTY+/xlqK6yyYhiCQr1u3/+5zpcAVAKYo+RNDXoNnr4tFH2TWNKXiKiRMSAQCYPkFQcCgL2frcfpvekCegSYLAGY+NHjCO0Qe9HPNfibMOGdRxDbW96uBjmOLN+OEz/tkR0n4tLh0Oi8u/pcU+/eiwFMUfTmGiAiWIegAC1CzFr4mzgUQOQtIoN1GNjVhNEDAxBmETPFl1ngwBVzTktq6x8SjiHT/yakH0qqdziw45PXUF1WJCuOJTYct333AvyCxQxh26y1+GXBtzj4zSY4as9ZKqbRIGFIL6Q8eRtC2scIuZ8UpSfzsHjSM7KOSgaAgLYd0GbsrYJ6paz0hS9IbtvUEzcQwG4AXSRHJyKfF+inxawbgnDfGPnTfb6QAABAafYJ7P5qIQB5VVY7XNUb170zR2jpXVtVDU79fBBlmflw2hwIjA5D+8t7IiguQtg9pHDaHFhyy3M4k5opK45Gp0P8pHthDHHfFEZLyEkA9E18rArAZDScFsizd4lIkqraerz0RRmOZtvxxv3hXPPTDKHtEhHTrTfyU+UV9zm5ZT/2LvoBfafKqzZ4NmOgPzqPHCgsnihb5i6W/fAHgLC+Q1Tz8JfrYuNyvwO4EW7YGkhE3uW7bVa8u6rC3d1QjS4p42Hwk18XZdtrS5B34LiAHnmu9B9+w4EvZR6NDMAYHIbQ3u4pWuQOzZmYWw9gGoB6hftCRF5uwbJyFJZJP5HNlxgDLOh01VjZceodTqx9bKHsVfGeqiz7DH58+kP5gTQaRF01BhpdUwPj3qW5K3O+AHAXAIeCfSEiL1dd58KqX6vd3Q3VaNNrECI6dpMdpzz7DL5/5G1Zx+F6Ipu1FisfnIe6Svk/UyE9B8A/rr2AXqlHS5bmfgrgOgD8v5eIJPs1VUyRGl/RfcQkGPzk1+XP/OUQtr4q71Q8T+Kqd2HtY++iWMBRyMaQcEQI2H6pNi3dm7MGQAqALAX6QkQ+oKDMCb1B55J2aeUti1chU2AQulwtvSTv2fYtWo+DX28SEsvdtr/xtZATEDVaLaKHjYdG7ztD/42k/I13AUhGw8FBN4rtDhF5u33pdRviJp28RmLzRADevaLtPGK79cWZ9EM4c+x32bE2vbgIYYlxaNNPvTu8U1f+jN0frhESK7T3ZfCLEnj8sYpIrc5RjoYtgjMBlInrDhH5gFR3d0CNuo+4EX5BIbLjOO0OrHp4AcqyCgT0qvXl7knDhmc+EhLLEhuPsP5XComlRnLKc7kAvAOgG4DPIbdiBRH5imXu7oAaGfwCkDxuKjRa+eVpa0oq8d30V2EtVNf7W/HxXKycOQ+OOrvsWHqTPzqNvgkare8eRCfib54P4HYAgwCsABMBIrqwrQC8YxLaDYJj45F4uZiiPuU5hfjunn8KWUHfGqryS7Ds3n8K287YY9RkmIJChcRSK5Gpz29o2CVwCYCPALDiBxGdrQgNNUVIhoSBKQhP6CwkVtGxbKyatQBOm2fv8K4tq8K30+eiMr9ESLx2fS5HVKdeQmKpmRJjHwcB3A0gBsCtAFaCyQCRrzsJ4GoAGe7uiNppNBr0GnMr/AS9vWbvPIJ1jy+Ey+mZtd7s1bVYPuN1lGTkCYkXHNcenYeOExJL7ZSc/KhBQwGhCQDCAQwG8ASALwHsQcNZA0Tk3TIA/B+AXmgoLU4CGPzN6H39NOgMBiHxjq3fhe//+q7HJQGOWhtWzHxDWCljo9mCS8ZPhdaHqv01pbW+Cg4AO/+4zhYKIAQNhw0FAhBzbiURuVsVgGwAue7uiLeyRMah+4jJOLhmsZB4x9bthN7PgBEv3AON1v0nNjlqbVg+43Vk7xSzaUSj1SF53FSYAoOFxPMG7k6DSv+4iIiohWK69UFFfqmHJz0AAAzHSURBVDYy92wVEu/I8u3QaLS45vm73ZoEOG0OrJ79JrJ3HhEWs+vw6xHatoOweN7Ad/c/EBF5gU5Dxwo5L6DR4WVb8dM/PoGr3j0buhy1Nqx48A2c3HpAWMx2fYegbfJgYfG8BRMAIiIV02i0SB53GyxRccJiHvx6E9Y9sRD1jtY9PMheU4cVM99A5vaDwmJGdOyGLkPHC4vnTZgAEBGpnM5gQp8bpsPPIr9SYKOjq3dg1cMLhBTdaY7aCiu+vXsusnYcFhbTEtUGyeNu8+liP03hV4WIyAuYAoPQZ+J06E1+wmJmbNqHZfe9Bpu1VljM86kuLsfSO15G3n5xxzyYAoPQ+/q7oDOYhMX0NkwAiIi8RGBEDC6ZcAe0Ak+2y9mViu+mv4qakkphMc9WlpmPr6Y8j8I0cYfMGvzN6HvjvfCzcMV/U5gAEBF5kbD4Tkged7uQMwMa5R04ji9veQ6lJ8UU42mU//sJLLn1eZRlnxEWU2/0Q9+J0xEYESMsprdiAkBE5GUiE3ugx+iboNGI28pXnn0GS6b8A7l7jwmJd3zDHnxz58tCRxa0egN6Xz8NQTHthMX0ZkwAiIi8UGy3vuh69fUAxCUBteVWfDf9VRxbd25Nt5bZ/dH3WD17ARy1NkE9A7Q6HXpPuAOh7RKFxfR2TACIiLxU296XoUuK2C1wjlob1jz6Dra//nWLawU4bQ788Pd/Y9trS4TWGdBotOgx+haEd+gqLKYvYAJARGpSJ7Why+nZJ94pJb7fFegw6GqxQV0u/PbBaqx55C3Ya5r3LakuLsfSaS/j8LJtQrui0WjQfeQkxHTtLTSuGsj8ma5lAkBEaiJ5wthhk5w7qF7SFaPR6coxwuOm//Abvpj0fyhKz2ny83L3pGHxxP/D6X3pQu+v0WjRfeRkxPUcIDSuWtTbZE2hVDIBICI1qQIgaezYabNJbeoVEgamKJIElGTk4cubnsXh785zHoHLhX2L1mPptFdQdUbssS8Nw/43+ezDHwDq7bKS2kpx+0SIiJTnAvBXAEYpTeP7XgmdXswRumoU0qYDTAGBKMo4KjRuvcOJExv3ojz7DBKGJEOr18FWVYO1jy/E3k/XCT9XQKtrONlP7rC/rd6JakfrVDpUgr28FBWp+6Q2z2ICQERq8xAajg9vsahOvXy+OExQTDuYzBYUnxSbBABAUVo2Tm37HebwIKyaNV/4kD/QsNXvkuvuRGRid9mx1J4A1JzORJX072M6EwAiUpubALSR0jC0XUdYIsUdmqNWQTHt4BcUiqKMVMAl9u3cWliGtLU7UVdRLTQu0HjmwV0IT+gsJJ7aE4CqjCOoyZNcQXE71wAQkdpIfuWpKi4Q2Q9Vi+s5oOHsAKM6auUbzRb0v3kGwuKT3N0Vj2ErLZLTPI0JABGpjeRSdGU5J0X2Q/XC23dGv8n3wxggaUal1fiHhGPALTMRFN3W3V3xKDV52XKaMwEgItVJk9qwPC8LTnkrp71OUEw7DLx1Fsxhke7uynkFx8Zj4JSHEBAS4e6ueJS6kjNw1ljlhGACQESqc0RqQ1e9E6UcBfgT/+AwDJjyEELaJLi7K/8jKqkn+t80w+NHKNyhJueUnOYOAOlMAIhIbVIBSJ78LEg7ILAr3sPgF4B+k+5HbPd+7u4KACC+7xAkT5gKrQ9v22xK5QnJeTAA7AFQzQSAiNSmHsAWqY0L0n7nNMAFaPV69Lz2ZnS6cozQkwRb1AedHj1G34wuw66DRsNH1PnYy0tQW9B09cWL2AjwLAAiUqeNUhs67XU4k35IZF+8jAYJA1PQ+4a7oTf5teqdTYFB6H/zA4jr0b9V76s2FccOyg2xCWACQETqtElO48zdW+DLZYGbI6JD14bFd6Gts/guOK49Bt0+G8Gx8a1yP7VyOewoP7JXTggbgF8AJgBEpE6pAE5IbVx55rTwcrjeyBwejUG3z1H4pD0N4vsOQf+bHoDJHKTgfbxD+ZF9clf/bwRgBQBWAiQitQoDMFRq45qyErRJHgjAPXPdaqHV6RHdORkBwWEoOpUGV329sNh6ox96XnsL2g8YCo229d9H1VYJ0OVwIH/Dd6i3yzoF8BkABwEmAESkXpkAZkHiE7yuqhwBIREsDdxMlqg4RCR0QUnWcThqa2THC46NR7/J9yGkTQcBvZNGbQlAyZ6tsGYelxOiAsA9AOwAEwAiUq8yANcAkDxpXJabibbJg7jVrJlMgcFomzwYTlsdyiXWoNdotUgYMBS9xkyBwd8suIcto6YEwF5egvyfVgAuWSMwXwBY2vgfTACISM20AMZLbey022CvrUZkYg+BXfJuGq0OER26Iii6DUqyjsPZguHogNAI9LnhbsT1HOARW/xUkwC4XMj78TvYy0vkRpqDhpEzAEwAiEjdDgO4C4BFaoDKglwEhEbAEhkrrlc+wBwWhbbJg+CorUFFQW6Tn6vRahHf53Ikj58K/+CwVurhxaklASjZux0VR2UXsNoJ4Omz/4AJABGpmfOPf46UE6QkMx3RnZNh8A8Q0CXfodUbEJnYHWHxSbAWn0FdVfmfPieiYzdcMv4OxPXoD63Osx45akgAak5nomDzKhGhZuCcg7S4/JWI1M4M4CQAWafZBIREYMCUmTAGSB5M8Hk15cWoyM+Bva4GRn8zguPae/TWviqHDUW11e7uxgXZy0uQvfxTudv+AOAAgD44p/iFZ6VjREQtZwdgBDBMVpDaapRmZyC2Wx9odXoxPfMxBr8ABEbEICi6Lczh0dAbTe7uUpM8eQTAYa1EzspFcForRYR7EOc5RIsJABF5gz0AbgUQIidIXVUFyvOyENWpF5MAH+CpCYDDWonc1YthLy8VEW4rgMfP9wEmAETkDewATgG4WW6gmvISFJ1IRVRST49/gyV5PDEBsJUVI2flItgrhDz8HQCuA1Bwvg8yASAib5EGoB+ALnID2aqrUHj8MMLik3gWvRfztASgOvcUTn//JZzVVaJCvg7g8wt9kIsAicibdABwCICQ5fw6gwFdhl2PNr0GighHHsZjFgG6XCjesw0le7YBLmGHVGUD6A7ggtkERwCIyJuUAcgDMEFEMFd9PQpPHIa1uAAhbTtwSsDLeMIIgK2sGHk/LEXlsd9Fhm0c+k9v6pOYABCRt9kPoCOAS0QFtBYXIPfgTugMRgTFtIVGw8FTb+DOBMDlsKPkt60o2LgC9soy0eGfRhND/434U0xE3sgMYBcahkCF8g8OQ3y/K9A2+VJo9dwpoGbumAKod9hRkboPpft3wCFmi9+5NgIYgf8WybogJgBE5K16APgZQLASwf2CQtD2kssQ270v/Cyydh+Sm7RmAmArLULFsd9RkboPTgGnKV7AKQADARQ255OZABCRN7sKwDoAfkrdQKPRILRdIqI69UJYfBLM4dFK3YoEUzQBcLlQV5SP6txTqDpxBLWFecrc578KAQzBOeV+m8IEgIi83fUAvkErrXkymYMQ3CYB5tBImMMiERAaCb2fP3QGE3QGY2t0gZrJ6rShRObbeL29DvU2G5x1NbCXl8BWVgxbaRFq8rNRX1crqKcXVYWGSpi/taQREwAi8gX3AlgI/s4j72NDw5HY61vakLsAiMgX7EHDgUHjALj/IHoiMawAJqJhmqvFmA0TkS8ZB+ArAP7u7giRTCUAxgLYITUAEwAi8jWDAKwBEO7ujhBJdArAKDSUv5aMQ2FE5Gt2ouHMgJ3u7giRBD8BGAyZD3+AawCIyDeVA1gEIAgNIwJEns4B4HkA09FEfX8iImq+G9Ewn+rixctDr1No2ONPRESChQGYj4byqe7+Zc+LV+NlQ8PPpQVERKSoIQAOwP2/+Hnx2oyGctZERNRK9ADuQkNJVXc/BHj53vUbBB1nTURE0mjRUDdgD9z/UODl/dd2NPy8cXs+EZGH0KJhz/UXAKrh/gcFL++5SgG8B+BSEBGRRwtCw/TARjQs0HL3A4SX+i4rgBUAJkHBUyqbg0MNRETSBAC4DMBwNCweHAjA4NYekSdyoGFh6YY/ru0AWu2YwKYwASAiEsMPQGcAXc76ZyyAEACBf1xmt/WOlFKJhsI8lQAqAGShYQHpMQCpADIA2N3WOyIiIiIiIiIiIiIiIiIiIiIiIiIiIiIiIiIiIiIiIiIiIiIiIiIiIiIiIiIiIiIiIiIiIiIiIiIiIiIiIiIiIiIiIiIiIiIiIiIiIiIiIiIiIiIiIiIiIiIiIiIiIiIiIiIiIiIiIiIiIiIiIiIiIiIiIiIiIiIiIiIiIiIiIiIiIiIiIiIiIiIiIiIiIiIiIiIiIiIiIiIiIiIiIiIiIiIiIiIiIiIiIiIiIiIiIiIiIiIiIiIiIiIiIiIiIiIiIiIiku//Ae6KF3L5jHDnAAAAAElFTkSuQmCC;" vertex="1" parent="1">
          <mxGeometry x="561" y="225" width="30" height="30" as="geometry" />
        </mxCell>
        <mxCell id="bjE_prnjRbW4GjXfM1Jb-24" value="Encrypted X_test" style="text;html=1;align=center;verticalAlign=middle;resizable=0;points=[];autosize=1;strokeColor=none;fillColor=none;" vertex="1" parent="1">
          <mxGeometry x="521" y="260" width="110" height="30" as="geometry" />
        </mxCell>
      </root>
    </mxGraphModel>
  </diagram>
</mxfile>
